{
.appVersion = "3185";
.formatVersion = 3;
axes = (
{
name = Weight;
tag = wght;
}
);
classes = (
{
automatic = 1;
code = "a b c d e f g h i j k l m n o p q r s t u v w x y z A B C D E F G H I J K L M N O P Q R S T U V W X Y Z agrave egrave ograve Agrave Egrave ugrave aacute eacute oacute uacute Aacute Eacute Igrave Iacute Ograve Oacute Ugrave Uacute acircumflex ecircumflex ocircumflex ucircumflex Acircumflex Ecircumflex Icircumflex Ocircumflex Ucircumflex adieresis edieresis odieresis udieresis Adieresis Edieresis Idieresis Odieresis Udieresis igrave iacute icircumflex idieresis atilde ntilde otilde Atilde Ntilde Otilde Abreve Amacron Aogonek Aring AE Cacute Ccaron Ccedilla Cdotaccent Eth Dcaron Dcroat Ecaron Edotaccent Emacron Eogonek Gbreve Gcommaaccent Gdotaccent Hbar Idotaccent Imacron Iogonek Kcommaaccent Lacute Lcaron Lcommaaccent Lslash Nacute Ncaron Ncommaaccent Eng Ohungarumlaut Omacron Oslash OE Thorn Racute Rcaron Rcommaaccent Sacute Scaron Scedilla Scommaaccent Germandbls Tbar Tcaron Tcedilla Tcommaaccent Uhungarumlaut Umacron Uogonek Uring Wacute Wcircumflex Wdieresis Wgrave Yacute Ycircumflex Ydieresis Ygrave Zacute Zcaron Zdotaccent abreve amacron aogonek aring ae cacute ccaron ccedilla cdotaccent eth dcaron dcroat ecaron edotaccent emacron eogonek gbreve gcommaaccent gdotaccent hbar idotless idotaccent imacron iogonek jdotless kcommaaccent lacute lcaron lcommaaccent lslash nacute ncaron ncommaaccent eng ohungarumlaut omacron oslash oe thorn racute rcaron rcommaaccent sacute scaron scedilla scommaaccent germandbls tbar tcaron tcedilla tcommaaccent uhungarumlaut umacron uogonek uring wacute wcircumflex wdieresis wgrave yacute ycircumflex ydieresis ygrave zacute zcaron zdotaccent fi fl ordfeminine ordmasculine Delta Omega mu pi";
name = AllLetters;
},
{
automatic = 1;

glyphs = (
{
glyphname = A;
kernLeft = A;
kernRight = A;
lastChange = "2023-04-19 11:59:39 +0000";
layers = (
{
anchors = (
{
name = bottom;
pos = (522,0);
},
{
name = ogonek;
pos = (940,10);
},
{
name = top;
pos = (522,1213);
}
);
layerId = "CE2138A5-93BA-4A69-8B69-7D34CC27D2DF";
shapes = (
{
closed = 1;
nodes = (
(136,0,l),
(265,365,l),
(783,365,l),
(905,0,l),
(983,0,l),
(563,1213,l),
(482,1213,l),
(60,0,l)
);
},
{
closed = 1;
nodes = (
(521,1117,l),
(759,430,l),
(284,430,l)
);
}
);
width = 1044;
},
{
anchors = (
{
name = bottom;
pos = (679,0);
},
{
name = ogonek;
pos = (1222,10);
},
{
name = top;
pos = (698,1342);
}
);
layerId = "54E4F05E-05D2-4398-A473-3C5492C75DBF";
shapes = (
{
closed = 1;
nodes = (
(376,0,l),
(449,236,l),
(912,236,l),
(985,0,l),
(1322,0,l),
(895,1342,l),
(488,1342,l),
(36,0,l)
);
},
{
closed = 1;
nodes = (
(687,964,l),
(839,473,l),
(530,473,l)
);
}
);
width = 1358;
},
{
anchors = (
{
name = bottom;
pos = (574,0);
},
{
name = ogonek;
pos = (1034,10);
},
{
name = top;
pos = (581,1256);
}
);
layerId = "26C860F9-3A1D-441D-9B2D-5C5CFD026C88";
shapes = (
{
closed = 1;
nodes = (
(216,0,l),
(326,322,l),
(826,322,l),
(932,0,l),
(1096,0,l),
(674,1256,l),
(484,1256,l),
(52,0,l)
);
},
{
closed = 1;
nodes = (
(576,1066,l),
(786,444,l),
(366,444,l)
);
}
);
width = 1148.66667;
}
);
unicode = 65;
},
{
glyphname = AE;
kernLeft = A;
kernRight = A;
lastChange = "2023-04-19 11:59:39 +0000";
layers = (
{
guides = (
{
angle = 248.8613;
locked = 1;
pos = (438,569);
},
{
angle = 68.8771;
locked = 1;
pos = (295,629);
},
{
pos = (-284,430);
},
{
pos = (1412,635);
}
);
layerId = "CE2138A5-93BA-4A69-8B69-7D34CC27D2DF";
shapes = (
{
closed = 1;
nodes = (
(611,1213,l),
(142,0,l),
(218,0,l),
(363,376,l),
(323,365,l),
(775,365,l),
(758,382,l),
(758,0,l),
(1448,0,l),
(1448,65,l),
(815,65,l),
(832,37,l),
(832,590,l),
(815,572,l),
(1412,572,l),
(1412,635,l),
(815,635,l),
(832,616,l),
(832,1168,l),
(815,1151,l),
(1448,1151,l),
(1448,1213,l)
);
},
{
closed = 1;
nodes = (
(371,430,l),
(380,419,l),
(670,1169,l),
(635,1151,l),
(775,1151,l),
(758,1168,l),
(758,403,l),
(776,430,l)
);
}
);
width = 1593;
},
{
guides = (
{
angle = 247.9425;
locked = 1;
pos = (862,1215);
},
{
angle = 247.9425;
locked = 1;
pos = (612,1298);
},
{
pos = (-480,473);
},
{
pos = (-410,236);
},
{
pos = (2335,807);
},
{
pos = (2335,280);
}
);
layerId = "54E4F05E-05D2-4398-A473-3C5492C75DBF";
shapes = (
{
closed = 1;
nodes = (
(581,1342,l),
(36,0,l),
(369,0,l),
(510,347,l),
(358,236,l),
(912,236,l),
(860,352,l),
(860,0,l),
(1696,0,l),
(1696,280,l),
(1128,280,l),
(1180,134,l),
(1180,620,l),
(1128,529,l),
(1658,529,l),
(1658,807,l),
(1128,807,l),
(1180,680,l),
(1180,1110,l),
(1128,1065,l),
(1696,1065,l),
(1696,1342,l)
);
},
{
closed = 1;
nodes = (
(432,473,l),
(527,391,l),
(852,1190,l),
(729,1065,l),
(912,1065,l),
(860,1105,l),
(860,386,l),
(912,473,l)
);
}
);
width = 1856;
},
{
layerId = "26C860F9-3A1D-441D-9B2D-5C5CFD026C88";
shapes = (
{
closed = 1;
nodes = (
(601,1256,l),
(107,0,l),
(268,0,l),
(412,366,l),
(335,322,l),
(821,322,l),
(792,372,l),
(792,0,l),
(1531,0,l),
(1531,137,l),
(919,137,l),
(948,69,l),
(948,600,l),
(919,558,l),
(1494,558,l),
(1494,692,l),
(919,692,l),
(948,637,l),
(948,1149,l),
(919,1122,l),
(1531,1122,l),
(1531,1256,l)
);
},
{
closed = 1;
nodes = (
(391,444,l),
(429,410,l),
(731,1176,l),
(666,1122,l),
(821,1122,l),
(792,1147,l),
(792,397,l),
(821,444,l)
);
}
);
width = 1680.66667;
}
);
unicode = 198;
},
{
glyphname = B;
lastChange = "2020-10-22 18:08:06 +0000";
layers = (
{
anchors = (
{
name = bottom;
pos = (595,0);
},
{
name = top;
pos = (595,1213);
}
);
layerId = "CE2138A5-93BA-4A69-8B69-7D34CC27D2DF";
shapes = (
{
closed = 1;
nodes = (
(631,0,ls),
(920,0,o),
(1028,147,o),
(1028,324,cs),
(1028,445,o),
(926,590,o),
(764,607,c),
(932,641,o),
(1006,759,o),
(1006,901,cs),
(1006,1063,o),
(884,1213,o),
(633,1213,cs),
(218,1213,l),
(218,0,l)
);
},
{
closed = 1;
nodes = (
(292,576,l),
(633,576,ls),
(840,576,o),
(952,476,o),
(952,325,cs),
(952,175,o),
(864,64,o),
(633,64,cs),
(292,64,l)
);
},
{
closed = 1;
nodes = (
(633,1151,ls),
(810,1151,o),
(930,1062,o),
(930,904,cs),
(930,731,o),
(804,637,o),
(631,637,cs),
(292,637,l),
(292,1151,l)
);
}
);
width = 1189;
},
{
anchors = (
{
name = bottom;
pos = (676,0);
},
{
name = top;
pos = (676,1342);
}
);
layerId = "54E4F05E-05D2-4398-A473-3C5492C75DBF";
shapes = (
{
closed = 1;
nodes = (
(754,0,ls),
(1160,0,o),
(1256,221,o),
(1256,379,cs),
(1256,556,o),
(1141,645,o),
(1004,681,c),
(1141,727,o),
(1234,833,o),
(1234,981,cs),
(1234,1186,o),
(1075,1342,o),
(750,1342,cs),
(169,1342,l),
(169,0,l)
);
},
{
closed = 1;
nodes = (
(489,527,l),
(744,527,ls),
(858,527,o),
(909,476,o),
(909,399,cs),
(909,322,o),
(852,280,o),
(744,280,cs),
(489,280,l)
);
},
{
closed = 1;
nodes = (
(738,1065,ls),
(859,1065,o),
(906,1007,o),
(906,935,cs),
(906,860,o),
(859,809,o),
(736,809,cs),
(489,809,l),
(489,1065,l)
);
}
);
width = 1352;
},
{
anchors = (
{
name = bottom;
pos = (622,0);
},
{
name = top;
pos = (622,1256);
}
);
layerId = "26C860F9-3A1D-441D-9B2D-5C5CFD026C88";
shapes = (
{
closed = 1;
nodes = (
(672,0,ls),
(1000,0,o),
(1104,172,o),
(1104,342,cs),
(1104,482,o),
(998,608,o),
(844,632,c),
(1002,670,o),
(1082,784,o),
(1082,928,cs),
(1082,1104,o),
(948,1256,o),
(672,1256,cs),
(202,1256,l),
(202,0,l)
);
},
{
closed = 1;
nodes = (
(358,560,l),
(670,560,ls),
(846,560,o),
(938,476,o),
(938,350,cs),
(938,224,o),
(860,136,o),
(670,136,cs),
(358,136,l)
);
},
{
closed = 1;
nodes = (
(668,1122,ls),
(826,1122,o),
(922,1044,o),
(922,914,cs),
(922,774,o),
(822,694,o),
(666,694,cs),
(358,694,l),
(358,1122,l)
);
}
);
width = 1243.33333;
}
);
unicode = 66;
},
{
glyphname = C;
kernLeft = C;
lastChange = "2023-04-19 12:03:17 +0000";
layers = (
{
anchors = (
{
name = bottom;
pos = (622,0);
},
{
name = top;
pos = (628,1213);
}
);
layerId = "CE2138A5-93BA-4A69-8B69-7D34CC27D2DF";
shapes = (
{
closed = 1;
nodes = (
(883,-20,o),
(1087,138,o),
(1087,387,c),
(1001,387,l),
(1001,179,o),
(846,46,o),
(618,46,cs),
(318,46,o),
(190,307,o),
(190,620,cs),
(190,974,o),
(395,1167,o),
(618,1167,cs),
(790,1167,o),
(939,1059,o),
(1001,882,c),
(1083,904,l),
(1007,1097,o),
(851,1231,o),
(618,1231,cs),
(338,1231,o),
(110,1015,o),
(110,620,cs),
(110,262,o),
(296,-20,o),
(618,-20,cs)
);
}
);
width = 1184;
},
{
anchors = (
{
name = bottom;
pos = (695,0);
},
{
name = top;
pos = (655,1342);
}
);
layerId = "54E4F05E-05D2-4398-A473-3C5492C75DBF";
shapes = (
{
closed = 1;
nodes = (
(1030,-32,o),
(1222,138,o),
(1222,449,c),
(884,449,l),
(884,345,o),
(816,262,o),
(679,262,cs),
(534,262,o),
(430,393,o),
(430,669,cs),
(430,950,o),
(530,1081,o),
(679,1081,cs),
(790,1081,o),
(853,997,o),
(884,882,c),
(1224,941,l),
(1191,1196,o),
(1017,1372,o),
(679,1372,cs),
(326,1372,o),
(86,1132,o),
(86,669,cs),
(86,207,o),
(327,-32,o),
(679,-32,cs)
);
}
);
width = 1310;
},
{
anchors = (
{
name = bottom;
pos = (646,0);
},
{
name = top;
pos = (637,1256);
}
);
layerId = "26C860F9-3A1D-441D-9B2D-5C5CFD026C88";
shapes = (
{
closed = 1;
nodes = (
(932,-24,o),
(1132,138,o),
(1132,408,c),
(962,408,l),
(962,234,o),
(836,118,o),
(638,118,cs),
(390,118,o),
(270,336,o),
(270,636,cs),
(270,966,o),
(440,1138,o),
(638,1138,cs),
(790,1138,o),
(910,1038,o),
(962,882,c),
(1130,916,l),
(1068,1130,o),
(906,1278,o),
(638,1278,cs),
(334,1278,o),
(102,1054,o),
(102,636,cs),
(102,244,o),
(306,-24,o),
(638,-24,cs)
);
}
);
width = 1226;
}
);
unicode = 67;
},
{
glyphname = D;
lastChange = "2020-10-22 18:08:06 +0000";
layers = (
{
anchors = (
{
name = bottom;
pos = (633,0);
},
{
name = center;
pos = (633,607);
},
{
name = top;
pos = (633,1213);
}
);
layerId = "CE2138A5-93BA-4A69-8B69-7D34CC27D2DF";
shapes = (
{
closed = 1;
nodes = (
(218,0,l),
(533,0,ls),
(897,0,o),
(1118,246,o),
(1118,608,cs),
(1118,973,o),
(897,1213,o),
(533,1213,cs),
(218,1213,l)
);
},
{
closed = 1;
nodes = (
(533,1153,ls),
(850,1153,o),
(1042,922,o),
(1042,608,cs),
(1042,293,o),
(850,58,o),
(533,58,cs),
(292,58,l),
(292,1153,l)
);
}
);
width = 1266;
},
{
anchors = (
{
name = bottom;
pos = (715,0);
},
{
name = center;
pos = (715,671);
},
{
name = top;
pos = (715,1342);
}
);
layerId = "54E4F05E-05D2-4398-A473-3C5492C75DBF";
shapes = (
{
closed = 1;
nodes = (
(169,0,l),
(644,0,ls),
(1057,0,o),
(1346,258,o),
(1346,669,cs),
(1346,1084,o),
(1057,1342,o),
(644,1342,cs),
(169,1342,l)
);
},
{
closed = 1;
nodes = (
(644,1048,ls),
(862,1048,o),
(999,892,o),
(999,669,cs),
(999,453,o),
(862,292,o),
(644,292,cs),
(489,292,l),
(489,1048,l)
);
}
);
width = 1429;
},
{
anchors = (
{
name = bottom;
pos = (660,0);
},
{
name = center;
pos = (660,628);
},
{
name = top;
pos = (660,1256);
}
);
layerId = "26C860F9-3A1D-441D-9B2D-5C5CFD026C88";
shapes = (
{
closed = 1;
nodes = (
(202,0,l),
(570,0,ls),
(950,0,o),
(1194,250,o),
(1194,628,cs),
(1194,1010,o),
(950,1256,o),
(570,1256,cs),
(202,1256,l)
);
},
{
closed = 1;
nodes = (
(570,1118,ls),
(854,1118,o),
(1028,912,o),
(1028,628,cs),
(1028,346,o),
(854,136,o),
(570,136,cs),
(358,136,l),
(358,1118,l)
);
}
);
width = 1320.33333;
}
);
unicode = 68;
},
{
glyphname = Eth;
lastChange = "2023-04-19 09:56:04 +0000";
layers = (
{
layerId = "CE2138A5-93BA-4A69-8B69-7D34CC27D2DF";
shapes = (
{
closed = 1;
nodes = (
(44,579,l),
(660,579,l),
(660,638,l),
(44,638,l)
);
},
{
ref = D;
}
);
width = 1266;
},
{
layerId = "54E4F05E-05D2-4398-A473-3C5492C75DBF";
shapes = (
{
closed = 1;
nodes = (
(44,532,l),
(686,532,l),
(686,810,l),
(44,810,l)
);
},
{
ref = D;
}
);
width = 1429;
},
{
layerId = "26C860F9-3A1D-441D-9B2D-5C5CFD026C88";
shapes = (
{
closed = 1;
nodes = (
(44,561,l),
(669,561,l),
(669,695,l),
(44,695,l)
);
},
{
alignment = -1;
ref = D;
}
);
width = 1320.33333;
}
);
metricRight = D;
unicode = 208;
},
{
glyphname = E;
lastChange = "2020-10-22 18:08:06 +0000";
layers = (
{
anchors = (
{
name = bottom;
pos = (537,0);
},
{
name = ogonek;
pos = (641,10);
},
{
name = top;
pos = (537,1213);
},
{
name = topleft;
pos = (20,1213);
}
);
layerId = "CE2138A5-93BA-4A69-8B69-7D34CC27D2DF";
shapes = (
{
closed = 1;
nodes = (
(929,0,l),
(929,64,l),
(290,64,l),
(290,584,l),
(893,584,l),
(893,647,l),
(290,647,l),
(290,1151,l),
(929,1151,l),
(929,1213,l),
(216,1213,l),
(216,0,l)
);
}
);
width = 1074;
},
{
anchors = (
{
name = bottom;
pos = (612,0);
},
{
name = ogonek;
pos = (743,10);
},
{
name = top;
pos = (612,1342);
},
{
name = topleft;
pos = (20,1342);
}
);
layerId = "54E4F05E-05D2-4398-A473-3C5492C75DBF";
shapes = (
{
closed = 1;
nodes = (
(1064,0,l),
(1064,280,l),
(487,280,l),
(487,529,l),
(1028,529,l),
(1028,807,l),
(487,807,l),
(487,1065,l),
(1064,1065,l),
(1064,1342,l),
(167,1342,l),
(167,0,l)
);
}
);
width = 1224;
},
{
anchors = (
{
name = bottom;
pos = (562,0);
},
{
name = ogonek;
pos = (675,10);
},
{
name = top;
pos = (562,1256);
},
{
name = topleft;
pos = (20,1256);
}
);
layerId = "26C860F9-3A1D-441D-9B2D-5C5CFD026C88";
shapes = (
{
closed = 1;
nodes = (
(974,0,l),
(974,136,l),
(356,136,l),
(356,566,l),
(938,566,l),
(938,700,l),
(356,700,l),
(356,1122,l),
(974,1122,l),
(974,1256,l),
(200,1256,l),
(200,0,l)
);
}
);
width = 1124;
}
);
unicode = 69;
},
{
glyphname = F;
kernRight = F;
lastChange = "2023-04-19 12:00:51 +0000";
layers = (
{
layerId = "CE2138A5-93BA-4A69-8B69-7D34CC27D2DF";
shapes = (
{
closed = 1;
nodes = (
(292,0,l),
(292,591,l),
(893,591,l),
(893,655,l),
(292,655,l),
(292,1151,l),
(927,1151,l),
(927,1213,l),
(218,1213,l),
(218,0,l)
);
}
);
width = 1002;
},
{
layerId = "54E4F05E-05D2-4398-A473-3C5492C75DBF";
shapes = (
{
closed = 1;
nodes = (
(489,0,l),
(489,529,l),
(986,529,l),
(986,802,l),
(489,802,l),
(489,1065,l),
(1044,1065,l),
(1044,1342,l),
(169,1342,l),
(169,0,l)
);
}
);
width = 1140;
},
{
layerId = "26C860F9-3A1D-441D-9B2D-5C5CFD026C88";
shapes = (
{
closed = 1;
nodes = (
(358,0,l),
(358,570,l),
(924,570,l),
(924,704,l),
(358,704,l),
(358,1122,l),
(966,1122,l),
(966,1256,l),
(202,1256,l),
(202,0,l)
);
}
);
width = 1048;
}
);
unicode = 70;
},
{
glyphname = G;
lastChange = "2020-10-22 18:08:06 +0000";
layers = (
{
anchors = (
{
name = bottom;
pos = (610,0);
},
{
name = top;
pos = (610,1213);
}
);
layerId = "CE2138A5-93BA-4A69-8B69-7D34CC27D2DF";
shapes = (
{
closed = 1;
nodes = (
(914,-20,o),
(1018,186,o),
(1018,502,c),
(974,502,l),
(974,183,o),
(824,50,o),
(627,50,cs),
(348,50,o),
(186,281,o),
(186,585,cs),
(186,944,o),
(415,1163,o),
(676,1163,cs),
(792,1163,o),
(908,1119,o),
(1021,1009,c),
(1072,1057,l),
(952,1177,o),
(824,1231,o),
(676,1231,cs),
(390,1231,o),
(110,1030,o),
(110,585,cs),
(110,204,o),
(346,-20,o),
(628,-20,cs)
);
},
{
closed = 1;
nodes = (
(1050,0,l),
(1050,577,l),
(633,577,l),
(633,516,l),
(974,502,l),
(974,306,l),
(996,0,l)
);
}
);
width = 1220;
},
{
anchors = (
{
name = bottom;
pos = (712,0);
},
{
name = top;
pos = (712,1342);
}
);
layerId = "54E4F05E-05D2-4398-A473-3C5492C75DBF";
shapes = (
{
closed = 1;
nodes = (
(914,-32,o),
(1030,174,o),
(1030,502,c),
(974,502,l),
(974,367,o),
(861,259,o),
(707,259,cs),
(551,259,o),
(432,416,o),
(432,671,cs),
(432,926,o),
(550,1083,o),
(707,1083,cs),
(816,1083,o),
(890,1014,o),
(935,904,c),
(1275,965,l),
(1198,1245,o),
(1015,1372,o),
(725,1372,cs),
(341,1372,o),
(86,1085,o),
(86,671,cs),
(86,259,o),
(340,-32,o),
(677,-32,cs)
);
},
{
closed = 1;
nodes = (
(1278,0,l),
(1278,712,l),
(707,712,l),
(707,516,l),
(974,514,l),
(974,276,l),
(1014,0,l)
);
}
);
width = 1423;
},
{
anchors = (
{
name = bottom;
pos = (644,0);
},
{
name = top;
pos = (644,1256);
}
);
layerId = "26C860F9-3A1D-441D-9B2D-5C5CFD026C88";
shapes = (
{
closed = 1;
nodes = (
(914,-24,o),
(1022,182,o),
(1022,502,c),
(974,502,l),
(974,244,o),
(836,120,o),
(654,120,cs),
(416,120,o),
(268,326,o),
(268,614,cs),
(268,938,o),
(460,1136,o),
(686,1136,cs),
(800,1136,o),
(902,1084,o),
(992,974,c),
(1140,1026,l),
(1034,1200,o),
(888,1278,o),
(692,1278,cs),
(374,1278,o),
(102,1048,o),
(102,614,cs),
(102,222,o),
(344,-24,o),
(644,-24,cs)
);
},
{
closed = 1;
nodes = (
(1126,0,l),
(1126,622,l),
(658,622,l),
(658,516,l),
(974,506,l),
(974,296,l),
(1002,0,l)
);
}
);
width = 1287.66667;
}
);
unicode = 71;
},
{
glyphname = H;
lastChange = "2020-02-19 16:24:59 +0000";
layers = (
{
anchors = (
{
name = bottom;
pos = (631,0);
},
{
name = center;
pos = (631,607);
},
{
name = top;
pos = (631,1213);
},
{
name = topleft;
pos = (20,1213);
}
);
layerId = "CE2138A5-93BA-4A69-8B69-7D34CC27D2DF";
shapes = (
{
closed = 1;
nodes = (
(218,0,l),
(292,0,l),
(292,586,l),
(972,586,l),
(972,0,l),
(1042,0,l),
(1042,1213,l),
(972,1213,l),
(972,647,l),
(292,647,l),
(292,1213,l),
(218,1213,l)
);
}
);
width = 1261;
},
{
anchors = (
{
name = bottom;
pos = (745,0);
},
{
name = center;
pos = (745,671);
},
{
name = top;
pos = (745,1342);
},
{
name = topleft;
pos = (20,1342);
}
);
layerId = "54E4F05E-05D2-4398-A473-3C5492C75DBF";
shapes = (
{
closed = 1;
nodes = (
(169,0,l),
(489,0,l),
(489,531,l),
(996,531,l),
(996,0,l),
(1319,0,l),
(1319,1342,l),
(996,1342,l),
(996,813,l),
(489,813,l),
(489,1342,l),
(169,1342,l)
);
}
);
width = 1489;
},
{
anchors = (
{
name = bottom;
pos = (669,0);
},
{
name = center;
pos = (669,628);
},
{
name = top;
pos = (669,1256);
},
{
name = topleft;
pos = (20,1256);
}
);
layerId = "26C860F9-3A1D-441D-9B2D-5C5CFD026C88";
shapes = (
{
closed = 1;
nodes = (
(202,0,l),
(358,0,l),
(358,568,l),
(980,568,l),
(980,0,l),
(1134,0,l),
(1134,1256,l),
(980,1256,l),
(980,702,l),
(358,702,l),
(358,1256,l),
(202,1256,l)
);
}
);
width = 1337;
}
);
unicode = 72;
},
{
glyphname = Hbar;
lastChange = "2023-04-19 09:55:59 +0000";
layers = (
{
anchors = (
{
name = bottom;
pos = (631,0);
},
{
name = center;
pos = (631,607);
},
{
name = top;
pos = (631,1213);
},
{
name = topleft;
pos = (20,1213);
}
);
layerId = "CE2138A5-93BA-4A69-8B69-7D34CC27D2DF";
shapes = (
{
closed = 1;
nodes = (
(292,0,l),
(292,556,l),
(972,556,l),
(972,0,l),
(1042,0,l),
(1042,1213,l),
(972,1213,l),
(972,617,l),
(292,617,l),
(292,1213,l),
(218,1213,l),
(218,0,l)
);
},
{
closed = 1;
nodes = (
(987,816,l),
(987,875,l),
(275,875,l),
(275,816,l)
);
}
);
width = 1261;
},
{
anchors = (
{
name = bottom;
pos = (745,0);
},
{
name = center;
pos = (745,671);
},
{
name = top;
pos = (745,1342);
},
{
name = topleft;
pos = (20,1342);
}
);
layerId = "54E4F05E-05D2-4398-A473-3C5492C75DBF";
shapes = (
{
closed = 1;
nodes = (
(489,0,l),
(489,451,l),
(996,451,l),
(996,0,l),
(1319,0,l),
(1319,1342,l),
(996,1342,l),
(996,733,l),
(489,733,l),
(489,1342,l),
(169,1342,l),
(169,0,l)
);
},
{
closed = 1;
nodes = (
(1170,860,l),
(1170,1080,l),
(323,1080,l),
(323,860,l)
);
}
);
width = 1489;
},
{
anchors = (
{
name = bottom;
pos = (669,0);
},
{
name = center;
pos = (669,628);
},
{
name = top;
pos = (669,1256);
},
{
name = topleft;
pos = (20,1256);
}
);
layerId = "26C860F9-3A1D-441D-9B2D-5C5CFD026C88";
shapes = (
{
closed = 1;
nodes = (
(358,0,l),
(358,521,l),
(980,521,l),
(980,0,l),
(1134,0,l),
(1134,1256,l),
(980,1256,l),
(980,656,l),
(358,656,l),
(358,1256,l),
(202,1256,l),
(202,0,l)
);
},
{
closed = 1;
nodes = (
(1066,825,l),
(1066,951,l),
(290,951,l),
(290,825,l)
);
}
);
width = 1337;
}
);
unicode = 294;
},
{
glyphname = I;
lastChange = "2020-10-22 18:08:06 +0000";
layers = (
{
anchors = (
{
name = bottom;
pos = (255,0);
},
{
name = ogonek;
pos = (253,10);
},
{
name = top;
pos = (255,1213);
},
{
name = topleft;
pos = (20,1213);
}
);
layerId = "CE2138A5-93BA-4A69-8B69-7D34CC27D2DF";
shapes = (
{
closed = 1;
nodes = (
(292,0,l),
(292,1213,l),
(218,1213,l),
(218,0,l)
);
}
);
width = 510;
},
{
anchors = (
{
name = bottom;
pos = (330,0);
},
{
name = ogonek;
pos = (407,10);
},
{
name = top;
pos = (330,1342);
},
{
name = topleft;
pos = (20,1342);
}
);
layerId = "54E4F05E-05D2-4398-A473-3C5492C75DBF";
shapes = (
{
closed = 1;
nodes = (
(489,0,l),
(489,1342,l),
(169,1342,l),
(169,0,l)
);
}
);
width = 660;
},
{
anchors = (
{
name = bottom;
pos = (280,0);
},
{
name = ogonek;
pos = (304,10);
},
{
name = top;
pos = (280,1256);
},
{
name = topleft;
pos = (20,1256);
}
);
layerId = "26C860F9-3A1D-441D-9B2D-5C5CFD026C88";
shapes = (
{
closed = 1;
nodes = (
(358,0,l),
(358,1256,l),
(202,1256,l),
(202,0,l)
);
}
);
width = 560;
}
);
unicode = 73;
},
{
glyphname = J;
lastChange = "2023-04-19 12:57:54 +0000";
layers = (
{
anchors = (
{
name = bottom;
pos = (363,0);
},
{
name = top;
pos = (523,1213);
}
);
layerId = "CE2138A5-93BA-4A69-8B69-7D34CC27D2DF";
shapes = (
{
closed = 1;
nodes = (
(81,18,o),
(163,-20,o),
(261,-20,cs),
(453,-20,o),
(558,90,o),
(558,323,cs),
(558,1213,l),
(486,1213,l),
(486,323,ls),
(486,159,o),
(428,52,o),
(261,52,cs),
(169,52,o),
(81,94,o),
(0,156,c),
(0,70,l)
);
}
);
width = 725;
},
{
anchors = (
{
name = bottom;
pos = (486,0);
},
{
name = top;
pos = (656,1342);
}
);
layerId = "54E4F05E-05D2-4398-A473-3C5492C75DBF";
shapes = (
{
closed = 1;
nodes = (
(149,0,o),
(268,-32,o),
(396,-32,cs),
(637,-32,o),
(822,90,o),
(822,446,cs),
(822,1342,l),
(498,1342,l),
(498,446,ls),
(498,325,o),
(452,280,o),
(366,280,cs),
(280,280,o),
(167,297,o),
(49,359,c),
(49,46,l)
);
}
);
width = 971;
},
{
anchors = (
{
name = bottom;
pos = (404,0);
},
{
name = top;
pos = (569,1256);
}
);
layerId = "26C860F9-3A1D-441D-9B2D-5C5CFD026C88";
shapes = (
{
closed = 1;
nodes = (
(104,12,o),
(198,-24,o),
(306,-24,cs),
(514,-24,o),
(646,90,o),
(646,364,cs),
(646,1256,l),
(490,1256,l),
(490,364,ls),
(490,214,o),
(436,128,o),
(296,128,cs),
(206,128,o),
(110,162,o),
(16,224,c),
(16,62,l)
);
}
);
width = 807;
}
);
unicode = 74;
},
{
glyphname = K;
lastChange = "2020-10-22 18:08:06 +0000";
layers = (
{
anchors = (
{
name = bottom;
pos = (560,0);
},
{
name = top;
pos = (560,1213);
}
);
layerId = "CE2138A5-93BA-4A69-8B69-7D34CC27D2DF";
shapes = (
{
closed = 1;
nodes = (
(270,554,l),
(270,438,l),
(1017,1213,l),
(912,1213,l)
);
},
{
closed = 1;
nodes = (
(419,640,l),
(947,0,l),
(1049,0,l),
(478,689,l)
);
},
{
closed = 1;
nodes = (
(218,0,l),
(294,0,l),
(294,1213,l),
(218,1213,l)
);
}
);
width = 1120;
},
{
anchors = (
{
name = bottom;
pos = (703,0);
},
{
name = top;
pos = (703,1342);
}
);
layerId = "54E4F05E-05D2-4398-A473-3C5492C75DBF";
shapes = (
{
closed = 1;
nodes = (
(473,843,l),
(473,414,l),
(1386,1342,l),
(949,1342,l)
);
},
{
closed = 1;
nodes = (
(518,591,l),
(1015,0,l),
(1424,0,l),
(736,800,l)
);
},
{
closed = 1;
nodes = (
(169,0,l),
(491,0,l),
(491,1342,l),
(169,1342,l)
);
}
);
width = 1406;
},
{
anchors = (
{
name = bottom;
pos = (608,0);
},
{
name = top;
pos = (608,1256);
}
);
layerId = "26C860F9-3A1D-441D-9B2D-5C5CFD026C88";
shapes = (
{
closed = 1;
nodes = (
(338,650,l),
(338,430,l),
(1140,1256,l),
(924,1256,l)
);
},
{
closed = 1;
nodes = (
(452,624,l),
(970,0,l),
(1174,0,l),
(564,726,l)
);
},
{
closed = 1;
nodes = (
(202,0,l),
(360,0,l),
(360,1256,l),
(202,1256,l)
);
}
);
width = 1215.33333;
}
);
unicode = 75;
},
{
glyphname = L;
kernRight = L;
lastChange = "2023-04-19 12:02:03 +0000";
layers = (
{
anchors = (
{
name = bottom;
pos = (441,0);
},
{
name = center;
pos = (441,607);
},
{
name = top;
pos = (441,1213);
},
{
name = topright;
pos = (821,1213);
}
);
layerId = "CE2138A5-93BA-4A69-8B69-7D34CC27D2DF";
shapes = (
{
closed = 1;
nodes = (
(218,1213,l),
(218,0,l),
(879,0,l),
(879,64,l),
(292,64,l),
(292,1213,l)
);
}
);
width = 881;
},
{
anchors = (
{
name = bottom;
pos = (522,0);
},
{
name = center;
pos = (522,671);
},
{
name = top;
pos = (562,1342);
},
{
name = topright;
pos = (1024,1342);
}
);
layerId = "54E4F05E-05D2-4398-A473-3C5492C75DBF";
shapes = (
{
closed = 1;
nodes = (
(169,1342,l),
(169,0,l),
(996,0,l),
(996,280,l),
(489,280,l),
(489,1342,l)
);
}
);
width = 1044;
},
{
anchors = (
{
name = bottom;
pos = (468,0);
},
{
name = center;
pos = (468,628);
},
{
name = top;
pos = (481,1256);
},
{
name = topright;
pos = (822,1256);
}
);
layerId = "26C860F9-3A1D-441D-9B2D-5C5CFD026C88";
shapes = (
{
closed = 1;
nodes = (
(202,1256,l),
(202,0,l),
(918,0,l),
(918,136,l),
(358,136,l),
(358,1256,l)
);
}
);
width = 935.33333;
}
);
unicode = 76;
},
{
glyphname = Lslash;
kernRight = L;
lastChange = "2023-04-19 12:02:03 +0000";
layers = (
{
layerId = "CE2138A5-93BA-4A69-8B69-7D34CC27D2DF";
shapes = (
{
closed = 1;
nodes = (
(497,710,l),
(486,771,l),
(57,696,l),
(69,635,l)
);
},
{
ref = L;
}
);
width = 881;
},
{
layerId = "54E4F05E-05D2-4398-A473-3C5492C75DBF";
shapes = (
{
closed = 1;
nodes = (
(682,724,l),
(633,999,l),
(27,899,l),
(76,624,l)
);
},
{
ref = L;
}
);
width = 1044;
},
{
layerId = "26C860F9-3A1D-441D-9B2D-5C5CFD026C88";
shapes = (
{
closed = 1;
nodes = (
(559,715,l),
(535,847,l),
(47,764,l),
(71,631,l)
);
},
{
alignment = -1;
ref = L;
}
);
width = 935.33333;
}
);
unicode = 321;
},
{
glyphname = M;
lastChange = "2020-10-22 18:08:06 +0000";
layers = (
{
anchors = (
{
name = bottom;
pos = (819,0);
},
{
name = top;
pos = (819,1213);
}
);
layerId = "CE2138A5-93BA-4A69-8B69-7D34CC27D2DF";
shapes = (
{
closed = 1;
nodes = (
(218,0,l),
(292,0,l),
(292,1156,l),
(279,1156,l),
(794,174,l),
(847,174,l),
(1364,1164,l),
(1344,1164,l),
(1344,0,l),
(1420,0,l),
(1420,1213,l),
(1313,1213,l),
(813,269,l),
(825,269,l),
(326,1213,l),
(218,1213,l)
);
}
);
width = 1638;
},
{
anchors = (
{
name = bottom;
pos = (904,0);
},
{
name = top;
pos = (904,1342);
}
);
layerId = "54E4F05E-05D2-4398-A473-3C5492C75DBF";
shapes = (
{
closed = 1;
nodes = (
(169,0,l),
(489,0,l),
(489,953,l),
(463,953,l),
(806,125,l),
(1013,125,l),
(1358,955,l),
(1314,955,l),
(1314,0,l),
(1636,0,l),
(1636,1342,l),
(1196,1342,l),
(899,626,l),
(924,626,l),
(627,1342,l),
(169,1342,l)
);
}
);
width = 1807;
},
{
anchors = (
{
name = bottom;
pos = (847,0);
},
{
name = top;
pos = (847,1256);
}
);
layerId = "26C860F9-3A1D-441D-9B2D-5C5CFD026C88";
shapes = (
{
closed = 1;
nodes = (
(202,0,l),
(358,0,l),
(358,1088,l),
(340,1088,l),
(798,158,l),
(902,158,l),
(1362,1094,l),
(1334,1094,l),
(1334,0,l),
(1492,0,l),
(1492,1256,l),
(1274,1256,l),
(842,388,l),
(858,388,l),
(426,1256,l),
(202,1256,l)
);
}
);
width = 1694.33333;
}
);
unicode = 77;
},
{
glyphname = N;
lastChange = "2020-10-22 18:08:06 +0000";
layers = (
{
anchors = (
{
name = bottom;
pos = (650,0);
},
{
name = top;
pos = (650,1213);
}
);
layerId = "CE2138A5-93BA-4A69-8B69-7D34CC27D2DF";
shapes = (
{
closed = 1;
nodes = (
(218,0,l),
(292,0,l),
(292,1156,l),
(283,1156,l),
(976,0,l),
(1082,0,l),
(1082,1213,l),
(1008,1213,l),
(1008,68,l),
(1018,68,l),
(331,1213,l),
(218,1213,l)
);
}
);
width = 1300;
},
{
anchors = (
{
name = bottom;
pos = (752,0);
},
{
name = top;
pos = (752,1342);
}
);
layerId = "54E4F05E-05D2-4398-A473-3C5492C75DBF";
shapes = (
{
closed = 1;
nodes = (
(163,0,l),
(483,0,l),
(483,892,l),
(430,892,l),
(1025,0,l),
(1334,0,l),
(1334,1342,l),
(1014,1342,l),
(1014,530,l),
(1036,530,l),
(497,1342,l),
(163,1342,l)
);
}
);
width = 1503;
},
{
anchors = (
{
name = bottom;
pos = (684,0);
},
{
name = top;
pos = (684,1256);
}
);
layerId = "26C860F9-3A1D-441D-9B2D-5C5CFD026C88";
shapes = (
{
closed = 1;
nodes = (
(200,0,l),
(356,0,l),
(356,1068,l),
(332,1068,l),
(992,0,l),
(1166,0,l),
(1166,1256,l),
(1010,1256,l),
(1010,222,l),
(1024,222,l),
(386,1256,l),
(200,1256,l)
);
}
);
width = 1367.66667;
}
);
unicode = 78;
},
{
glyphname = Eng;
lastChange = "2020-10-22 18:08:06 +0000";
layers = (
{
anchors = (
{
name = bottom;
pos = (650,0);
},
{
name = top;
pos = (650,1213);
}
);
layerId = "CE2138A5-93BA-4A69-8B69-7D34CC27D2DF";
shapes = (
{
closed = 1;
nodes = (
(960,-482,o),
(1082,-386,o),
(1082,-157,cs),
(1082,46,l),
(1012,46,l),
(1012,-157,ls),
(1012,-327,o),
(935,-418,o),
(809,-418,cs),
(721,-418,o),
(651,-383,o),
(563,-329,c),
(550,-395,l),
(642,-458,o),
(726,-482,o),
(806,-482,cs)
);
},
{
closed = 1;
nodes = (
(218,0,l),
(292,0,l),
(292,1156,l),
(283,1156,l),
(1075,-163,l),
(1082,0,l),
(1082,1213,l),
(1008,1213,l),
(1008,68,l),
(1018,68,l),
(331,1213,l),
(218,1213,l)
);
}
);
width = 1300;
},
{
anchors = (
{
name = bottom;
pos = (752,0);
},
{
name = top;
pos = (752,1342);
}
);
layerId = "54E4F05E-05D2-4398-A473-3C5492C75DBF";
shapes = (
{
closed = 1;
nodes = (
(1212,-513,o),
(1334,-398,o),
(1334,-95,cs),
(1334,989,l),
(1014,989,l),
(1026,-89,ls),
(1027,-204,o),
(972,-233,o),
(889,-233,cs),
(825,-233,o),
(743,-211,o),
(686,-188,c),
(686,-463,l),
(778,-488,o),
(862,-513,o),
(979,-513,cs)
);
},
{
closed = 1;
nodes = (
(163,0,l),
(483,0,l),
(483,892,l),
(430,892,l),
(1212,-280,l),
(1334,0,l),
(1334,1342,l),
(1014,1342,l),
(1014,530,l),
(1036,530,l),
(497,1342,l),
(163,1342,l)
);
}
);
width = 1503;
},
{
anchors = (
{
name = bottom;
pos = (684,0);
},
{
name = top;
pos = (684,1256);
}
);
layerId = "26C860F9-3A1D-441D-9B2D-5C5CFD026C88";
shapes = (
{
closed = 1;
nodes = (
(1044,-492,o),
(1166,-390,o),
(1166,-136,cs),
(1166,360,l),
(1013,360,l),
(1017,-134,ls),
(1017,-286,o),
(947,-356,o),
(836,-356,cs),
(756,-356,o),
(682,-326,o),
(604,-282,c),
(595,-418,l),
(687,-468,o),
(771,-492,o),
(864,-492,cs)
);
},
{
closed = 1;
nodes = (
(200,0,l),
(356,0,l),
(356,1068,l),
(332,1068,l),
(1121,-202,l),
(1166,0,l),
(1166,1256,l),
(1010,1256,l),
(1010,222,l),
(1024,222,l),
(386,1256,l),
(200,1256,l)
);
}
);
width = 1367.66667;
}
);
metricLeft = N;
metricRight = N;
unicode = 330;
},
{
glyphname = O;
kernLeft = O;
kernRight = O;
lastChange = "2023-04-19 12:03:09 +0000";
layers = (
{
anchors = (
{
name = bottom;
pos = (608,0);
},
{
name = center;
pos = (608,607);
},
{
name = ogonek;
pos = (1094,10);
},
{
name = top;
pos = (618,1213);
},
{
name = topleft;
pos = (20,1213);
},
{
name = topright;
pos = (1195,1213);
}
);
layerId = "CE2138A5-93BA-4A69-8B69-7D34CC27D2DF";
shapes = (
{
closed = 1;
nodes = (
(884,-20,o),
(1106,180,o),
(1106,601,cs),
(1106,1027,o),
(884,1231,o),
(609,1231,cs),
(332,1231,o),
(110,1025,o),
(110,601,cs),
(110,182,o),
(332,-20,o),
(609,-20,cs)
);
},
{
closed = 1;
nodes = (
(348,52,o),
(188,237,o),
(188,601,cs),
(188,966,o),
(348,1165,o),
(609,1165,cs),
(870,1165,o),
(1028,966,o),
(1028,603,cs),
(1028,237,o),
(870,52,o),
(609,52,cs)
);
}
);
width = 1215;
},
{
anchors = (
{
name = bottom;
pos = (722,0);
},
{
name = center;
pos = (722,671);
},
{
name = ogonek;
pos = (1299,10);
},
{
name = top;
pos = (722,1342);
},
{
name = topleft;
pos = (20,1342);
},
{
name = topright;
pos = (1423,1342);
}
);
layerId = "54E4F05E-05D2-4398-A473-3C5492C75DBF";
shapes = (
{
closed = 1;
nodes = (
(1106,-32,o),
(1358,204,o),
(1358,675,cs),
(1358,1132,o),
(1106,1372,o),
(720,1372,cs),
(338,1372,o),
(86,1148,o),
(86,675,cs),
(86,213,o),
(338,-32,o),
(720,-32,cs)
);
},
{
closed = 1;
nodes = (
(539,255,o),
(416,409,o),
(416,675,cs),
(416,929,o),
(539,1085,o),
(720,1085,cs),
(907,1085,o),
(1028,929,o),
(1028,677,cs),
(1028,409,o),
(907,255,o),
(720,255,cs)
);
}
);
width = 1443;
},
{
anchors = (
{
name = bottom;
pos = (646,0);
},
{
name = center;
pos = (646,628);
},
{
name = ogonek;
pos = (1162,10);
},
{
name = top;
pos = (653,1256);
},
{
name = topleft;
pos = (20,1256);
},
{
name = topright;
pos = (1271,1256);
}
);
layerId = "26C860F9-3A1D-441D-9B2D-5C5CFD026C88";
shapes = (
{
closed = 1;
nodes = (
(958,-24,o),
(1190,188,o),
(1190,626,cs),
(1190,1062,o),
(958,1278,o),
(646,1278,cs),
(334,1278,o),
(102,1066,o),
(102,626,cs),
(102,192,o),
(334,-24,o),
(646,-24,cs)
);
},
{
closed = 1;
nodes = (
(412,120,o),
(264,294,o),
(264,626,cs),
(264,954,o),
(412,1138,o),
(646,1138,cs),
(882,1138,o),
(1028,954,o),
(1028,628,cs),
(1028,294,o),
(882,120,o),
(646,120,cs)
);
}
);
width = 1291;
}
);
unicode = 79;
},
{
glyphname = Oslash;
kernLeft = O;
kernRight = O;
lastChange = "2023-04-19 12:03:09 +0000";
layers = (
{
layerId = "CE2138A5-93BA-4A69-8B69-7D34CC27D2DF";
shapes = (
{
closed = 1;
nodes = (
(197,0,l),
(1087,1216,l),
(1012,1216,l),
(125,0,l)
);
},
{
pos = (-2,0);
ref = O;
}
);
width = 1215;
},
{
layerId = "54E4F05E-05D2-4398-A473-3C5492C75DBF";
shapes = (
{
closed = 1;
nodes = (
(287,0,l),
(1380,1342,l),
(1116,1342,l),
(26,0,l)
);
},
{
ref = O;
}
);
width = 1443;
},
{
layerId = "26C860F9-3A1D-441D-9B2D-5C5CFD026C88";
shapes = (
{
closed = 1;
nodes = (
(227,0,l),
(1185,1258,l),
(1047,1258,l),
(92,0,l)
);
},
{
alignment = -1;
pos = (-1,0);
ref = O;
}
);
width = 1291;
}
);
unicode = 216;
},
{
glyphname = OE;
kernLeft = O;
kernRight = O;
lastChange = "2023-04-19 12:03:09 +0000";
layers = (
{
anchors = (
{
name = bottom;
pos = (488,0);
},
{
name = center;
pos = (488,607);
},
{
name = ogonek;
pos = (974,10);
},
{
name = top;
pos = (488,1213);
},
{
name = topleft;
pos = (-100,1213);
},
{
name = topright;
pos = (1075,1213);
}
);
layerId = "CE2138A5-93BA-4A69-8B69-7D34CC27D2DF";
shapes = (
{
closed = 1;
nodes = (
(768,-20,o),
(873,42,o),
(961,128,c),
(908,176,l),
(825,102,o),
(757,52,o),
(611,52,cs),
(331,52,o),
(188,237,o),
(188,601,cs),
(188,965,o),
(330,1165,o),
(614,1165,cs),
(743,1165,o),
(827,1124,o),
(908,1043,c),
(961,1055,l),
(873,1185,o),
(763,1231,o),
(619,1231,cs),
(314,1231,o),
(110,1025,o),
(110,605,cs),
(110,183,o),
(316,-20,o),
(607,-20,cs)
);
},
{
closed = 1;
nodes = (
(1571,0,l),
(1571,64,l),
(965,64,l),
(982,47,l),
(982,601,l),
(965,584,l),
(1535,584,l),
(1535,647,l),
(965,647,l),
(982,630,l),
(982,1168,l),
(965,1151,l),
(1571,1151,l),
(1571,1213,l),
(908,1213,l),
(908,0,l)
);
}
);
width = 1716;
},
{
anchors = (
{
name = bottom;
pos = (562,0);
},
{
name = center;
pos = (562,671);
},
{
name = ogonek;
pos = (1139,10);
},
{
name = top;
pos = (562,1342);
},
{
name = topleft;
pos = (-140,1342);
},
{
name = topright;
pos = (1263,1342);
}
);
layerId = "54E4F05E-05D2-4398-A473-3C5492C75DBF";
shapes = (
{
closed = 1;
nodes = (
(848,-32,o),
(1004,22,o),
(1068,76,c),
(898,280,l),
(829,264,o),
(745,255,o),
(697,255,cs),
(522,255,o),
(416,416,o),
(416,670,cs),
(416,928,o),
(526,1085,o),
(690,1085,cs),
(744,1085,o),
(832,1073,o),
(888,1065,c),
(1068,1237,l),
(1004,1314,o),
(851,1372,o),
(668,1372,cs),
(338,1372,o),
(86,1146,o),
(86,678,cs),
(86,213,o),
(335,-32,o),
(675,-32,cs)
);
},
{
closed = 1;
nodes = (
(1670,0,l),
(1670,280,l),
(1121,280,l),
(1183,208,l),
(1183,601,l),
(1121,529,l),
(1634,529,l),
(1634,807,l),
(1121,807,l),
(1183,735,l),
(1183,1137,l),
(1121,1065,l),
(1670,1065,l),
(1670,1342,l),
(873,1342,l),
(873,0,l)
);
}
);
width = 1830;
},
{
anchors = (
{
name = bottom;
pos = (513,0);
},
{
name = center;
pos = (513,628);
},
{
name = ogonek;
pos = (1029,10);
},
{
name = top;
pos = (513,1256);
},
{
name = topleft;
pos = (-113,1256);
},
{
name = topright;
pos = (1138,1256);
}
);
layerId = "26C860F9-3A1D-441D-9B2D-5C5CFD026C88";
shapes = (
{
closed = 1;
nodes = (
(795,-24,o),
(917,35,o),
(997,111,c),
(905,211,l),
(826,156,o),
(753,120,o),
(640,120,cs),
(395,120,o),
(264,297,o),
(264,624,cs),
(264,953,o),
(395,1138,o),
(639,1138,cs),
(743,1138,o),
(829,1107,o),
(901,1050,c),
(997,1116,l),
(917,1228,o),
(792,1278,o),
(635,1278,cs),
(322,1278,o),
(102,1065,o),
(102,629,cs),
(102,193,o),
(322,-24,o),
(630,-24,cs)
);
},
{
closed = 1;
nodes = (
(1604,0,l),
(1604,136,l),
(1017,136,l),
(1049,101,l),
(1049,601,l),
(1017,566,l),
(1568,566,l),
(1568,700,l),
(1017,700,l),
(1049,665,l),
(1049,1158,l),
(1017,1122,l),
(1604,1122,l),
(1604,1256,l),
(896,1256,l),
(896,0,l)
);
}
);
width = 1754;
}
);
metricLeft = O;
metricRight = E;
unicode = 338;
},
{
glyphname = P;
kernRight = P;
lastChange = "2023-04-19 12:02:13 +0000";
layers = (
{
anchors = (
{
name = bottom;
pos = (526,0);
},
{
name = top;
pos = (526,1213);
}
);
layerId = "CE2138A5-93BA-4A69-8B69-7D34CC27D2DF";
shapes = (
{
closed = 1;
nodes = (
(292,0,l),
(292,496,l),
(565,496,ls),
(825,496,o),
(952,642,o),
(952,852,cs),
(952,1063,o),
(825,1213,o),
(565,1213,cs),
(216,1213,l),
(216,0,l)
);
},
{
closed = 1;
nodes = (
(292,1151,l),
(565,1151,ls),
(768,1151,o),
(876,1038,o),
(876,852,cs),
(876,667,o),
(768,561,o),
(565,561,cs),
(292,561,l)
);
}
);
width = 1052;
},
{
anchors = (
{
name = bottom;
pos = (609,0);
},
{
name = top;
pos = (609,1342);
}
);
layerId = "54E4F05E-05D2-4398-A473-3C5492C75DBF";
shapes = (
{
closed = 1;
nodes = (
(483,0,l),
(483,459,l),
(676,459,ls),
(985,459,o),
(1180,612,o),
(1180,901,cs),
(1180,1192,o),
(985,1342,o),
(676,1342,cs),
(161,1342,l),
(161,0,l)
);
},
{
closed = 1;
nodes = (
(483,1065,l),
(676,1065,ls),
(792,1065,o),
(852,989,o),
(852,901,cs),
(852,814,o),
(792,739,o),
(676,739,cs),
(483,739,l)
);
}
);
width = 1218;
},
{
anchors = (
{
name = bottom;
pos = (554,0);
},
{
name = top;
pos = (554,1256);
}
);
layerId = "26C860F9-3A1D-441D-9B2D-5C5CFD026C88";
shapes = (
{
closed = 1;
nodes = (
(356,0,l),
(356,484,l),
(602,484,ls),
(878,484,o),
(1028,632,o),
(1028,868,cs),
(1028,1106,o),
(878,1256,o),
(602,1256,cs),
(198,1256,l),
(198,0,l)
);
},
{
closed = 1;
nodes = (
(356,1122,l),
(602,1122,ls),
(776,1122,o),
(868,1022,o),
(868,868,cs),
(868,716,o),
(776,620,o),
(602,620,cs),
(356,620,l)
);
}
);
width = 1107.33333;
}
);
unicode = 80;
},
{
glyphname = Thorn;
lastChange = "2020-10-22 18:08:06 +0000";
layers = (
{
layerId = "CE2138A5-93BA-4A69-8B69-7D34CC27D2DF";
shapes = (
{
closed = 1;
nodes = (
(292,0,l),
(292,303,l),
(275,286,l),
(565,286,ls),
(825,286,o),
(952,432,o),
(952,642,cs),
(952,853,o),
(825,1003,o),
(565,1003,cs),
(275,1003,l),
(292,986,l),
(292,1213,l),
(216,1213,l),
(216,0,l)
);
},
{
closed = 1;
nodes = (
(292,958,l),
(275,941,l),
(565,941,ls),
(768,941,o),
(876,828,o),
(876,642,cs),
(876,457,o),
(768,351,o),
(565,351,cs),
(275,351,l),
(292,334,l)
);
}
);
width = 1052;
},
{
layerId = "54E4F05E-05D2-4398-A473-3C5492C75DBF";
shapes = (
{
closed = 1;
nodes = (
(483,0,l),
(483,321,l),
(411,249,l),
(676,249,ls),
(985,249,o),
(1180,402,o),
(1180,691,cs),
(1180,982,o),
(985,1132,o),
(676,1132,cs),
(411,1132,l),
(483,1060,l),
(483,1342,l),
(161,1342,l),
(161,0,l)
);
},
{
closed = 1;
nodes = (
(483,927,l),
(411,855,l),
(676,855,ls),
(792,855,o),
(852,779,o),
(852,691,cs),
(852,604,o),
(792,529,o),
(676,529,cs),
(411,529,l),
(483,457,l)
);
}
);
width = 1218;
},
{
layerId = "26C860F9-3A1D-441D-9B2D-5C5CFD026C88";
shapes = (
{
closed = 1;
nodes = (
(356,0,l),
(356,309,l),
(320,274,l),
(602,274,ls),
(878,274,o),
(1028,422,o),
(1028,658,cs),
(1028,896,o),
(878,1046,o),
(602,1046,cs),
(320,1046,l),
(356,1011,l),
(356,1256,l),
(198,1256,l),
(198,0,l)
);
},
{
closed = 1;
nodes = (
(356,948,l),
(320,912,l),
(602,912,ls),
(776,912,o),
(868,812,o),
(868,658,cs),
(868,506,o),
(776,410,o),
(602,410,cs),
(320,410,l),
(356,375,l)
);
}
);
width = 1107.33333;
}
);
metricLeft = P;
metricRight = P;
unicode = 222;
},
{
glyphname = Q;
lastChange = "2023-04-19 09:36:57 +0000";
layers = (
{
anchors = (
{
name = bottom;
pos = (616,0);
},
{
name = top;
pos = (616,1213);
}
);
layerId = "CE2138A5-93BA-4A69-8B69-7D34CC27D2DF";
shapes = (
{
closed = 1;
nodes = (
(884,-20,o),
(1106,180,o),
(1106,601,cs),
(1106,1027,o),
(884,1231,o),
(609,1231,cs),
(332,1231,o),
(110,1025,o),
(110,601,cs),
(110,182,o),
(332,-20,o),
(609,-20,cs)
);
},
{
closed = 1;
nodes = (
(1012,-307,o),
(1064,-293,o),
(1122,-267,c),
(1122,-169,l),
(1054,-205,o),
(1002,-227,o),
(928,-227,cs),
(889,-225,o),
(844,-202,o),
(794,-137,cs),
(678,16,l),
(588,16,l),
(714,-154,ls),
(790,-257,o),
(859,-307,o),
(963,-307,cs)
);
},
{
closed = 1;
nodes = (
(348,52,o),
(188,237,o),
(188,601,cs),
(188,966,o),
(348,1165,o),
(609,1165,cs),
(870,1165,o),
(1028,966,o),
(1028,603,cs),
(1028,237,o),
(870,52,o),
(609,52,cs)
);
}
);
width = 1232;
},
{
anchors = (
{
name = bottom;
pos = (722,0);
},
{
name = top;
pos = (722,1342);
}
);
layerId = "54E4F05E-05D2-4398-A473-3C5492C75DBF";
shapes = (
{
closed = 1;
nodes = (
(1106,-32,o),
(1358,204,o),
(1358,675,cs),
(1358,1132,o),
(1106,1372,o),
(720,1372,cs),
(338,1372,o),
(86,1148,o),
(86,675,cs),
(86,213,o),
(338,-32,o),
(720,-32,cs)
);
},
{
closed = 1;
nodes = (
(1203,-387,o),
(1261,-379,o),
(1325,-353,c),
(1325,-34,l),
(1257,-58,o),
(1193,-74,o),
(1131,-74,cs),
(1073,-72,o),
(1017,-54,o),
(985,-2,cs),
(869,193,l),
(631,59,l),
(769,-160,ls),
(857,-301,o),
(994,-387,o),
(1141,-387,cs)
);
},
{
closed = 1;
nodes = (
(539,255,o),
(416,409,o),
(416,675,cs),
(416,929,o),
(539,1085,o),
(720,1085,cs),
(907,1085,o),
(1028,929,o),
(1028,677,cs),
(1028,409,o),
(907,255,o),
(720,255,cs)
);
}
);
width = 1444;
},
{
anchors = (
{
name = bottom;
pos = (651,0);
},
{
name = top;
pos = (651,1256);
}
);
layerId = "26C860F9-3A1D-441D-9B2D-5C5CFD026C88";
shapes = (
{
closed = 1;
nodes = (
(958,-24,o),
(1190,188,o),
(1190,626,cs),
(1190,1062,o),
(958,1278,o),
(646,1278,cs),
(334,1278,o),
(102,1066,o),
(102,626,cs),
(102,192,o),
(334,-24,o),
(646,-24,cs)
);
},
{
closed = 1;
nodes = (
(1076,-334,o),
(1130,-322,o),
(1190,-296,c),
(1190,-124,l),
(1122,-156,o),
(1066,-176,o),
(996,-176,cs),
(950,-174,o),
(902,-152,o),
(858,-92,cs),
(742,74,l),
(602,30,l),
(732,-156,ls),
(812,-272,o),
(904,-334,o),
(1022,-334,cs)
);
},
{
closed = 1;
nodes = (
(412,120,o),
(264,294,o),
(264,626,cs),
(264,954,o),
(412,1138,o),
(646,1138,cs),
(882,1138,o),
(1028,954,o),
(1028,628,cs),
(1028,294,o),
(882,120,o),
(646,120,cs)
);
}
);
width = 1302.66667;
}
);
unicode = 81;
},
{
glyphname = R;
lastChange = "2020-10-22 18:08:06 +0000";
layers = (
{
anchors = (
{
name = bottom;
pos = (581,0);
},
{
name = top;
pos = (581,1213);
}
);
layerId = "CE2138A5-93BA-4A69-8B69-7D34CC27D2DF";
shapes = (
{
closed = 1;
nodes = (
(292,0,l),
(292,522,l),
(613,522,ls),
(875,522,o),
(1002,664,o),
(1002,868,cs),
(1002,1071,o),
(875,1213,o),
(613,1213,cs),
(218,1213,l),
(218,0,l)
);
},
{
closed = 1;
nodes = (
(1018,0,l),
(634,531,l),
(548,531,l),
(924,0,l)
);
},
{
closed = 1;
nodes = (
(292,1151,l),
(613,1151,ls),
(816,1151,o),
(926,1044,o),
(926,870,cs),
(926,699,o),
(816,583,o),
(614,583,cs),
(292,583,l)
);
}
);
width = 1161;
},
{
anchors = (
{
name = bottom;
pos = (676,0);
},
{
name = top;
pos = (676,1342);
}
);
layerId = "54E4F05E-05D2-4398-A473-3C5492C75DBF";
shapes = (
{
closed = 1;
nodes = (
(489,0,l),
(489,498,l),
(693,498,ls),
(1029,498,o),
(1224,664,o),
(1224,917,cs),
(1224,1176,o),
(1029,1342,o),
(693,1342,cs),
(169,1342,l),
(169,0,l)
);
},
{
closed = 1;
nodes = (
(1288,0,l),
(880,648,l),
(542,648,l),
(869,0,l)
);
},
{
closed = 1;
nodes = (
(489,1065,l),
(693,1065,ls),
(828,1065,o),
(895,989,o),
(895,882,cs),
(895,779,o),
(816,706,o),
(657,706,cs),
(489,706,l)
);
}
);
width = 1352;
},
{
anchors = (
{
name = bottom;
pos = (613,0);
},
{
name = top;
pos = (613,1256);
}
);
layerId = "26C860F9-3A1D-441D-9B2D-5C5CFD026C88";
shapes = (
{
closed = 1;
nodes = (
(358,0,l),
(358,514,l),
(640,514,ls),
(926,514,o),
(1076,664,o),
(1076,884,cs),
(1076,1106,o),
(926,1256,o),
(640,1256,cs),
(202,1256,l),
(202,0,l)
);
},
{
closed = 1;
nodes = (
(1108,0,l),
(716,570,l),
(546,570,l),
(906,0,l)
);
},
{
closed = 1;
nodes = (
(358,1122,l),
(640,1122,ls),
(820,1122,o),
(916,1026,o),
(916,874,cs),
(916,726,o),
(816,624,o),
(628,624,cs),
(358,624,l)
);
}
);
width = 1224.66667;
}
);
unicode = 82;
},
{
glyphname = S;
lastChange = "2020-10-22 18:08:06 +0000";
layers = (
{
anchors = (
{
name = bottom;
pos = (571,0);
},
{
name = top;
pos = (571,1213);
}
);
layerId = "CE2138A5-93BA-4A69-8B69-7D34CC27D2DF";
shapes = (
{
closed = 1;
nodes = (
(849,-20,o),
(994,148,o),
(994,314,cs),
(994,488,o),
(876,585,o),
(708,631,cs),
(473,701,ls),
(326,747,o),
(262,807,o),
(262,919,cs),
(262,1060,o),
(372,1163,o),
(571,1163,cs),
(746,1163,o),
(850,1095,o),
(872,964,c),
(946,964,l),
(924,1119,o),
(792,1231,o),
(571,1231,cs),
(318,1231,o),
(182,1103,o),
(182,925,cs),
(182,762,o),
(288,688,o),
(504,618,c),
(692,565,ls),
(832,523,o),
(914,440,o),
(914,314,cs),
(914,183,o),
(788,50,o),
(567,50,cs),
(381,50,o),
(216,143,o),
(216,345,c),
(146,345,l),
(144,118,o),
(336,-20,o),
(569,-20,cs)
);
}
);
width = 1141;
},
{
anchors = (
{
name = bottom;
pos = (683,0);
},
{
name = top;
pos = (672,1342);
}
);
layerId = "54E4F05E-05D2-4398-A473-3C5492C75DBF";
shapes = (
{
closed = 1;
nodes = (
(1021,-32,o),
(1222,105,o),
(1222,375,cs),
(1222,543,o),
(1122,659,o),
(917,748,cs),
(608,879,ls),
(529,913,o),
(490,936,o),
(490,987,cs),
(490,1042,o),
(557,1083,o),
(657,1083,cs),
(795,1083,o),
(850,1015,o),
(866,927,c),
(1180,927,l),
(1158,1212,o),
(983,1372,o),
(657,1372,cs),
(336,1372,o),
(139,1220,o),
(139,993,cs),
(139,799,o),
(251,700,o),
(443,618,cs),
(735,491,ls),
(838,449,o),
(871,428,o),
(871,363,cs),
(871,282,o),
(776,259,o),
(672,259,cs),
(541,259,o),
(438,315,o),
(438,438,c),
(122,438,l),
(138,106,o),
(385,-32,o),
(674,-32,cs)
);
}
);
width = 1344;
},
{
anchors = (
{
name = bottom;
pos = (608,0);
},
{
name = top;
pos = (605,1256);
}
);
layerId = "26C860F9-3A1D-441D-9B2D-5C5CFD026C88";
shapes = (
{
closed = 1;
nodes = (
(906,-24,o),
(1070,134,o),
(1070,334,cs),
(1070,506,o),
(958,610,o),
(778,670,cs),
(518,760,ls),
(394,802,o),
(338,850,o),
(338,942,cs),
(338,1054,o),
(434,1136,o),
(600,1136,cs),
(762,1136,o),
(850,1068,o),
(870,952,c),
(1024,952,l),
(1002,1150,o),
(856,1278,o),
(600,1278,cs),
(324,1278,o),
(168,1142,o),
(168,948,cs),
(168,774,o),
(276,692,o),
(484,618,cs),
(706,540,ls),
(834,498,o),
(900,436,o),
(900,330,cs),
(900,216,o),
(784,120,o),
(602,120,cs),
(434,120,o),
(290,200,o),
(290,376,c),
(138,376,l),
(142,114,o),
(352,-24,o),
(604,-24,cs)
);
}
);
width = 1208.66667;
}
);
unicode = 83;
},
{
glyphname = T;
kernLeft = T;
kernRight = T;
lastChange = "2023-04-19 12:02:29 +0000";
layers = (
{
anchors = (
{
name = bottom;
pos = (457,-31);
},
{
name = center;
pos = (469,607);
},
{
name = top;
pos = (469,1213);
}
);
layerId = "CE2138A5-93BA-4A69-8B69-7D34CC27D2DF";
shapes = (
{
closed = 1;
nodes = (
(447,1151,l),
(430,1168,l),
(430,0,l),
(504,0,l),
(504,1168,l),
(487,1151,l),
(926,1151,l),
(926,1213,l),
(12,1213,l),
(12,1151,l)
);
}
);
width = 937;
},
{
anchors = (
{
name = bottom;
pos = (484,30);
},
{
name = center;
pos = (564,671);
},
{
name = top;
pos = (564,1342);
}
);
layerId = "54E4F05E-05D2-4398-A473-3C5492C75DBF";
shapes = (
{
closed = 1;
nodes = (
(478,1065,l),
(406,1137,l),
(406,0,l),
(726,0,l),
(726,1137,l),
(654,1065,l),
(1117,1065,l),
(1117,1342,l),
(12,1342,l),
(12,1065,l)
);
}
);
width = 1128;
},
{
anchors = (
{
name = bottom;
pos = (466,-11);
},
{
name = center;
pos = (501,628);
},
{
name = top;
pos = (501,1256);
}
);
layerId = "26C860F9-3A1D-441D-9B2D-5C5CFD026C88";
shapes = (
{
closed = 1;
nodes = (
(457,1122,l),
(422,1158,l),
(422,0,l),
(578,0,l),
(578,1158,l),
(543,1122,l),
(990,1122,l),
(990,1256,l),
(12,1256,l),
(12,1122,l)
);
}
);
width = 1000.66667;
}
);
unicode = 84;
},
{
glyphname = Tbar;
kernLeft = T;
kernRight = T;
lastChange = "2023-04-19 12:02:29 +0000";
layers = (
{
layerId = "CE2138A5-93BA-4A69-8B69-7D34CC27D2DF";
shapes = (
{
ref = T;
},
{
closed = 1;
nodes = (
(780,577,l),
(780,636,l),
(159,636,l),
(159,577,l)
);
}
);
width = 937;
},
{
layerId = "54E4F05E-05D2-4398-A473-3C5492C75DBF";
shapes = (
{
ref = T;
},
{
closed = 1;
nodes = (
(953,485,l),
(953,765,l),
(177,765,l),
(177,485,l)
);
}
);
width = 1128;
},
{
layerId = "26C860F9-3A1D-441D-9B2D-5C5CFD026C88";
shapes = (
{
alignment = -1;
ref = T;
},
{
closed = 1;
nodes = (
(834,548,l),
(834,675,l),
(163,675,l),
(163,548,l)
);
}
);
width = 1000.66667;
}
);
unicode = 358;
},
{
glyphname = U;
lastChange = "2020-10-22 18:08:06 +0000";
layers = (
{
anchors = (
{
name = bottom;
pos = (615,0);
},
{
name = ogonek;
pos = (617,10);
},
{
name = top;
pos = (615,1213);
},
{
name = topright;
pos = (1210,1213);
}
);
layerId = "CE2138A5-93BA-4A69-8B69-7D34CC27D2DF";
shapes = (
{
closed = 1;
nodes = (
(182,417,ls),
(182,113,o),
(362,-20,o),
(611,-20,cs),
(860,-20,o),
(1036,113,o),
(1036,417,cs),
(1036,1213,l),
(962,1213,l),
(962,417,ls),
(962,159,o),
(822,50,o),
(611,50,cs),
(396,50,o),
(256,159,o),
(256,417,cs),
(256,1213,l),
(182,1213,l)
);
}
);
width = 1230;
},
{
anchors = (
{
name = bottom;
pos = (729,0);
},
{
name = ogonek;
pos = (892,10);
},
{
name = top;
pos = (729,1342);
},
{
name = topright;
pos = (1438,1342);
}
);
layerId = "54E4F05E-05D2-4398-A473-3C5492C75DBF";
shapes = (
{
closed = 1;
nodes = (
(158,528,ls),
(158,187,o),
(362,-32,o),
(734,-32,cs),
(1106,-32,o),
(1312,187,o),
(1312,528,cs),
(1312,1342,l),
(993,1342,l),
(993,528,ls),
(993,337,o),
(883,259,o),
(734,259,cs),
(587,259,o),
(478,337,o),
(478,528,cs),
(478,1342,l),
(158,1342,l)
);
}
);
width = 1458;
},
{
anchors = (
{
name = bottom;
pos = (653,0);
},
{
name = ogonek;
pos = (709,10);
},
{
name = top;
pos = (653,1256);
},
{
name = topright;
pos = (1286,1256);
}
);
layerId = "26C860F9-3A1D-441D-9B2D-5C5CFD026C88";
shapes = (
{
closed = 1;
nodes = (
(174,454,ls),
(174,138,o),
(362,-24,o),
(652,-24,cs),
(942,-24,o),
(1128,138,o),
(1128,454,cs),
(1128,1256,l),
(972,1256,l),
(972,454,ls),
(972,218,o),
(842,120,o),
(652,120,cs),
(460,120,o),
(330,218,o),
(330,454,cs),
(330,1256,l),
(174,1256,l)
);
}
);
width = 1306;
}
);
unicode = 85;
},
{
glyphname = V;
lastChange = "2020-10-22 18:08:06 +0000";
layers = (
{
anchors = (
{
name = bottom;
pos = (522,0);
},
{
name = top;
pos = (522,1213);
}
);
layerId = "CE2138A5-93BA-4A69-8B69-7D34CC27D2DF";
shapes = (
{
closed = 1;
nodes = (
(529,72,l),
(116,1213,l),
(36,1213,l),
(484,0,l),
(558,0,l),
(1008,1213,l),
(926,1213,l),
(513,72,l)
);
}
);
width = 1043;
},
{
anchors = (
{
name = bottom;
pos = (645,0);
},
{
name = top;
pos = (645,1342);
}
);
layerId = "54E4F05E-05D2-4398-A473-3C5492C75DBF";
shapes = (
{
closed = 1;
nodes = (
(658,355,l),
(374,1342,l),
(36,1342,l),
(472,0,l),
(810,0,l),
(1254,1342,l),
(920,1342,l),
(630,355,l)
);
}
);
width = 1289;
},
{
anchors = (
{
name = bottom;
pos = (563,0);
},
{
name = top;
pos = (563,1256);
}
);
layerId = "26C860F9-3A1D-441D-9B2D-5C5CFD026C88";
shapes = (
{
closed = 1;
nodes = (
(572,166,l),
(202,1256,l),
(36,1256,l),
(480,0,l),
(642,0,l),
(1090,1256,l),
(924,1256,l),
(552,166,l)
);
}
);
width = 1125;
}
);
unicode = 86;
},
{
glyphname = W;
kernLeft = W;
kernRight = W;
lastChange = "2023-04-19 12:01:03 +0000";
layers = (
{
anchors = (
{
name = bottom;
pos = (840,0);
},
{
name = top;
pos = (830,1237);
}
);
layerId = "CE2138A5-93BA-4A69-8B69-7D34CC27D2DF";
shapes = (
{
closed = 1;
nodes = (
(408,0,l),
(485,0,l),
(833,940,l),
(794,940,l),
(1121,0,l),
(1199,0,l),
(1641,1213,l),
(1561,1213,l),
(1142,66,l),
(1176,66,l),
(838,1038,l),
(787,1038,l),
(429,66,l),
(460,66,l),
(122,1213,l),
(36,1213,l)
);
}
);
width = 1680;
},
{
anchors = (
{
name = bottom;
pos = (1002,0);
},
{
name = top;
pos = (1002,1342);
}
);
layerId = "54E4F05E-05D2-4398-A473-3C5492C75DBF";
shapes = (
{
closed = 1;
nodes = (
(463,0,l),
(799,0,l),
(1005,676,l),
(991,676,l),
(1207,0,l),
(1544,0,l),
(1992,1342,l),
(1629,1342,l),
(1345,306,l),
(1410,306,l),
(1096,1302,l),
(880,1302,l),
(595,282,l),
(669,282,l),
(368,1342,l),
(12,1342,l)
);
}
);
width = 2003;
},
{
anchors = (
{
name = bottom;
pos = (894,0);
},
{
name = top;
pos = (887,1272);
}
);
layerId = "26C860F9-3A1D-441D-9B2D-5C5CFD026C88";
shapes = (
{
closed = 1;
nodes = (
(426,0,l),
(590,0,l),
(890,852,l),
(860,852,l),
(1150,0,l),
(1314,0,l),
(1758,1256,l),
(1584,1256,l),
(1210,146,l),
(1254,146,l),
(924,1126,l),
(818,1126,l),
(484,138,l),
(530,138,l),
(204,1256,l),
(28,1256,l)
);
}
);
width = 1787.66667;
}
);
unicode = 87;
},
{
glyphname = X;
lastChange = "2020-10-22 18:08:06 +0000";
layers = (
{
anchors = (
{
name = bottom;
pos = (599,0);
},
{
name = top;
pos = (599,1213);
}
);
layerId = "CE2138A5-93BA-4A69-8B69-7D34CC27D2DF";
shapes = (
{
closed = 1;
nodes = (
(216,0,l),
(591,543,l),
(978,0,l),
(1063,0,l),
(642,601,l),
(1076,1213,l),
(984,1213,l),
(603,656,l),
(206,1213,l),
(123,1213,l),
(554,601,l),
(129,0,l)
);
}
);
width = 1197;
},
{
anchors = (
{
name = bottom;
pos = (728,0);
},
{
name = top;
pos = (728,1342);
}
);
layerId = "54E4F05E-05D2-4398-A473-3C5492C75DBF";
shapes = (
{
closed = 1;
nodes = (
(425,0,l),
(696,420,l),
(1015,0,l),
(1420,0,l),
(906,675,l),
(1346,1342,l),
(960,1342,l),
(726,920,l),
(434,1342,l),
(37,1342,l),
(511,669,l),
(37,0,l)
);
}
);
width = 1455;
},
{
anchors = (
{
name = bottom;
pos = (642,0);
},
{
name = top;
pos = (642,1256);
}
);
layerId = "26C860F9-3A1D-441D-9B2D-5C5CFD026C88";
shapes = (
{
closed = 1;
nodes = (
(286,0,l),
(626,502,l),
(990,0,l),
(1182,0,l),
(730,626,l),
(1166,1256,l),
(976,1256,l),
(644,744,l),
(282,1256,l),
(94,1256,l),
(540,624,l),
(98,0,l)
);
}
);
width = 1283;
}
);
unicode = 88;
},
{
glyphname = Y;
kernLeft = Y;
kernRight = Y;
lastChange = "2023-04-19 12:00:24 +0000";
layers = (
{
anchors = (
{
name = bottom;
pos = (510,0);
},
{
name = top;
pos = (510,1213);
},
{
name = topleft;
pos = (20,1213);
}
);
layerId = "CE2138A5-93BA-4A69-8B69-7D34CC27D2DF";
shapes = (
{
closed = 1;
nodes = (
(472,495,l),
(472,0,l),
(550,0,l),
(550,495,l),
(996,1213,l),
(904,1213,l),
(493,550,l),
(527,550,l),
(116,1213,l),
(22,1213,l)
);
}
);
width = 1019;
},
{
anchors = (
{
name = bottom;
pos = (627,0);
},
{
name = top;
pos = (627,1342);
},
{
name = topleft;
pos = (20,1342);
}
);
layerId = "54E4F05E-05D2-4398-A473-3C5492C75DBF";
shapes = (
{
closed = 1;
nodes = (
(454,557,l),
(454,0,l),
(772,0,l),
(772,557,l),
(1242,1342,l),
(867,1342,l),
(592,839,l),
(644,839,l),
(386,1342,l),
(10,1342,l)
);
}
);
width = 1253;
},
{
anchors = (
{
name = bottom;
pos = (549,0);
},
{
name = top;
pos = (549,1256);
},
{
name = topleft;
pos = (20,1256);
}
);
layerId = "26C860F9-3A1D-441D-9B2D-5C5CFD026C88";
shapes = (
{
closed = 1;
nodes = (
(466,516,l),
(466,0,l),
(624,0,l),
(624,516,l),
(1078,1256,l),
(892,1256,l),
(526,646,l),
(566,646,l),
(206,1256,l),
(18,1256,l)
);
}
);
width = 1097;
}
);
unicode = 89;
},
{
glyphname = Z;
lastChange = "2020-10-22 18:08:06 +0000";
layers = (
{
anchors = (
{
name = bottom;
pos = (554,0);
},
{
name = center;
pos = (554,607);
},
{
name = top;
pos = (594,1213);
}
);
layerId = "CE2138A5-93BA-4A69-8B69-7D34CC27D2DF";
shapes = (
{
closed = 1;
nodes = (
(1007,0,l),
(1007,66,l),
(203,76,l),
(222,54,l),
(1007,1137,l),
(1007,1213,l),
(146,1213,l),
(146,1147,l),
(932,1137,l),
(932,1166,l),
(146,74,l),
(146,0,l)
);
}
);
width = 1107;
},
{
anchors = (
{
name = bottom;
pos = (668,0);
},
{
name = center;
pos = (668,671);
},
{
name = top;
pos = (688,1342);
}
);
layerId = "54E4F05E-05D2-4398-A473-3C5492C75DBF";
shapes = (
{
closed = 1;
nodes = (
(1191,0,l),
(1191,294,l),
(523,292,l),
(523,257,l),
(1191,1075,l),
(1191,1342,l),
(146,1342,l),
(146,1048,l),
(883,1051,l),
(883,1166,l),
(146,271,l),
(146,0,l)
);
}
);
width = 1335;
},
{
anchors = (
{
name = bottom;
pos = (592,0);
},
{
name = center;
pos = (592,628);
},
{
name = top;
pos = (625,1256);
}
);
layerId = "26C860F9-3A1D-441D-9B2D-5C5CFD026C88";
shapes = (
{
closed = 1;
nodes = (
(1068,0,l),
(1068,142,l),
(310,148,l),
(322,122,l),
(1068,1116,l),
(1068,1256,l),
(146,1256,l),
(146,1114,l),
(916,1108,l),
(916,1166,l),
(146,140,l),
(146,0,l)
);
}
);
width = 1183;
}
);
unicode = 90;
},
{
glyphname = a;
kernLeft = a;
kernRight = a;
lastChange = "2023-04-19 12:03:40 +0000";
layers = (
{
anchors = (
{
name = bottom;
pos = (515,0);
},
{
name = ogonek;
pos = (809,10);
},
{
name = top;
pos = (515,940);
}
);
layerId = "CE2138A5-93BA-4A69-8B69-7D34CC27D2DF";
shapes = (
{
closed = 1;
nodes = (
(848,0,l),
(848,614,ls),
(848,868,o),
(702,962,o),
(515,962,cs),
(334,962,o),
(168,896,o),
(168,700,c),
(256,700,l),
(256,847,o),
(381,899,o),
(515,899,cs),
(675,899,o),
(774,823,o),
(774,614,cs),
(774,183,l),
(784,0,l)
);
},
{
closed = 1;
nodes = (
(651,-20,o),
(794,138,o),
(794,311,c),
(774,311,l),
(774,187,o),
(615,43,o),
(449,43,cs),
(280,43,o),
(208,135,o),
(208,252,cs),
(208,406,o),
(329,465,o),
(473,465,cs),
(565,465,o),
(694,438,o),
(780,398,c),
(780,455,l),
(682,497,o),
(567,524,o),
(474,524,cs),
(296,524,o),
(130,456,o),
(130,252,cs),
(130,122,o),
(228,-20,o),
(450,-20,cs)
);
}
);
width = 1030;
},
{
anchors = (
{
name = bottom;
pos = (621,0);
},
{
name = ogonek;
pos = (1013,10);
},
{
name = top;
pos = (621,989);
}
);
layerId = "54E4F05E-05D2-4398-A473-3C5492C75DBF";
shapes = (
{
closed = 1;
nodes = (
(1094,0,l),
(1094,620,ls),
(1094,886,o),
(918,1017,o),
(632,1017,cs),
(304,1017,o),
(138,908,o),
(138,676,c),
(484,676,l),
(484,736,o),
(528,788,o),
(632,788,cs),
(749,788,o),
(774,731,o),
(774,632,cs),
(774,263,l),
(815,0,l)
);
},
{
closed = 1;
nodes = (
(744,-32,o),
(849,156,o),
(849,385,c),
(774,385,l),
(774,304,o),
(732,209,o),
(596,209,cs),
(489,209,o),
(442,252,o),
(442,301,cs),
(442,369,o),
(501,397,o),
(596,397,cs),
(664,397,o),
(737,389,o),
(804,374,c),
(804,554,l),
(713,571,o),
(635,585,o),
(523,585,cs),
(247,585,o),
(100,474,o),
(100,301,cs),
(100,116,o),
(240,-32,o),
(505,-32,cs)
);
}
);
width = 1242;
},
{
anchors = (
{
name = bottom;
pos = (550,0);
},
{
name = ogonek;
pos = (877,10);
},
{
name = top;
pos = (550,956);
}
);
layerId = "26C860F9-3A1D-441D-9B2D-5C5CFD026C88";
shapes = (
{
closed = 1;
nodes = (
(930,0,l),
(930,616,ls),
(930,874,o),
(774,980,o),
(554,980,cs),
(324,980,o),
(158,900,o),
(158,692,c),
(332,692,l),
(332,810,o),
(430,862,o),
(554,862,cs),
(700,862,o),
(774,792,o),
(774,620,cs),
(774,210,l),
(794,0,l)
);
},
{
closed = 1;
nodes = (
(682,-24,o),
(812,144,o),
(812,336,c),
(774,336,l),
(774,226,o),
(654,98,o),
(498,98,cs),
(350,98,o),
(286,174,o),
(286,268,cs),
(286,394,o),
(386,442,o),
(514,442,cs),
(598,442,o),
(708,422,o),
(788,390,c),
(788,488,l),
(692,522,o),
(590,544,o),
(490,544,cs),
(280,544,o),
(120,462,o),
(120,268,cs),
(120,120,o),
(232,-24,o),
(468,-24,cs)
);
}
);
width = 1100.66667;
}
);
unicode = 97;
},
{
glyphname = ae;
kernLeft = a;
lastChange = "2023-04-19 12:01:11 +0000";
layers = (
{
layerId = "CE2138A5-93BA-4A69-8B69-7D34CC27D2DF";
shapes = (
{
closed = 1;
nodes = (
(848,340,l),
(848,614,ls),
(848,868,o),
(706,962,o),
(506,962,cs),
(338,962,o),
(168,896,o),
(168,700,c),
(256,700,l),
(256,847,o),
(381,899,o),
(514,899,cs),
(675,899,o),
(774,823,o),
(774,614,cs),
(774,301,l),
(784,301,l)
);
},
{
closed = 1;
nodes = (
(656,-20,o),
(824,138,o),
(824,311,c),
(774,311,l),
(774,187,o),
(623,43,o),
(436,43,cs),
(286,43,o),
(208,135,o),
(208,255,cs),
(208,404,o),
(329,465,o),
(471,465,cs),
(566,465,o),
(694,438,o),
(780,398,c),
(780,455,l),
(686,495,o),
(575,524,o),
(468,524,cs),
(296,524,o),
(130,449,o),
(130,261,cs),
(130,102,o),
(249,-20,o),
(439,-20,cs)
);
},
{
closed = 1;
nodes = (
(1380,-20,o),
(1523,88,o),
(1551,274,c),
(1467,274,l),
(1449,119,o),
(1339,45,o),
(1193,45,cs),
(963,45,o),
(856,229,o),
(856,466,cs),
(856,500,ls),
(856,700,o),
(966,899,o),
(1189,899,cs),
(1420,899,o),
(1478,684,o),
(1470,498,c),
(1516,528,l),
(843,528,l),
(843,464,l),
(1553,464,l),
(1553,720,o),
(1461,962,o),
(1186,962,cs),
(940,962,o),
(780,767,o),
(780,475,cs),
(780,181,o),
(942,-20,o),
(1195,-20,cs)
);
}
);
width = 1663;
},
{
guides = (
{
angle = 90;
pos = (894,865);
}
);
layerId = "54E4F05E-05D2-4398-A473-3C5492C75DBF";
shapes = (
{
closed = 1;
nodes = (
(984,500,l),
(984,568,ls),
(984,832,o),
(859,1017,o),
(551,1017,cs),
(315,1017,o),
(138,908,o),
(138,676,c),
(484,676,l),
(484,736,o),
(522,788,o),
(615,788,cs),
(719,788,o),
(754,724,o),
(754,632,cs),
(754,303,l),
(795,303,l)
);
},
{
closed = 1;
nodes = (
(821,-32,o),
(959,191,o),
(959,385,c),
(754,385,l),
(754,295,o),
(701,209,o),
(573,209,cs),
(483,209,o),
(442,251,o),
(442,305,cs),
(442,368,o),
(497,397,o),
(582,397,cs),
(627,397,o),
(717,389,o),
(784,374,c),
(784,554,l),
(693,571,o),
(600,585,o),
(505,585,cs),
(244,585,o),
(100,478,o),
(100,296,cs),
(100,117,o),
(239,-32,o),
(501,-32,cs)
);
},
{
closed = 1;
nodes = (
(1451,-32,o),
(1636,110,o),
(1664,298,c),
(1346,298,l),
(1328,246,o),
(1281,223,o),
(1223,223,cs),
(1115,223,o),
(1062,303,o),
(1062,429,cs),
(1062,555,ls),
(1062,688,o),
(1127,764,o),
(1229,764,cs),
(1351,764,o),
(1382,653,o),
(1374,559,c),
(1420,589,l),
(999,589,l),
(999,427,l),
(1654,427,l),
(1723,723,o),
(1546,1017,o),
(1236,1017,cs),
(966,1017,o),
(756,793,o),
(756,497,cs),
(756,200,o),
(967,-32,o),
(1239,-32,cs)
);
}
);
width = 1755;
},
{
layerId = "26C860F9-3A1D-441D-9B2D-5C5CFD026C88";
shapes = (
{
closed = 1;
nodes = (
(893,393,l),
(893,599,ls),
(893,856,o),
(757,980,o),
(521,980,cs),
(330,980,o),
(158,900,o),
(158,692,c),
(332,692,l),
(332,810,o),
(428,862,o),
(548,862,cs),
(690,862,o),
(767,790,o),
(767,620,cs),
(767,302,l),
(788,302,l)
);
},
{
closed = 1;
nodes = (
(711,-24,o),
(869,156,o),
(869,336,c),
(767,336,l),
(767,223,o),
(649,98,o),
(482,98,cs),
(352,98,o),
(286,174,o),
(286,272,cs),
(286,392,o),
(385,442,o),
(508,442,cs),
(586,442,o),
(702,422,o),
(781,390,c),
(781,488,l),
(688,520,o),
(583,544,o),
(480,544,cs),
(279,544,o),
(120,459,o),
(120,273,cs),
(120,107,o),
(246,-24,o),
(460,-24,cs)
);
},
{
closed = 1;
nodes = (
(1404,-24,o),
(1561,95,o),
(1589,282,c),
(1427,282,l),
(1409,161,o),
(1320,104,o),
(1203,104,cs),
(1014,104,o),
(925,254,o),
(925,454,cs),
(925,518,ls),
(925,696,o),
(1020,854,o),
(1202,854,cs),
(1397,854,o),
(1446,674,o),
(1438,518,c),
(1484,548,l),
(895,548,l),
(895,452,l),
(1587,452,l),
(1610,721,o),
(1489,980,o),
(1203,980,cs),
(949,980,o),
(772,776,o),
(772,482,cs),
(772,187,o),
(950,-24,o),
(1210,-24,cs)
);
}
);
width = 1693.66667;
}
);
metricLeft = a;
metricRight = e;
unicode = 230;
},
{
glyphname = b;
kernLeft = h;
lastChange = "2023-04-19 12:05:49 +0000";
layers = (
{
layerId = "CE2138A5-93BA-4A69-8B69-7D34CC27D2DF";
shapes = (
{
closed = 1;
nodes = (
(815,-20,o),
(1005,170,o),
(1005,474,cs),
(1005,778,o),
(815,962,o),
(599,962,cs),
(395,962,o),
(245,804,o),
(245,554,c),
(292,554,l),
(292,783,o),
(443,899,o),
(597,899,cs),
(772,899,o),
(924,745,o),
(924,474,cs),
(924,201,o),
(770,44,o),
(599,44,cs),
(443,44,o),
(292,158,o),
(292,385,c),
(245,385,l),
(245,136,o),
(395,-20,o),
(597,-20,cs)
);
},
{
closed = 1;
nodes = (
(283,0,l),
(292,208,l),
(292,1356,l),
(218,1356,l),
(218,0,l)
);
}
);
width = 1141;
},
{
layerId = "54E4F05E-05D2-4398-A473-3C5492C75DBF";
shapes = (
{
closed = 1;
nodes = (
(987,-32,o),
(1189,182,o),
(1189,498,cs),
(1189,809,o),
(999,1017,o),
(752,1017,cs),
(530,1017,o),
(405,859,o),
(405,542,c),
(489,542,l),
(489,654,o),
(572,727,o),
(671,727,cs),
(796,727,o),
(869,628,o),
(869,498,cs),
(869,361,o),
(794,260,o),
(673,260,cs),
(584,260,o),
(489,349,o),
(489,453,c),
(405,453,l),
(405,118,o),
(555,-32,o),
(726,-32,cs)
);
},
{
closed = 1;
nodes = (
(369,0,l),
(489,257,l),
(489,1380,l),
(169,1380,l),
(169,0,l)
);
}
);
width = 1273;
},
{
layerId = "26C860F9-3A1D-441D-9B2D-5C5CFD026C88";
shapes = (
{
closed = 1;
nodes = (
(872,-24,o),
(1066,174,o),
(1066,482,cs),
(1066,788,o),
(876,980,o),
(650,980,cs),
(440,980,o),
(298,822,o),
(298,550,c),
(358,550,l),
(358,740,o),
(486,842,o),
(622,842,cs),
(780,842,o),
(906,706,o),
(906,482,cs),
(906,254,o),
(778,116,o),
(624,116,cs),
(490,116,o),
(358,222,o),
(358,408,c),
(298,408,l),
(298,130,o),
(448,-24,o),
(640,-24,cs)
);
},
{
closed = 1;
nodes = (
(312,0,l),
(358,224,l),
(358,1364,l),
(202,1364,l),
(202,0,l)
);
}
);
width = 1185;
}
);
unicode = 98;
},
{
glyphname = c;
kernLeft = c;
kernRight = c;
lastChange = "2023-04-19 12:03:29 +0000";
layers = (
{
anchors = (
{
name = bottom;
pos = (520,0);
},
{
name = top;
pos = (520,940);
}
);
layerId = "CE2138A5-93BA-4A69-8B69-7D34CC27D2DF";
shapes = (
{
closed = 1;
nodes = (
(725,-20,o),
(881,104,o),
(881,297,c),
(801,297,l),
(801,135,o),
(696,44,o),
(520,44,cs),
(325,44,o),
(190,229,o),
(190,474,cs),
(190,745,o),
(349,899,o),
(520,899,cs),
(652,899,o),
(755,823,o),
(801,687,c),
(881,709,l),
(821,856,o),
(701,962,o),
(522,962,cs),
(306,962,o),
(110,775,o),
(110,474,cs),
(110,170,o),
(306,-20,o),
(522,-20,cs)
);
}
);
width = 1004;
},
{
anchors = (
{
name = bottom;
pos = (569,3);
},
{
name = top;
pos = (571,989);
}
);
layerId = "54E4F05E-05D2-4398-A473-3C5492C75DBF";
shapes = (
{
closed = 1;
nodes = (
(866,-32,o),
(1004,159,o),
(1004,371,c),
(684,371,l),
(684,307,o),
(659,260,o),
(569,260,cs),
(485,260,o),
(405,315,o),
(405,492,cs),
(405,671,o),
(484,727,o),
(569,727,cs),
(640,727,o),
(675,670,o),
(684,613,c),
(1004,610,l),
(1005,795,o),
(861,1017,o),
(571,1017,cs),
(312,1017,o),
(86,837,o),
(86,492,cs),
(86,176,o),
(312,-32,o),
(571,-32,cs)
);
}
);
width = 1087;
},
{
anchors = (
{
name = bottom;
pos = (536,1);
},
{
name = top;
pos = (537,956);
}
);
layerId = "26C860F9-3A1D-441D-9B2D-5C5CFD026C88";
shapes = (
{
closed = 1;
nodes = (
(772,-24,o),
(922,122,o),
(922,322,c),
(762,322,l),
(762,192,o),
(684,116,o),
(536,116,cs),
(378,116,o),
(262,258,o),
(262,480,cs),
(262,720,o),
(394,842,o),
(536,842,cs),
(648,842,o),
(728,772,o),
(762,662,c),
(922,676,l),
(882,836,o),
(754,980,o),
(538,980,cs),
(308,980,o),
(102,796,o),
(102,480,cs),
(102,172,o),
(308,-24,o),
(538,-24,cs)
);
}
);
width = 1031.66667;
}
);
unicode = 99;
},
{
glyphname = d;
kernLeft = d;
lastChange = "2023-04-19 12:01:43 +0000";
layers = (
{
anchors = (
{
name = bottom;
pos = (571,0);
},
{
name = center;
pos = (571,470);
},
{
name = top;
pos = (571,1395);
},
{
name = topright;
pos = (1121,1350);
}
);
layerId = "CE2138A5-93BA-4A69-8B69-7D34CC27D2DF";
shapes = (
{
closed = 1;
nodes = (
(746,-20,o),
(894,136,o),
(894,385,c),
(849,385,l),
(849,158,o),
(692,44,o),
(544,44,cs),
(369,44,o),
(214,201,o),
(214,474,cs),
(214,745,o),
(371,899,o),
(542,899,cs),
(700,899,o),
(849,783,o),
(849,554,c),
(894,554,l),
(894,804,o),
(744,962,o),
(540,962,cs),
(324,962,o),
(134,778,o),
(134,474,cs),
(134,170,o),
(324,-20,o),
(544,-20,cs)
);
},
{
closed = 1;
nodes = (
(921,0,l),
(921,1356,l),
(849,1356,l),
(849,208,l),
(856,0,l)
);
}
);
width = 1141;
},
{
anchors = (
{
name = bottom;
pos = (637,0);
},
{
name = center;
pos = (637,495);
},
{
name = top;
pos = (637,1342);
},
{
name = topright;
pos = (1326,1411);
}
);
layerId = "54E4F05E-05D2-4398-A473-3C5492C75DBF";
shapes = (
{
closed = 1;
nodes = (
(716,-32,o),
(870,118,o),
(870,453,c),
(781,453,l),
(781,349,o),
(692,260,o),
(599,260,cs),
(480,260,o),
(405,361,o),
(405,498,cs),
(405,628,o),
(476,727,o),
(603,727,cs),
(700,727,o),
(781,654,o),
(781,542,c),
(870,542,l),
(870,859,o),
(744,1017,o),
(522,1017,cs),
(275,1017,o),
(85,809,o),
(85,498,cs),
(85,182,o),
(287,-32,o),
(544,-32,cs)
);
},
{
closed = 1;
nodes = (
(1105,0,l),
(1105,1380,l),
(781,1380,l),
(781,257,l),
(844,0,l)
);
}
);
width = 1273;
},
{
anchors = (
{
name = bottom;
pos = (593,0);
},
{
name = center;
pos = (593,478);
},
{
name = top;
pos = (593,1377);
},
{
name = topright;
pos = (1168,1378);
}
);
layerId = "26C860F9-3A1D-441D-9B2D-5C5CFD026C88";
shapes = (
{
closed = 1;
nodes = (
(736,-24,o),
(886,130,o),
(886,408,c),
(826,408,l),
(826,222,o),
(692,116,o),
(562,116,cs),
(406,116,o),
(278,254,o),
(278,482,cs),
(278,706,o),
(406,842,o),
(562,842,cs),
(700,842,o),
(826,740,o),
(826,550,c),
(886,550,l),
(886,822,o),
(744,980,o),
(534,980,cs),
(308,980,o),
(118,788,o),
(118,482,cs),
(118,174,o),
(312,-24,o),
(544,-24,cs)
);
},
{
closed = 1;
nodes = (
(982,0,l),
(982,1364,l),
(826,1364,l),
(826,224,l),
(852,0,l)
);
}
);
width = 1185;
}
);
unicode = 100;
},
{
glyphname = dcaron;
kernLeft = d;
kernRight = dcaron;
lastChange = "2023-04-19 13:31:02 +0000";
layers = (
{
background = {
anchors = (
{
name = bottom;
pos = (692,0);
},
{
name = center;
pos = (692,470);
},
{
name = top;
pos = (692,1395);
},
{
name = topright;
pos = (1242,1353);
}
);
shapes = (
{
closed = 1;
nodes = (
(1269,1096,o),
(1308,1178,o),
(1308,1252,cs),
(1308,1313,o),
(1262,1361,o),
(1210,1361,cs),
(1167,1361,o),
(1139,1326,o),
(1139,1290,cs),
(1139,1245,o),
(1176,1217,o),
(1224,1219,c),
(1213,1148,o),
(1169,1111,o),
(1095,1075,c),
(1166,1042,l)
);
},
{
closed = 1;
nodes = (
(867,-20,o),
(1015,136,o),
(1015,385,c),
(970,385,l),
(970,158,o),
(813,44,o),
(665,44,cs),
(490,44,o),
(335,201,o),
(335,474,cs),
(335,745,o),
(492,899,o),
(663,899,cs),
(821,899,o),
(970,783,o),
(970,554,c),
(1015,554,l),
(1015,804,o),
(865,962,o),
(661,962,cs),
(445,962,o),
(255,778,o),
(255,474,cs),
(255,170,o),
(445,-20,o),
(665,-20,cs)
);
},
{
closed = 1;
nodes = (
(1042,0,l),
(1042,1356,l),
(970,1356,l),
(970,208,l),
(977,0,l)
);
}
);
};
layerId = "CE2138A5-93BA-4A69-8B69-7D34CC27D2DF";
shapes = (
{
ref = d;
},
{
pos = (791,-1);
ref = caroncomb.alt;
}
);
width = 1141;
},
{
background = {
anchors = (
{
name = bottom;
pos = (878,0);
},
{
name = center;
pos = (878,495);
},
{
name = top;
pos = (878,1342);
},
{
name = topright;
pos = (1494,989);
}
);
shapes = (
{
closed = 1;
nodes = (
(1641,1068,o),
(1707,1162,o),
(1707,1257,cs),
(1707,1340,o),
(1655,1411,o),
(1566,1411,cs),
(1495,1411,o),
(1443,1366,o),
(1443,1306,cs),
(1443,1251,o),
(1485,1216,o),
(1538,1203,c),
(1522,1157,o),
(1468,1118,o),
(1410,1089,c),
(1544,1020,l)
);
},
{
closed = 1;
nodes = (
(957,-32,o),
(1111,118,o),
(1111,453,c),
(1022,453,l),
(1022,349,o),
(933,260,o),
(840,260,cs),
(721,260,o),
(646,361,o),
(646,498,cs),
(646,628,o),
(717,727,o),
(844,727,cs),
(941,727,o),
(1022,654,o),
(1022,542,c),
(1111,542,l),
(1111,859,o),
(985,1017,o),
(763,1017,cs),
(516,1017,o),
(326,809,o),
(326,498,cs),
(326,182,o),
(528,-32,o),
(785,-32,cs)
);
},
{
closed = 1;
nodes = (
(1346,0,l),
(1346,1380,l),
(1022,1380,l),
(1022,257,l),
(1085,0,l)
);
}
);
};
layerId = "54E4F05E-05D2-4398-A473-3C5492C75DBF";
shapes = (
{
ref = d;
},
{
pos = (1016,0);
ref = caroncomb.alt;
}
);
width = 1273;
},
{
background = {
anchors = (
{
name = bottom;
pos = (752,0);
},
{
name = center;
pos = (752,478);
},
{
name = top;
pos = (752,1377);
},
{
name = topright;
pos = (1324,1232);
}
);
shapes = (
{
closed = 1;
nodes = (
(1391,1087,o),
(1439,1173,o),
(1439,1254,cs),
(1439,1322,o),
(1391,1378,o),
(1327,1378,cs),
(1274,1378,o),
(1238,1339,o),
(1238,1295,cs),
(1238,1247,o),
(1277,1217,o),
(1327,1214,c),
(1314,1151,o),
(1267,1113,o),
(1198,1080,c),
(1290,1035,l)
);
},
{
closed = 1;
nodes = (
(895,-24,o),
(1045,130,o),
(1045,408,c),
(985,408,l),
(985,222,o),
(851,116,o),
(721,116,cs),
(565,116,o),
(437,254,o),
(437,482,cs),
(437,706,o),
(565,842,o),
(721,842,cs),
(859,842,o),
(985,740,o),
(985,550,c),
(1045,550,l),
(1045,822,o),
(903,980,o),
(693,980,cs),
(467,980,o),
(277,788,o),
(277,482,cs),
(277,174,o),
(471,-24,o),
(703,-24,cs)
);
},
{
closed = 1;
nodes = (
(1141,0,l),
(1141,1364,l),
(985,1364,l),
(985,224,l),
(1011,0,l)
);
}
);
};
layerId = "26C860F9-3A1D-441D-9B2D-5C5CFD026C88";
shapes = (
{
ref = d;
},
{
pos = (861,0);
ref = caroncomb.alt;
}
);
width = 1185;
}
);
metricRight = comma;
unicode = 271;
},
{
glyphname = dcroat;
kernLeft = d;
lastChange = "2023-04-19 12:01:43 +0000";
layers = (
{
anchors = (
{
name = bottom;
pos = (571,0);
}
);
layerId = "CE2138A5-93BA-4A69-8B69-7D34CC27D2DF";
shapes = (
{
closed = 1;
nodes = (
(746,-20,o),
(894,136,o),
(894,385,c),
(849,385,l),
(849,158,o),
(692,44,o),
(544,44,cs),
(369,44,o),
(214,201,o),
(214,474,cs),
(214,745,o),
(371,899,o),
(542,899,cs),
(700,899,o),
(849,783,o),
(849,554,c),
(894,554,l),
(894,804,o),
(744,962,o),
(540,962,cs),
(324,962,o),
(134,778,o),
(134,474,cs),
(134,170,o),
(324,-20,o),
(544,-20,cs)
);
},
{
closed = 1;
nodes = (
(921,0,l),
(921,1356,l),
(849,1356,l),
(849,208,l),
(856,0,l)
);
},
{
closed = 1;
nodes = (
(1085,1121,l),
(1085,1180,l),
(560,1180,l),
(560,1121,l)
);
}
);
width = 1141;
},
{
anchors = (
{
name = bottom;
pos = (637,0);
}
);
layerId = "54E4F05E-05D2-4398-A473-3C5492C75DBF";
shapes = (
{
closed = 1;
nodes = (
(716,-32,o),
(870,118,o),
(870,453,c),
(781,453,l),
(781,349,o),
(692,260,o),
(599,260,cs),
(480,260,o),
(405,361,o),
(405,498,cs),
(405,628,o),
(476,727,o),
(603,727,cs),
(700,727,o),
(781,654,o),
(781,542,c),
(870,542,l),
(870,859,o),
(744,1017,o),
(522,1017,cs),
(275,1017,o),
(85,809,o),
(85,498,cs),
(85,182,o),
(287,-32,o),
(544,-32,cs)
);
},
{
closed = 1;
nodes = (
(1105,0,l),
(1105,1380,l),
(781,1380,l),
(781,257,l),
(844,0,l)
);
},
{
closed = 1;
nodes = (
(1240,1075,l),
(1240,1265,l),
(624,1265,l),
(624,1075,l)
);
}
);
width = 1273;
},
{
anchors = (
{
name = bottom;
pos = (593,0);
}
);
background = {
shapes = (
{
alignment = -1;
pos = (503,643);
ref = hyphen;
scale = (1.0198,0.8935);
}
);
};
layerId = "26C860F9-3A1D-441D-9B2D-5C5CFD026C88";
shapes = (
{
closed = 1;
nodes = (
(736,-24,o),
(886,130,o),
(886,408,c),
(826,408,l),
(826,222,o),
(692,116,o),
(562,116,cs),
(406,116,o),
(278,254,o),
(278,482,cs),
(278,706,o),
(406,842,o),
(562,842,cs),
(700,842,o),
(826,740,o),
(826,550,c),
(886,550,l),
(886,822,o),
(744,980,o),
(534,980,cs),
(308,980,o),
(118,788,o),
(118,482,cs),
(118,174,o),
(312,-24,o),
(544,-24,cs)
);
},
{
closed = 1;
nodes = (
(982,0,l),
(982,1364,l),
(826,1364,l),
(826,224,l),
(852,0,l)
);
},
{
closed = 1;
nodes = (
(1135,1102,l),
(1135,1224,l),
(581,1224,l),
(581,1102,l)
);
}
);
width = 1185;
}
);
unicode = 273;
},
{
glyphname = eth;
kernLeft = d;
lastChange = "2023-04-19 12:01:43 +0000";
layers = (
{
layerId = "CE2138A5-93BA-4A69-8B69-7D34CC27D2DF";
shapes = (
{
closed = 1;
nodes = (
(799,-20,o),
(947,235,o),
(947,587,cs),
(947,1038,o),
(703,1452,o),
(494,1578,c),
(454,1519,l),
(666,1389,o),
(900,975,o),
(869,505,cs),
(851,232,o),
(751,44,o),
(549,44,cs),
(363,44,o),
(214,204,o),
(214,472,cs),
(214,745,o),
(368,899,o),
(545,899,cs),
(699,899,o),
(869,783,o),
(871,522,c),
(916,522,l),
(914,804,o),
(743,962,o),
(541,962,cs),
(323,962,o),
(134,777,o),
(134,474,cs),
(134,170,o),
(324,-20,o),
(544,-20,cs)
);
},
{
closed = 1;
nodes = (
(998,1371,l),
(971,1429,l),
(440,1181,l),
(467,1123,l)
);
}
);
width = 1110;
},
{
background = {
shapes = (
{
closed = 1;
nodes = (
(797,547,l),
(788,278,o),
(701,152,o),
(568,152,cs),
(428,152,o),
(340,272,o),
(340,474,cs),
(340,680,o),
(428,794,o),
(552,794,cs),
(683,794,o),
(806,676,o),
(792,392,c),
(847,740,l),
(774,922,o),
(665,998,o),
(512,998,cs),
(308,998,o),
(102,822,o),
(102,474,cs),
(102,132,o),
(310,-28,o),
(576,-28,cs),
(838,-28,o),
(1036,176,o),
(1036,622,cs),
(1036,940,o),
(944,1312,o),
(578,1660,c),
(364,1538,l),
(634,1294,o),
(804,1058,o),
(827,749,c)
);
},
{
closed = 1;
nodes = (
(454,1116,l),
(1028,1446,l),
(932,1578,l),
(360,1248,l)
);
}
);
};
layerId = "54E4F05E-05D2-4398-A473-3C5492C75DBF";
shapes = (
{
closed = 1;
nodes = (
(818,-32,o),
(1110,195,o),
(1110,669,cs),
(1110,922,o),
(1027,1284,o),
(605,1697,c),
(324,1527,l),
(798,1140,o),
(808,861,o),
(802,490,cs),
(800,372,o),
(724,260,o),
(599,260,cs),
(481,260,o),
(405,361,o),
(405,496,cs),
(405,629,o),
(478,727,o),
(598,727,cs),
(699,727,o),
(800,658,o),
(804,512,c),
(893,512,l),
(893,777,o),
(760,1017,o),
(512,1017,cs),
(281,1017,o),
(85,808,o),
(85,501,cs),
(85,181,o),
(298,-32,o),
(554,-32,cs)
);
},
{
closed = 1;
nodes = (
(1063,1450,l),
(975,1637,l),
(306,1293,l),
(394,1106,l)
);
}
);
width = 1146;
},
{
layerId = "26C860F9-3A1D-441D-9B2D-5C5CFD026C88";
shapes = (
{
closed = 1;
nodes = (
(805,-24,o),
(1001,222,o),
(1001,614,cs),
(1001,999,o),
(811,1396,o),
(531,1618,c),
(411,1522,l),
(710,1306,o),
(869,937,o),
(847,500,cs),
(834,279,o),
(742,116,o),
(566,116,cs),
(402,116,o),
(278,256,o),
(278,480,cs),
(278,706,o),
(405,842,o),
(563,842,cs),
(699,842,o),
(846,741,o),
(849,519,c),
(908,519,l),
(907,795,o),
(749,980,o),
(531,980,cs),
(309,980,o),
(118,787,o),
(118,483,cs),
(118,174,o),
(315,-24,o),
(547,-24,cs)
);
},
{
closed = 1;
nodes = (
(1020,1397,l),
(972,1498,l),
(395,1218,l),
(443,1117,l)
);
}
);
width = 1122;
}
);
unicode = 240;
},
{
glyphname = e;
kernLeft = e;
kernRight = e;
lastChange = "2023-04-19 12:03:48 +0000";
layers = (
{
anchors = (
{
name = above;
pos = (508,971);
},
{
name = bottom;
pos = (497,0);
},
{
name = ogonek;
pos = (574,10);
},
{
name = top;
pos = (497,940);
}
);
layerId = "CE2138A5-93BA-4A69-8B69-7D34CC27D2DF";
shapes = (
{
closed = 1;
nodes = (
(707,-20,o),
(851,82,o),
(881,274,c),
(797,274,l),
(779,123,o),
(676,45,o),
(520,45,cs),
(295,45,o),
(186,229,o),
(186,466,cs),
(186,500,ls),
(186,700,o),
(295,899,o),
(520,899,cs),
(749,899,o),
(808,684,o),
(800,498,c),
(846,528,l),
(173,528,l),
(173,464,l),
(883,464,l),
(883,720,o),
(789,962,o),
(520,962,cs),
(270,962,o),
(110,774,o),
(110,466,cs),
(110,188,o),
(272,-20,o),
(520,-20,cs)
);
}
);
width = 993;
},
{
anchors = (
{
name = above;
pos = (545,1094);
},
{
name = bottom;
pos = (548,0);
},
{
name = ogonek;
pos = (606,10);
},
{
name = top;
pos = (548,989);
}
);
layerId = "54E4F05E-05D2-4398-A473-3C5492C75DBF";
shapes = (
{
closed = 1;
nodes = (
(806,-32,o),
(974,113,o),
(1004,298,c),
(686,298,l),
(668,246,o),
(621,223,o),
(563,223,cs),
(455,223,o),
(402,303,o),
(402,429,cs),
(402,555,ls),
(402,688,o),
(467,764,o),
(569,764,cs),
(691,764,o),
(722,653,o),
(714,559,c),
(760,589,l),
(339,589,l),
(339,427,l),
(994,427,l),
(1061,726,o),
(894,1017,o),
(563,1017,cs),
(313,1017,o),
(86,823,o),
(86,497,cs),
(86,170,o),
(315,-32,o),
(563,-32,cs)
);
}
);
width = 1095;
},
{
anchors = (
{
name = above;
pos = (520,1012);
},
{
name = bottom;
pos = (514,0);
},
{
name = ogonek;
pos = (585,10);
},
{
name = top;
pos = (514,956);
}
);
layerId = "26C860F9-3A1D-441D-9B2D-5C5CFD026C88";
shapes = (
{
closed = 1;
nodes = (
(740,-24,o),
(892,92,o),
(922,282,c),
(760,282,l),
(742,164,o),
(658,104,o),
(534,104,cs),
(348,104,o),
(258,254,o),
(258,454,cs),
(258,518,ls),
(258,696,o),
(352,854,o),
(536,854,cs),
(730,854,o),
(779,674,o),
(771,518,c),
(817,548,l),
(228,548,l),
(228,452,l),
(920,452,l),
(942,722,o),
(824,980,o),
(534,980,cs),
(284,980,o),
(102,790,o),
(102,476,cs),
(102,182,o),
(286,-24,o),
(534,-24,cs)
);
}
);
width = 1027;
}
);
unicode = 101;
},
{
glyphname = f;
lastChange = "2020-10-22 18:08:06 +0000";
layers = (
{
anchors = (
{
name = bottom;
pos = (317,0);
},
{
name = top;
pos = (317,1834);
}
);
layerId = "CE2138A5-93BA-4A69-8B69-7D34CC27D2DF";
shapes = (
{
closed = 1;
nodes = (
(338,0,l),
(338,1120,ls),
(338,1279,o),
(433,1307,o),
(505,1307,cs),
(543,1307,o),
(587,1299,o),
(633,1279,c),
(647,1344,l),
(601,1362,o),
(557,1368,o),
(514,1368,cs),
(368,1368,o),
(266,1290,o),
(266,1120,cs),
(266,0,l)
);
},
{
closed = 1;
nodes = (
(557,883,l),
(557,942,l),
(98,942,l),
(98,883,l)
);
}
);
width = 634;
},
{
anchors = (
{
name = bottom;
pos = (394,0);
},
{
name = top;
pos = (394,1834);
}
);
layerId = "54E4F05E-05D2-4398-A473-3C5492C75DBF";
shapes = (
{
closed = 1;
nodes = (
(554,0,l),
(554,1065,ls),
(554,1119,o),
(586,1147,o),
(634,1147,cs),
(666,1147,o),
(698,1139,o),
(725,1132,c),
(788,1375,l),
(712,1386,o),
(625,1398,o),
(551,1398,cs),
(386,1398,o),
(229,1302,o),
(229,1071,cs),
(229,0,l)
);
},
{
closed = 1;
nodes = (
(711,778,l),
(711,985,l),
(98,985,l),
(98,778,l)
);
}
);
width = 788;
},
{
anchors = (
{
name = bottom;
pos = (343,0);
},
{
name = top;
pos = (343,1834);
}
);
layerId = "26C860F9-3A1D-441D-9B2D-5C5CFD026C88";
shapes = (
{
closed = 1;
nodes = (
(410,0,l),
(410,1102,ls),
(410,1226,o),
(484,1254,o),
(548,1254,cs),
(584,1254,o),
(624,1246,o),
(664,1230,c),
(694,1354,l),
(638,1370,o),
(580,1378,o),
(526,1378,cs),
(374,1378,o),
(254,1294,o),
(254,1104,cs),
(254,0,l)
);
},
{
closed = 1;
nodes = (
(608,848,l),
(608,956,l),
(98,956,l),
(98,848,l)
);
}
);
width = 685.33333;
}
);
unicode = 102;
},
{
glyphname = g;
lastChange = "2023-04-19 09:37:04 +0000";
layers = (
{
anchors = (
{
name = bottom;
pos = (547,-504);
},
{
name = top;
pos = (547,940);
}
);
layerId = "CE2138A5-93BA-4A69-8B69-7D34CC27D2DF";
shapes = (
{
closed = 1;
nodes = (
(870,-482,o),
(1071,-306,o),
(1071,-141,cs),
(1071,-27,o),
(978,59,o),
(824,59,cs),
(405,59,ls),
(249,59,o),
(205,115,o),
(205,185,cs),
(205,280,o),
(291,326,o),
(353,326,c),
(353,363,l),
(248,363,o),
(132,304,o),
(132,186,cs),
(132,90,o),
(213,-2,o),
(405,-2,cs),
(824,-2,ls),
(939,-2,o),
(995,-68,o),
(995,-140,cs),
(995,-289,o),
(798,-419,o),
(520,-419,cs),
(273,-419,o),
(157,-315,o),
(157,-198,cs),
(157,-78,o),
(247,-2,o),
(405,-2,c),
(405,42,l),
(215,42,o),
(87,-40,o),
(87,-198,cs),
(87,-360,o),
(267,-482,o),
(520,-482,cs)
);
},
{
closed = 1;
nodes = (
(768,260,o),
(917,406,o),
(917,612,cs),
(917,817,o),
(768,962,o),
(564,962,cs),
(354,962,o),
(205,817,o),
(205,612,cs),
(205,406,o),
(354,260,o),
(564,260,cs)
);
},
{
closed = 1;
nodes = (
(391,318,o),
(281,443,o),
(281,612,cs),
(281,780,o),
(391,899,o),
(564,899,cs),
(732,899,o),
(843,780,o),
(843,612,cs),
(843,443,o),
(732,318,o),
(562,318,cs)
);
},
{
closed = 1;
nodes = (
(847,944,o),
(917,1004,o),
(1041,1004,c),
(1053,1085,l),
(881,1085,o),
(808,973,o),
(808,811,c),
(847,814,l)
);
}
);
width = 1093;
},
{
anchors = (
{
name = bottom;
pos = (601,-504);
},
{
name = top;
pos = (601,989);
}
);
layerId = "54E4F05E-05D2-4398-A473-3C5492C75DBF";
shapes = (
{
closed = 1;
nodes = (
(925,-513,o),
(1151,-294,o),
(1151,-61,cs),
(1151,120,o),
(1009,188,o),
(775,188,cs),
(498,188,ls),
(409,188,o),
(371,214,o),
(371,259,cs),
(371,311,o),
(414,338,o),
(470,338,c),
(378,437,l),
(211,437,o),
(102,353,o),
(102,229,cs),
(102,78,o),
(299,-33,o),
(498,-33,cs),
(775,-33,ls),
(816,-33,o),
(835,-50,o),
(835,-85,cs),
(835,-172,o),
(743,-259,o),
(581,-259,cs),
(427,-259,o),
(317,-223,o),
(317,-143,cs),
(317,-72,o),
(382,-33,o),
(498,-33,c),
(235,42,l),
(104,42,o),
(1,-34,o),
(1,-161,cs),
(1,-342,o),
(205,-513,o),
(581,-513,cs)
);
},
{
closed = 1;
nodes = (
(811,321,o),
(1028,455,o),
(1028,667,cs),
(1028,885,o),
(811,1017,o),
(576,1017,cs),
(336,1017,o),
(125,885,o),
(125,667,cs),
(125,455,o),
(336,321,o),
(576,321,cs)
);
},
{
closed = 1;
nodes = (
(484,540,o),
(441,596,o),
(441,667,cs),
(441,749,o),
(484,800,o),
(576,800,cs),
(677,800,o),
(714,749,o),
(714,667,cs),
(714,596,o),
(677,540,o),
(580,540,cs)
);
},
{
closed = 1;
nodes = (
(952,920,o),
(1010,949,o),
(1121,949,c),
(1133,1251,l),
(974,1251,o),
(808,1133,o),
(808,952,c),
(952,857,l)
);
}
);
width = 1201;
},
{
anchors = (
{
name = bottom;
pos = (565,-504);
},
{
name = top;
pos = (565,956);
}
);
layerId = "26C860F9-3A1D-441D-9B2D-5C5CFD026C88";
shapes = (
{
closed = 1;
nodes = (
(888,-492,o),
(1098,-302,o),
(1098,-114,cs),
(1098,22,o),
(988,102,o),
(808,102,cs),
(436,102,ls),
(302,102,o),
(260,148,o),
(260,210,cs),
(260,290,o),
(332,330,o),
(392,330,c),
(362,388,l),
(236,388,o),
(122,320,o),
(122,200,cs),
(122,86,o),
(242,-12,o),
(436,-12,cs),
(808,-12,ls),
(898,-12,o),
(942,-62,o),
(942,-122,cs),
(942,-250,o),
(780,-366,o),
(540,-366,cs),
(324,-366,o),
(210,-284,o),
(210,-180,cs),
(210,-76,o),
(292,-12,o),
(436,-12,c),
(350,42,l),
(178,42,o),
(58,-38,o),
(58,-186,cs),
(58,-354,o),
(246,-492,o),
(540,-492,cs)
);
},
{
closed = 1;
nodes = (
(782,280,o),
(954,422,o),
(954,630,cs),
(954,840,o),
(782,980,o),
(568,980,cs),
(348,980,o),
(178,840,o),
(178,630,cs),
(178,422,o),
(348,280,o),
(568,280,cs)
);
},
{
closed = 1;
nodes = (
(422,392,o),
(334,494,o),
(334,630,cs),
(334,770,o),
(422,866,o),
(568,866,cs),
(714,866,o),
(800,770,o),
(800,630,cs),
(800,494,o),
(714,392,o),
(568,392,cs)
);
},
{
closed = 1;
nodes = (
(882,936,o),
(948,986,o),
(1068,986,c),
(1080,1140,l),
(912,1140,o),
(808,1026,o),
(808,858,c),
(882,828,l)
);
}
);
width = 1129;
}
);
unicode = 103;
},
{
glyphname = h;
kernLeft = h;
lastChange = "2023-04-19 12:06:06 +0000";
layers = (
{
anchors = (
{
name = bottom;
pos = (584,0);
},
{
name = center;
pos = (584,917);
},
{
name = top;
pos = (584,1834);
}
);
layerId = "CE2138A5-93BA-4A69-8B69-7D34CC27D2DF";
shapes = (
{
closed = 1;
nodes = (
(983,0,l),
(983,556,ls),
(983,814,o),
(836,962,o),
(625,962,cs),
(372,962,o),
(251,759,o),
(251,470,c),
(292,470,l),
(292,721,o),
(409,899,o),
(611,899,cs),
(800,899,o),
(913,777,o),
(913,556,cs),
(913,0,l)
);
},
{
closed = 1;
nodes = (
(292,0,l),
(292,1356,l),
(218,1356,l),
(218,0,l)
);
}
);
width = 1167;
},
{
anchors = (
{
name = bottom;
pos = (644,0);
},
{
name = center;
pos = (644,917);
},
{
name = top;
pos = (644,1834);
}
);
layerId = "54E4F05E-05D2-4398-A473-3C5492C75DBF";
shapes = (
{
closed = 1;
nodes = (
(1143,0,l),
(1143,574,ls),
(1143,832,o),
(1033,1017,o),
(779,1017,cs),
(557,1017,o),
(392,839,o),
(392,415,c),
(489,415,l),
(489,641,o),
(581,727,o),
(691,727,cs),
(763,727,o),
(821,678,o),
(821,574,cs),
(821,0,l)
);
},
{
closed = 1;
nodes = (
(489,0,l),
(489,1380,l),
(169,1380,l),
(169,0,l)
);
}
);
width = 1287;
},
{
anchors = (
{
name = bottom;
pos = (604,0);
},
{
name = center;
pos = (604,917);
},
{
name = top;
pos = (604,1834);
}
);
layerId = "26C860F9-3A1D-441D-9B2D-5C5CFD026C88";
shapes = (
{
closed = 1;
nodes = (
(1036,0,l),
(1036,562,ls),
(1036,820,o),
(902,980,o),
(676,980,cs),
(434,980,o),
(298,786,o),
(298,452,c),
(358,452,l),
(358,694,o),
(466,842,o),
(638,842,cs),
(788,842,o),
(882,744,o),
(882,562,cs),
(882,0,l)
);
},
{
closed = 1;
nodes = (
(358,0,l),
(358,1364,l),
(202,1364,l),
(202,0,l)
);
}
);
width = 1207;
}
);
unicode = 104;
},
{
color = 4;
glyphname = hbar;
kernLeft = h;
lastChange = "2023-04-19 12:05:49 +0000";
layers = (
{
anchors = (
{
name = bottom;
pos = (584,0);
},
{
name = center;
pos = (584,917);
},
{
name = top;
pos = (584,1834);
}
);
background = {
shapes = (
{
ref = h;
},
{
pos = (9,615);
ref = hyphen;
scale = (0.8,0.9);
}
);
};
layerId = "CE2138A5-93BA-4A69-8B69-7D34CC27D2DF";
shapes = (
{
closed = 1;
nodes = (
(983,0,l),
(983,556,ls),
(983,814,o),
(836,962,o),
(625,962,cs),
(372,962,o),
(251,759,o),
(251,470,c),
(292,470,l),
(292,721,o),
(409,899,o),
(611,899,cs),
(800,899,o),
(913,777,o),
(913,556,cs),
(913,0,l)
);
},
{
closed = 1;
nodes = (
(292,0,l),
(292,1356,l),
(218,1356,l),
(218,0,l)
);
},
{
closed = 1;
nodes = (
(478,1090,l),
(478,1149,l),
(58,1149,l),
(58,1090,l)
);
}
);
width = 1167;
},
{
anchors = (
{
name = bottom;
pos = (644,0);
},
{
name = center;
pos = (644,917);
},
{
name = top;
pos = (644,1834);
}
);
background = {
shapes = (
{
ref = h;
},
{
pos = (-40,722);
ref = hyphen;
scale = (1,0.7);
}
);
};
layerId = "54E4F05E-05D2-4398-A473-3C5492C75DBF";
shapes = (
{
closed = 1;
nodes = (
(1143,0,l),
(1143,574,ls),
(1143,832,o),
(1033,1017,o),
(779,1017,cs),
(557,1017,o),
(392,839,o),
(392,415,c),
(489,415,l),
(489,641,o),
(581,727,o),
(691,727,cs),
(763,727,o),
(821,678,o),
(821,574,cs),
(821,0,l)
);
},
{
closed = 1;
nodes = (
(489,0,l),
(489,1380,l),
(169,1380,l),
(169,0,l)
);
},
{
closed = 1;
nodes = (
(649,1062,l),
(649,1258,l),
(69,1258,l),
(69,1062,l)
);
}
);
width = 1287;
},
{
anchors = (
{
name = bottom;
pos = (604,0);
},
{
name = center;
pos = (604,917);
},
{
name = top;
pos = (604,1834);
}
);
background = {
shapes = (
{
alignment = -1;
ref = h;
},
{
alignment = -1;
pos = (-7,651);
ref = hyphen;
scale = (0.8667,0.8333);
}
);
};
layerId = "26C860F9-3A1D-441D-9B2D-5C5CFD026C88";
shapes = (
{
closed = 1;
nodes = (
(1036,0,l),
(1036,562,ls),
(1036,820,o),
(902,980,o),
(676,980,cs),
(434,980,o),
(298,786,o),
(298,452,c),
(358,452,l),
(358,694,o),
(466,842,o),
(638,842,cs),
(788,842,o),
(882,744,o),
(882,562,cs),
(882,0,l)
);
},
{
closed = 1;
nodes = (
(358,0,l),
(358,1364,l),
(202,1364,l),
(202,0,l)
);
},
{
closed = 1;
nodes = (
(530,1079,l),
(530,1193,l),
(60,1193,l),
(60,1079,l)
);
}
);
width = 1207;
}
);
unicode = 295;
},
{
glyphname = i;
lastChange = "2020-10-22 18:08:06 +0000";
layers = (
{
layerId = "CE2138A5-93BA-4A69-8B69-7D34CC27D2DF";
shapes = (
{
closed = 1;
nodes = (
(293,1217,o),
(316,1245,o),
(316,1278,cs),
(316,1309,o),
(293,1331,o),
(255,1331,cs),
(220,1331,o),
(194,1309,o),
(194,1278,cs),
(194,1245,o),
(220,1217,o),
(255,1217,cs)
);
},
{
ref = idotless;
}
);
width = 535;
},
{
layerId = "54E4F05E-05D2-4398-A473-3C5492C75DBF";
shapes = (
{
closed = 1;
nodes = (
(477,1112,o),
(550,1177,o),
(550,1290,cs),
(550,1401,o),
(477,1472,o),
(360,1472,cs),
(238,1472,o),
(170,1401,o),
(170,1290,cs),
(170,1177,o),
(238,1112,o),
(360,1112,cs)
);
},
{
ref = idotless;
}
);
width = 719;
},
{
layerId = "26C860F9-3A1D-441D-9B2D-5C5CFD026C88";
shapes = (
{
closed = 1;
nodes = (
(354,1182,o),
(394,1222,o),
(394,1282,cs),
(394,1340,o),
(354,1378,o),
(290,1378,cs),
(226,1378,o),
(186,1340,o),
(186,1282,cs),
(186,1222,o),
(226,1182,o),
(290,1182,cs)
);
},
{
alignment = -1;
ref = idotless;
}
);
width = 596.33333;
}
);
unicode = 105;
},
{
glyphname = idotless;
lastChange = "2020-10-22 18:08:06 +0000";
layers = (
{
anchors = (
{
name = bottom;
pos = (268,0);
},
{
name = ogonek;
pos = (253,10);
},
{
name = top;
pos = (253,940);
}
);
layerId = "CE2138A5-93BA-4A69-8B69-7D34CC27D2DF";
shapes = (
{
closed = 1;
nodes = (
(292,0,l),
(292,942,l),
(218,942,l),
(218,0,l)
);
}
);
width = 535;
},
{
anchors = (
{
name = bottom;
pos = (360,0);
},
{
name = ogonek;
pos = (436,10);
},
{
name = top;
pos = (360,989);
}
);
layerId = "54E4F05E-05D2-4398-A473-3C5492C75DBF";
shapes = (
{
closed = 1;
nodes = (
(520,0,l),
(520,991,l),
(200,991,l),
(200,0,l)
);
}
);
width = 719;
},
{
anchors = (
{
name = bottom;
pos = (299,0);
},
{
name = ogonek;
pos = (314,10);
},
{
name = top;
pos = (289,956);
}
);
layerId = "26C860F9-3A1D-441D-9B2D-5C5CFD026C88";
shapes = (
{
closed = 1;
nodes = (
(368,0,l),
(368,958,l),
(212,958,l),
(212,0,l)
);
}
);
width = 596.33333;
}
);
unicode = 305;
},
{
glyphname = j;
lastChange = "2020-10-22 18:08:06 +0000";
layers = (
{
layerId = "CE2138A5-93BA-4A69-8B69-7D34CC27D2DF";
shapes = (
{
closed = 1;
nodes = (
(341,1217,o),
(365,1245,o),
(365,1278,cs),
(365,1309,o),
(341,1331,o),
(304,1331,cs),
(266,1331,o),
(247,1309,o),
(247,1278,cs),
(247,1245,o),
(266,1217,o),
(304,1217,cs)
);
},
{
ref = jdotless;
}
);
width = 583;
},
{
layerId = "54E4F05E-05D2-4398-A473-3C5492C75DBF";
shapes = (
{
closed = 1;
nodes = (
(470,1112,o),
(543,1177,o),
(543,1290,cs),
(543,1401,o),
(470,1472,o),
(353,1472,cs),
(236,1472,o),
(161,1401,o),
(161,1290,cs),
(161,1177,o),
(236,1112,o),
(353,1112,cs)
);
},
{
ref = jdotless;
}
);
width = 715;
},
{
layerId = "26C860F9-3A1D-441D-9B2D-5C5CFD026C88";
shapes = (
{
closed = 1;
nodes = (
(384,1182,o),
(424,1222,o),
(424,1282,cs),
(424,1340,o),
(384,1378,o),
(320,1378,cs),
(256,1378,o),
(218,1340,o),
(218,1282,cs),
(218,1222,o),
(256,1182,o),
(320,1182,cs)
);
},
{
alignment = -1;
ref = jdotless;
}
);
width = 627;
}
);
unicode = 106;
},
{
glyphname = jdotless;
lastChange = "2020-10-22 18:08:06 +0000";
layers = (
{
layerId = "CE2138A5-93BA-4A69-8B69-7D34CC27D2DF";
shapes = (
{
closed = 1;
nodes = (
(217,-482,o),
(339,-386,o),
(339,-157,cs),
(339,946,l),
(269,946,l),
(269,-157,ls),
(269,-327,o),
(192,-418,o),
(66,-418,cs),
(-22,-418,o),
(-92,-383,o),
(-180,-329,c),
(-193,-395,l),
(-101,-458,o),
(-17,-482,o),
(63,-482,cs)
);
}
);
width = 583;
},
{
layerId = "54E4F05E-05D2-4398-A473-3C5492C75DBF";
shapes = (
{
closed = 1;
nodes = (
(395,-513,o),
(517,-398,o),
(517,-95,cs),
(517,989,l),
(195,989,l),
(195,-89,ls),
(195,-204,o),
(155,-233,o),
(72,-233,cs),
(8,-233,o),
(-74,-211,o),
(-131,-188,c),
(-131,-463,l),
(-39,-488,o),
(45,-513,o),
(162,-513,cs)
);
}
);
width = 715;
},
{
layerId = "26C860F9-3A1D-441D-9B2D-5C5CFD026C88";
shapes = (
{
closed = 1;
nodes = (
(276,-492,o),
(398,-390,o),
(398,-136,cs),
(398,960,l),
(244,960,l),
(244,-134,ls),
(244,-286,o),
(180,-356,o),
(68,-356,cs),
(-12,-356,o),
(-86,-326,o),
(-164,-282,c),
(-172,-418,l),
(-80,-468,o),
(4,-492,o),
(96,-492,cs)
);
}
);
width = 627;
}
);
unicode = 567;
},
{
glyphname = k;
kernLeft = h;
lastChange = "2023-04-19 12:05:49 +0000";
layers = (
{
anchors = (
{
name = bottom;
pos = (535,0);
},
{
name = top;
pos = (535,1834);
}
);
layerId = "CE2138A5-93BA-4A69-8B69-7D34CC27D2DF";
shapes = (
{
closed = 1;
nodes = (
(292,0,l),
(292,1356,l),
(218,1356,l),
(218,0,l)
);
},
{
closed = 1;
nodes = (
(277,407,l),
(952,942,l),
(838,942,l),
(277,493,l)
);
},
{
closed = 1;
nodes = (
(972,0,l),
(494,590,l),
(404,590,l),
(878,0,l)
);
}
);
width = 1070;
},
{
anchors = (
{
name = bottom;
pos = (621,0);
},
{
name = top;
pos = (621,1834);
}
);
layerId = "54E4F05E-05D2-4398-A473-3C5492C75DBF";
shapes = (
{
closed = 1;
nodes = (
(489,0,l),
(489,1380,l),
(169,1380,l),
(169,0,l)
);
},
{
closed = 1;
nodes = (
(449,333,l),
(1216,985,l),
(789,985,l),
(449,659,l)
);
},
{
closed = 1;
nodes = (
(1242,0,l),
(734,714,l),
(441,633,l),
(854,0,l)
);
}
);
width = 1242;
},
{
anchors = (
{
name = bottom;
pos = (564,0);
},
{
name = top;
pos = (564,1834);
}
);
layerId = "26C860F9-3A1D-441D-9B2D-5C5CFD026C88";
shapes = (
{
closed = 1;
nodes = (
(358,0,l),
(358,1364,l),
(202,1364,l),
(202,0,l)
);
},
{
closed = 1;
nodes = (
(334,382,l),
(1040,956,l),
(822,956,l),
(334,548,l)
);
},
{
closed = 1;
nodes = (
(1062,0,l),
(574,632,l),
(416,604,l),
(870,0,l)
);
}
);
width = 1127.33333;
}
);
unicode = 107;
},
{
glyphname = l;
kernLeft = h;
lastChange = "2023-04-19 12:05:49 +0000";
layers = (
{
anchors = (
{
name = bottom;
pos = (255,0);
},
{
name = center;
pos = (255,917);
},
{
name = top;
pos = (255,1350);
},
{
name = topright;
pos = (490,1350);
}
);
layerId = "CE2138A5-93BA-4A69-8B69-7D34CC27D2DF";
shapes = (
{
closed = 1;
nodes = (
(292,0,l),
(292,1356,l),
(218,1356,l),
(218,0,l)
);
}
);
width = 510;
},
{
anchors = (
{
name = bottom;
pos = (330,0);
},
{
name = center;
pos = (330,917);
},
{
name = top;
pos = (330,1424);
},
{
name = topright;
pos = (710,1411);
}
);
layerId = "54E4F05E-05D2-4398-A473-3C5492C75DBF";
shapes = (
{
closed = 1;
nodes = (
(489,0,l),
(489,1380,l),
(169,1380,l),
(169,0,l)
);
}
);
width = 660;
},
{
anchors = (
{
name = bottom;
pos = (280,0);
},
{
name = center;
pos = (280,917);
},
{
name = top;
pos = (280,1375);
},
{
name = topright;
pos = (544,1378);
}
);
layerId = "26C860F9-3A1D-441D-9B2D-5C5CFD026C88";
shapes = (
{
closed = 1;
nodes = (
(358,0,l),
(358,1364,l),
(202,1364,l),
(202,0,l)
);
}
);
width = 560;
}
);
unicode = 108;
},
{
glyphname = lcaron;
kernLeft = h;
kernRight = dcaron;
lastChange = "2023-04-19 13:31:02 +0000";
layers = (
{
background = {
anchors = (
{
name = bottom;
pos = (255,0);
},
{
name = center;
pos = (255,917);
},
{
name = top;
pos = (255,1350);
},
{
name = topright;
pos = (490,1834);
}
);
shapes = (
{
closed = 1;
nodes = (
(520,1096,o),
(559,1178,o),
(559,1252,cs),
(559,1313,o),
(513,1361,o),
(461,1361,cs),
(418,1361,o),
(390,1326,o),
(390,1290,cs),
(390,1245,o),
(427,1217,o),
(475,1219,c),
(464,1148,o),
(420,1111,o),
(346,1075,c),
(417,1042,l)
);
},
{
closed = 1;
nodes = (
(292,0,l),
(292,1356,l),
(218,1356,l),
(218,0,l)
);
}
);
};
layerId = "CE2138A5-93BA-4A69-8B69-7D34CC27D2DF";
shapes = (
{
ref = l;
},
{
pos = (160,-1);
ref = caroncomb.alt;
}
);
width = 510;
},
{
background = {
anchors = (
{
name = bottom;
pos = (327,0);
},
{
name = center;
pos = (327,917);
},
{
name = top;
pos = (327,1424);
},
{
name = topright;
pos = (637,1424);
}
);
shapes = (
{
closed = 1;
nodes = (
(782,1068,o),
(848,1162,o),
(848,1257,cs),
(848,1340,o),
(796,1411,o),
(707,1411,cs),
(636,1411,o),
(584,1366,o),
(584,1306,cs),
(584,1251,o),
(626,1216,o),
(679,1203,c),
(663,1157,o),
(609,1118,o),
(551,1089,c),
(685,1020,l)
);
},
{
closed = 1;
nodes = (
(486,0,l),
(486,1380,l),
(166,1380,l),
(166,0,l)
);
}
);
};
layerId = "54E4F05E-05D2-4398-A473-3C5492C75DBF";
shapes = (
{
ref = l;
},
{
pos = (400,0);
ref = caroncomb.alt;
}
);
width = 660;
},
{
background = {
anchors = (
{
name = bottom;
pos = (281,0);
},
{
name = center;
pos = (281,917);
},
{
name = top;
pos = (281,1375);
},
{
name = topright;
pos = (541,1697);
}
);
shapes = (
{
closed = 1;
nodes = (
(609,1087,o),
(657,1173,o),
(657,1254,cs),
(657,1322,o),
(609,1378,o),
(545,1378,cs),
(492,1378,o),
(456,1339,o),
(456,1295,cs),
(456,1247,o),
(495,1217,o),
(545,1214,c),
(532,1151,o),
(485,1113,o),
(416,1080,c),
(508,1035,l)
);
},
{
closed = 1;
nodes = (
(359,0,l),
(359,1364,l),
(203,1364,l),
(203,0,l)
);
}
);
};
layerId = "26C860F9-3A1D-441D-9B2D-5C5CFD026C88";
shapes = (
{
ref = l;
},
{
pos = (237,0);
ref = caroncomb.alt;
}
);
width = 560;
}
);
metricRight = dcaron;
unicode = 318;
},
{
glyphname = lslash;
kernLeft = h;
lastChange = "2023-04-19 12:05:49 +0000";
layers = (
{
layerId = "CE2138A5-93BA-4A69-8B69-7D34CC27D2DF";
shapes = (
{
closed = 1;
nodes = (
(497,810,l),
(486,871,l),
(57,796,l),
(69,735,l)
);
},
{
ref = l;
}
);
width = 510;
},
{
layerId = "54E4F05E-05D2-4398-A473-3C5492C75DBF";
shapes = (
{
closed = 1;
nodes = (
(662,814,l),
(623,1009,l),
(17,909,l),
(56,714,l)
);
},
{
ref = l;
}
);
width = 660;
},
{
layerId = "26C860F9-3A1D-441D-9B2D-5C5CFD026C88";
shapes = (
{
closed = 1;
nodes = (
(552,811,l),
(532,917,l),
(44,834,l),
(65,728,l)
);
},
{
alignment = -1;
ref = l;
}
);
width = 560;
}
);
unicode = 322;
},
{
glyphname = m;
lastChange = "2020-10-22 18:08:06 +0000";
layers = (
{
anchors = (
{
name = bottom;
pos = (922,0);
},
{
name = top;
pos = (922,940);
}
);
layerId = "CE2138A5-93BA-4A69-8B69-7D34CC27D2DF";
shapes = (
{
closed = 1;
nodes = (
(1661,0,l),
(1661,556,ls),
(1661,814,o),
(1517,962,o),
(1303,962,cs),
(1055,962,o),
(937,769,o),
(937,489,c),
(983,489,l),
(983,729,o),
(1085,899,o),
(1292,899,cs),
(1477,899,o),
(1589,777,o),
(1589,556,cs),
(1589,0,l)
);
},
{
closed = 1;
nodes = (
(292,0,l),
(292,470,ls),
(292,721,o),
(409,899,o),
(611,899,cs),
(800,899,o),
(913,777,o),
(913,556,cs),
(913,0,l),
(983,0,l),
(983,556,ls),
(983,814,o),
(836,962,o),
(625,962,cs),
(456,962,o),
(344,871,o),
(288,723,c),
(279,942,l),
(218,942,l),
(218,0,l)
);
}
);
width = 1843;
},
{
anchors = (
{
name = bottom;
pos = (963,0);
},
{
name = top;
pos = (963,989);
}
);
layerId = "54E4F05E-05D2-4398-A473-3C5492C75DBF";
shapes = (
{
closed = 1;
nodes = (
(1784,0,l),
(1784,574,ls),
(1784,832,o),
(1671,1017,o),
(1420,1017,cs),
(1202,1017,o),
(1017,886,o),
(1017,415,c),
(1143,415,l),
(1143,643,o),
(1220,727,o),
(1329,727,cs),
(1403,727,o),
(1460,678,o),
(1460,574,cs),
(1460,0,l)
);
},
{
closed = 1;
nodes = (
(489,0,l),
(489,415,ls),
(489,641,o),
(581,727,o),
(691,727,cs),
(763,727,o),
(821,678,o),
(821,574,cs),
(821,0,l),
(1143,0,l),
(1143,574,ls),
(1143,832,o),
(1033,1017,o),
(779,1017,cs),
(659,1017,o),
(553,964,o),
(485,846,c),
(451,985,l),
(169,985,l),
(169,0,l)
);
}
);
width = 1926;
},
{
anchors = (
{
name = bottom;
pos = (936,0);
},
{
name = top;
pos = (936,956);
}
);
layerId = "26C860F9-3A1D-441D-9B2D-5C5CFD026C88";
shapes = (
{
closed = 1;
nodes = (
(1702,0,l),
(1702,562,ls),
(1702,820,o),
(1568,980,o),
(1342,980,cs),
(1104,980,o),
(964,808,o),
(964,464,c),
(1036,464,l),
(1036,700,o),
(1130,842,o),
(1304,842,cs),
(1452,842,o),
(1546,744,o),
(1546,562,cs),
(1546,0,l)
);
},
{
closed = 1;
nodes = (
(358,0,l),
(358,452,ls),
(358,694,o),
(466,842,o),
(638,842,cs),
(788,842,o),
(882,744,o),
(882,562,cs),
(882,0,l),
(1036,0,l),
(1036,562,ls),
(1036,820,o),
(902,980,o),
(676,980,cs),
(524,980,o),
(414,902,o),
(354,764,c),
(336,956,l),
(202,956,l),
(202,0,l)
);
}
);
width = 1870.66667;
}
);
unicode = 109;
},
{
glyphname = n;
lastChange = "2020-10-22 18:08:06 +0000";
layers = (
{
anchors = (
{
name = bottom;
pos = (584,0);
},
{
name = top;
pos = (624,960);
}
);
layerId = "CE2138A5-93BA-4A69-8B69-7D34CC27D2DF";
shapes = (
{
closed = 1;
nodes = (
(983,0,l),
(983,556,ls),
(983,814,o),
(836,962,o),
(625,962,cs),
(372,962,o),
(251,759,o),
(251,470,c),
(292,470,l),
(292,721,o),
(409,899,o),
(611,899,cs),
(800,899,o),
(913,777,o),
(913,556,cs),
(913,0,l)
);
},
{
closed = 1;
nodes = (
(292,0,l),
(292,693,l),
(279,942,l),
(218,942,l),
(218,0,l)
);
}
);
width = 1167;
},
{
anchors = (
{
name = bottom;
pos = (644,0);
},
{
name = top;
pos = (644,989);
}
);
layerId = "54E4F05E-05D2-4398-A473-3C5492C75DBF";
shapes = (
{
closed = 1;
nodes = (
(1143,0,l),
(1143,574,ls),
(1143,832,o),
(1033,1017,o),
(779,1017,cs),
(557,1017,o),
(392,839,o),
(392,415,c),
(489,415,l),
(489,641,o),
(581,727,o),
(691,727,cs),
(763,727,o),
(821,678,o),
(821,574,cs),
(821,0,l)
);
},
{
closed = 1;
nodes = (
(489,0,l),
(489,822,l),
(451,985,l),
(169,985,l),
(169,0,l)
);
}
);
width = 1287;
},
{
anchors = (
{
name = bottom;
pos = (604,0);
},
{
name = top;
pos = (631,970);
}
);
layerId = "26C860F9-3A1D-441D-9B2D-5C5CFD026C88";
shapes = (
{
closed = 1;
nodes = (
(1036,0,l),
(1036,562,ls),
(1036,820,o),
(902,980,o),
(676,980,cs),
(434,980,o),
(298,786,o),
(298,452,c),
(358,452,l),
(358,694,o),
(466,842,o),
(638,842,cs),
(788,842,o),
(882,744,o),
(882,562,cs),
(882,0,l)
);
},
{
closed = 1;
nodes = (
(358,0,l),
(358,736,l),
(336,956,l),
(202,956,l),
(202,0,l)
);
}
);
width = 1207;
}
);
unicode = 110;
},
{
glyphname = eng;
lastChange = "2020-10-22 18:08:06 +0000";
layers = (
{
layerId = "CE2138A5-93BA-4A69-8B69-7D34CC27D2DF";
shapes = (
{
closed = 1;
nodes = (
(861,-482,o),
(983,-386,o),
(983,-157,cs),
(983,546,l),
(913,546,l),
(913,-157,ls),
(913,-327,o),
(836,-418,o),
(710,-418,cs),
(622,-418,o),
(552,-383,o),
(464,-329,c),
(451,-395,l),
(543,-458,o),
(627,-482,o),
(707,-482,cs)
);
},
{
ref = n;
}
);
width = 1201;
},
{
layerId = "54E4F05E-05D2-4398-A473-3C5492C75DBF";
shapes = (
{
closed = 1;
nodes = (
(1022,-513,o),
(1144,-398,o),
(1144,-95,cs),
(1144,489,l),
(822,489,l),
(822,-89,ls),
(822,-204,o),
(782,-233,o),
(699,-233,cs),
(635,-233,o),
(553,-211,o),
(496,-188,c),
(496,-463,l),
(588,-488,o),
(672,-513,o),
(789,-513,cs)
);
},
{
alignment = -1;
ref = n;
}
);
width = 1316;
},
{
layerId = "26C860F9-3A1D-441D-9B2D-5C5CFD026C88";
shapes = (
{
closed = 1;
nodes = (
(915,-492,o),
(1037,-390,o),
(1037,-136,cs),
(1037,527,l),
(883,527,l),
(883,-134,ls),
(883,-286,o),
(818,-356,o),
(706,-356,cs),
(626,-356,o),
(552,-326,o),
(475,-282,c),
(466,-418,l),
(558,-468,o),
(642,-492,o),
(734,-492,cs)
);
},
{
alignment = -1;
ref = n;
}
);
width = 1240;
}
);
metricLeft = n;
metricRight = j;
unicode = 331;
},
{
glyphname = o;
kernLeft = o;
kernRight = o;
lastChange = "2023-04-19 12:01:26 +0000";
layers = (
{
anchors = (
{
name = bottom;
pos = (527,0);
},
{
name = center;
pos = (527,470);
},
{
name = ogonek;
pos = (570,10);
},
{
name = top;
pos = (527,940);
},
{
name = topright;
pos = (1033,940);
}
);
layerId = "CE2138A5-93BA-4A69-8B69-7D34CC27D2DF";
shapes = (
{
closed = 1;
nodes = (
(777,-20,o),
(945,158,o),
(945,472,cs),
(945,783,o),
(777,962,o),
(528,962,cs),
(278,962,o),
(110,783,o),
(110,472,cs),
(110,158,o),
(278,-20,o),
(528,-20,cs)
);
},
{
closed = 1;
nodes = (
(294,44,o),
(190,221,o),
(190,472,cs),
(190,722,o),
(292,899,o),
(527,899,cs),
(761,899,o),
(867,722,o),
(867,472,cs),
(867,221,o),
(761,44,o),
(528,44,cs)
);
}
);
width = 1053;
},
{
anchors = (
{
name = bottom;
pos = (587,0);
},
{
name = center;
pos = (587,495);
},
{
name = ogonek;
pos = (665,10);
},
{
name = top;
pos = (587,989);
},
{
name = topright;
pos = (1153,989);
}
);
layerId = "54E4F05E-05D2-4398-A473-3C5492C75DBF";
shapes = (
{
closed = 1;
nodes = (
(857,-32,o),
(1086,134,o),
(1086,490,cs),
(1086,857,o),
(857,1017,o),
(589,1017,cs),
(315,1017,o),
(86,857,o),
(86,490,cs),
(86,134,o),
(315,-32,o),
(589,-32,cs)
);
},
{
closed = 1;
nodes = (
(485,247,o),
(405,313,o),
(405,490,cs),
(405,673,o),
(508,739,o),
(601,739,cs),
(693,739,o),
(768,673,o),
(768,490,cs),
(768,313,o),
(668,247,o),
(577,247,cs)
);
}
);
width = 1173;
},
{
anchors = (
{
name = bottom;
pos = (547,0);
},
{
name = center;
pos = (547,478);
},
{
name = ogonek;
pos = (602,10);
},
{
name = top;
pos = (547,956);
},
{
name = topright;
pos = (1073,956);
}
);
layerId = "26C860F9-3A1D-441D-9B2D-5C5CFD026C88";
shapes = (
{
closed = 1;
nodes = (
(804,-24,o),
(992,150,o),
(992,478,cs),
(992,808,o),
(804,980,o),
(548,980,cs),
(290,980,o),
(102,808,o),
(102,478,cs),
(102,150,o),
(290,-24,o),
(548,-24,cs)
);
},
{
closed = 1;
nodes = (
(358,112,o),
(262,252,o),
(262,478,cs),
(262,706,o),
(364,846,o),
(552,846,cs),
(738,846,o),
(834,706,o),
(834,478,cs),
(834,252,o),
(730,112,o),
(544,112,cs)
);
}
);
width = 1093;
}
);
unicode = 111;
},
{
glyphname = oslash;
kernLeft = o;
kernRight = o;
lastChange = "2023-04-19 13:02:28 +0000";
layers = (
{
layerId = "CE2138A5-93BA-4A69-8B69-7D34CC27D2DF";
shapes = (
{
closed = 1;
nodes = (
(192,0,l),
(948,940,l),
(868,940,l),
(116,0,l)
);
},
{
ref = o;
}
);
width = 1053;
},
{
layerId = "54E4F05E-05D2-4398-A473-3C5492C75DBF";
shapes = (
{
closed = 1;
nodes = (
(291,0,l),
(1116,989,l),
(908,989,l),
(86,0,l)
);
},
{
ref = o;
}
);
width = 1173;
},
{
layerId = "26C860F9-3A1D-441D-9B2D-5C5CFD026C88";
shapes = (
{
closed = 1;
nodes = (
(230,0,l),
(1025,957,l),
(879,957,l),
(88,0,l)
);
},
{
ref = o;
}
);
width = 1093;
}
);
unicode = 248;
},
{
glyphname = p;
lastChange = "2020-10-22 18:08:06 +0000";
layers = (
{
anchors = (
{
name = bottom;
pos = (559,0);
},
{
name = top;
pos = (559,940);
}
);
layerId = "CE2138A5-93BA-4A69-8B69-7D34CC27D2DF";
shapes = (
{
closed = 1;
nodes = (
(813,-20,o),
(1005,166,o),
(1005,474,cs),
(1005,776,o),
(815,962,o),
(597,962,cs),
(393,962,o),
(247,805,o),
(247,556,c),
(292,556,l),
(292,783,o),
(445,899,o),
(597,899,cs),
(772,899,o),
(924,745,o),
(924,474,cs),
(924,201,o),
(768,44,o),
(598,44,cs),
(443,44,o),
(292,161,o),
(292,388,c),
(247,388,l),
(247,138,o),
(393,-20,o),
(599,-20,cs)
);
},
{
closed = 1;
nodes = (
(292,-466,l),
(292,734,l),
(283,942,l),
(218,942,l),
(218,-466,l)
);
}
);
width = 1117;
},
{
anchors = (
{
name = bottom;
pos = (637,0);
},
{
name = top;
pos = (637,989);
}
);
layerId = "54E4F05E-05D2-4398-A473-3C5492C75DBF";
shapes = (
{
closed = 1;
nodes = (
(960,-32,o),
(1189,160,o),
(1189,492,cs),
(1189,825,o),
(962,1017,o),
(726,1017,cs),
(547,1017,o),
(382,891,o),
(382,556,c),
(489,556,l),
(489,660,o),
(562,727,o),
(665,727,cs),
(790,727,o),
(869,634,o),
(869,492,cs),
(869,324,o),
(750,260,o),
(659,260,cs),
(566,260,o),
(489,314,o),
(489,394,c),
(382,394,l),
(382,95,o),
(492,-32,o),
(710,-32,cs)
);
},
{
closed = 1;
nodes = (
(489,-478,l),
(489,728,l),
(430,985,l),
(169,985,l),
(169,-478,l)
);
}
);
width = 1274;
},
{
anchors = (
{
name = bottom;
pos = (585,0);
},
{
name = top;
pos = (585,956);
}
);
layerId = "26C860F9-3A1D-441D-9B2D-5C5CFD026C88";
shapes = (
{
closed = 1;
nodes = (
(862,-24,o),
(1066,164,o),
(1066,480,cs),
(1066,792,o),
(864,980,o),
(640,980,cs),
(444,980,o),
(292,834,o),
(292,556,c),
(358,556,l),
(358,742,o),
(484,842,o),
(620,842,cs),
(778,842,o),
(906,708,o),
(906,480,cs),
(906,242,o),
(762,116,o),
(618,116,cs),
(484,116,o),
(358,212,o),
(358,390,c),
(292,390,l),
(292,124,o),
(426,-24,o),
(636,-24,cs)
);
},
{
closed = 1;
nodes = (
(358,-470,l),
(358,732,l),
(332,956,l),
(202,956,l),
(202,-470,l)
);
}
);
width = 1169.33333;
}
);
unicode = 112;
},
{
glyphname = thorn;
lastChange = "2020-10-22 18:08:06 +0000";
layers = (
{
layerId = "CE2138A5-93BA-4A69-8B69-7D34CC27D2DF";
shapes = (
{
closed = 1;
nodes = (
(813,-20,o),
(1005,166,o),
(1005,474,cs),
(1005,776,o),
(815,962,o),
(597,962,cs),
(393,962,o),
(247,805,o),
(247,556,c),
(292,556,l),
(292,783,o),
(445,899,o),
(597,899,cs),
(772,899,o),
(924,745,o),
(924,474,cs),
(924,201,o),
(768,44,o),
(598,44,cs),
(443,44,o),
(292,161,o),
(292,388,c),
(247,388,l),
(247,138,o),
(393,-20,o),
(599,-20,cs)
);
},
{
closed = 1;
nodes = (
(292,-466,l),
(292,1213,l),
(218,1213,l),
(218,-466,l)
);
}
);
width = 1200;
},
{
layerId = "54E4F05E-05D2-4398-A473-3C5492C75DBF";
shapes = (
{
closed = 1;
nodes = (
(960,-32,o),
(1189,160,o),
(1189,492,cs),
(1189,825,o),
(962,1017,o),
(726,1017,cs),
(547,1017,o),
(382,891,o),
(382,556,c),
(489,556,l),
(489,660,o),
(562,727,o),
(665,727,cs),
(790,727,o),
(869,634,o),
(869,492,cs),
(869,324,o),
(750,260,o),
(659,260,cs),
(566,260,o),
(489,314,o),
(489,394,c),
(382,394,l),
(382,95,o),
(492,-32,o),
(710,-32,cs)
);
},
{
closed = 1;
nodes = (
(489,-478,l),
(489,1342,l),
(169,1342,l),
(169,-478,l)
);
}
);
width = 1200;
},
{
layerId = "26C860F9-3A1D-441D-9B2D-5C5CFD026C88";
shapes = (
{
closed = 1;
nodes = (
(862,-24,o),
(1066,164,o),
(1066,480,cs),
(1066,792,o),
(864,980,o),
(640,980,cs),
(444,980,o),
(292,834,o),
(292,556,c),
(358,556,l),
(358,742,o),
(484,842,o),
(620,842,cs),
(778,842,o),
(906,708,o),
(906,480,cs),
(906,242,o),
(762,116,o),
(618,116,cs),
(484,116,o),
(358,212,o),
(358,390,c),
(292,390,l),
(292,124,o),
(426,-24,o),
(636,-24,cs)
);
},
{
closed = 1;
nodes = (
(358,-470,l),
(358,1256,l),
(202,1256,l),
(202,-470,l)
);
}
);
width = 1200;
}
);
unicode = 254;
},
{
glyphname = q;
lastChange = "2020-10-22 18:08:06 +0000";
layers = (
{
anchors = (
{
name = bottom;
pos = (559,0);
},
{
name = top;
pos = (559,940);
}
);
layerId = "CE2138A5-93BA-4A69-8B69-7D34CC27D2DF";
shapes = (
{
closed = 1;
nodes = (
(722,-20,o),
(870,140,o),
(870,388,c),
(824,388,l),
(824,157,o),
(672,44,o),
(517,44,cs),
(345,44,o),
(190,201,o),
(190,474,cs),
(190,745,o),
(347,899,o),
(517,899,cs),
(670,899,o),
(824,783,o),
(824,556,c),
(872,556,l),
(872,805,o),
(724,962,o),
(520,962,cs),
(304,962,o),
(110,776,o),
(110,474,cs),
(110,166,o),
(302,-20,o),
(520,-20,cs)
);
},
{
closed = 1;
nodes = (
(1053,-415,l),
(930,-371,o),
(894,-329,o),
(894,-174,cs),
(894,942,l),
(835,942,l),
(824,734,l),
(824,-173,ls),
(824,-350,o),
(872,-436,o),
(1017,-482,c)
);
}
);
width = 1117;
},
{
anchors = (
{
name = bottom;
pos = (637,0);
},
{
name = top;
pos = (637,989);
}
);
layerId = "54E4F05E-05D2-4398-A473-3C5492C75DBF";
shapes = (
{
closed = 1;
nodes = (
(783,-32,o),
(827,146,o),
(827,394,c),
(781,394,l),
(781,317,o),
(703,260,o),
(616,260,cs),
(523,260,o),
(405,324,o),
(405,492,cs),
(405,634,o),
(482,727,o),
(610,727,cs),
(713,727,o),
(781,660,o),
(781,556,c),
(890,556,l),
(890,891,o),
(724,1017,o),
(544,1017,cs),
(310,1017,o),
(86,825,o),
(86,492,cs),
(86,160,o),
(314,-32,o),
(563,-32,cs)
);
},
{
closed = 1;
nodes = (
(1225,-286,l),
(1133,-260,o),
(1103,-237,o),
(1103,-137,cs),
(1103,985,l),
(903,985,l),
(781,728,l),
(781,-111,ls),
(781,-332,o),
(884,-454,o),
(1140,-513,c)
);
}
);
width = 1274;
},
{
anchors = (
{
name = bottom;
pos = (585,0);
},
{
name = top;
pos = (585,956);
}
);
layerId = "26C860F9-3A1D-441D-9B2D-5C5CFD026C88";
shapes = (
{
closed = 1;
nodes = (
(742,-24,o),
(856,142,o),
(856,390,c),
(810,390,l),
(810,210,o),
(682,116,o),
(550,116,cs),
(404,116,o),
(262,242,o),
(262,480,cs),
(262,708,o),
(392,842,o),
(548,842,cs),
(684,842,o),
(810,742,o),
(810,556,c),
(878,556,l),
(878,834,o),
(724,980,o),
(528,980,cs),
(306,980,o),
(102,792,o),
(102,480,cs),
(102,164,o),
(306,-24,o),
(534,-24,cs)
);
},
{
closed = 1;
nodes = (
(1110,-372,l),
(998,-334,o),
(964,-298,o),
(964,-162,cs),
(964,956,l),
(858,956,l),
(810,732,l),
(810,-152,ls),
(810,-344,o),
(876,-442,o),
(1058,-492,c)
);
}
);
width = 1169.33333;
}
);
unicode = 113;
},
{
glyphname = r;
kernLeft = r;
kernRight = r;
lastChange = "2023-04-19 12:02:54 +0000";
layers = (
{
anchors = (
{
name = bottom;
pos = (430,10);
},
{
name = top;
pos = (450,940);
}
);
layerId = "CE2138A5-93BA-4A69-8B69-7D34CC27D2DF";
shapes = (
{
closed = 1;
nodes = (
(292,0,l),
(292,942,l),
(218,942,l),
(218,0,l)
);
},
{
closed = 1;
nodes = (
(292,438,l),
(292,701,o),
(344,896,o),
(528,896,cs),
(564,896,o),
(619,882,o),
(659,866,c),
(675,936,l),
(631,952,o),
(590,960,o),
(538,960,cs),
(328,960,o),
(255,784,o),
(255,438,c)
);
}
);
width = 659;
},
{
anchors = (
{
name = bottom;
pos = (555,0);
},
{
name = top;
pos = (495,989);
}
);
layerId = "54E4F05E-05D2-4398-A473-3C5492C75DBF";
shapes = (
{
closed = 1;
nodes = (
(489,0,l),
(489,991,l),
(169,991,l),
(169,0,l)
);
},
{
closed = 1;
nodes = (
(489,420,l),
(489,609,o),
(584,681,o),
(725,681,cs),
(755,681,o),
(791,679,o),
(825,675,c),
(822,997,l),
(803,1001,o),
(781,1003,o),
(760,1003,cs),
(598,1003,o),
(421,821,o),
(421,420,c)
);
}
);
width = 850;
},
{
anchors = (
{
name = bottom;
pos = (472,7);
},
{
name = top;
pos = (465,956);
}
);
layerId = "26C860F9-3A1D-441D-9B2D-5C5CFD026C88";
shapes = (
{
closed = 1;
nodes = (
(358,0,l),
(358,958,l),
(202,958,l),
(202,0,l)
);
},
{
closed = 1;
nodes = (
(358,432,l),
(358,670,o),
(424,824,o),
(594,824,cs),
(628,824,o),
(676,814,o),
(714,802,c),
(724,956,l),
(688,968,o),
(654,974,o),
(612,974,cs),
(418,974,o),
(310,796,o),
(310,432,c)
);
}
);
width = 722.66667;
}
);
unicode = 114;
},
{
glyphname = s;
kernLeft = s;
kernRight = s;
lastChange = "2023-04-19 12:02:45 +0000";
layers = (
{
anchors = (
{
name = bottom;
pos = (537,0);
},
{
name = top;
pos = (524,940);
}
);
layerId = "CE2138A5-93BA-4A69-8B69-7D34CC27D2DF";
shapes = (
{
closed = 1;
nodes = (
(774,-20,o),
(903,106,o),
(903,240,cs),
(903,366,o),
(809,442,o),
(631,490,cs),
(482,531,ls),
(331,571,o),
(259,632,o),
(259,720,cs),
(259,806,o),
(351,899,o),
(512,899,cs),
(670,899,o),
(765,851,o),
(783,746,c),
(867,746,l),
(859,868,o),
(731,962,o),
(512,962,cs),
(318,962,o),
(183,868,o),
(183,724,cs),
(183,600,o),
(275,510,o),
(447,464,cs),
(606,421,ls),
(761,382,o),
(828,334,o),
(828,240,cs),
(828,127,o),
(691,45,o),
(544,45,cs),
(351,45,o),
(235,123,o),
(227,272,c),
(147,272,l),
(157,116,o),
(268,-20,o),
(544,-20,cs)
);
}
);
width = 1047;
},
{
anchors = (
{
name = bottom;
pos = (532,2);
},
{
name = top;
pos = (530,989);
}
);
layerId = "54E4F05E-05D2-4398-A473-3C5492C75DBF";
shapes = (
{
closed = 1;
nodes = (
(798,-32,o),
(983,124,o),
(983,289,cs),
(983,409,o),
(901,485,o),
(766,539,cs),
(494,648,l),
(448,664,o),
(431,681,o),
(431,708,cs),
(431,745,o),
(474,770,o),
(543,770,cs),
(627,770,o),
(660,734,o),
(660,691,c),
(953,691,l),
(951,880,o),
(805,1017,o),
(543,1017,cs),
(263,1017,o),
(91,899,o),
(91,724,cs),
(91,600,o),
(170,510,o),
(312,452,cs),
(551,359,ls),
(601,339,o),
(625,322,o),
(625,289,cs),
(625,250,o),
(586,217,o),
(507,217,cs),
(419,217,o),
(364,240,o),
(362,309,c),
(73,309,l),
(71,79,o),
(268,-32,o),
(550,-32,cs)
);
}
);
width = 1059;
},
{
anchors = (
{
name = bottom;
pos = (535,1);
},
{
name = top;
pos = (526,956);
}
);
layerId = "26C860F9-3A1D-441D-9B2D-5C5CFD026C88";
shapes = (
{
closed = 1;
nodes = (
(782,-24,o),
(930,112,o),
(930,256,cs),
(930,380,o),
(840,456,o),
(676,506,cs),
(486,570,l),
(370,602,o),
(316,648,o),
(316,716,cs),
(316,786,o),
(392,856,o),
(522,856,cs),
(656,856,o),
(730,812,o),
(742,728,c),
(896,728,l),
(890,872,o),
(756,980,o),
(522,980,cs),
(300,980,o),
(152,878,o),
(152,724,cs),
(152,600,o),
(240,510,o),
(402,460,cs),
(588,400,l),
(708,368,o),
(760,330,o),
(760,256,cs),
(760,168,o),
(656,102,o),
(532,102,cs),
(374,102,o),
(278,162,o),
(272,284,c),
(122,284,l),
(128,104,o),
(268,-24,o),
(546,-24,cs)
);
}
);
width = 1051;
}
);
unicode = 115;
},
{
glyphname = germandbls;
lastChange = "2020-10-22 18:08:06 +0000";
layers = (
{
layerId = "CE2138A5-93BA-4A69-8B69-7D34CC27D2DF";
shapes = (
{
closed = 1;
nodes = (
(887,1210,o),
(797,1348,o),
(571,1348,cs),
(325,1348,o),
(218,1184,o),
(218,940,cs),
(218,0,l),
(290,0,l),
(290,940,ls),
(290,1190,o),
(391,1287,o),
(560,1287,cs),
(734,1287,o),
(813,1185,o),
(813,1075,cs),
(813,897,o),
(607,859,o),
(607,712,cs),
(607,525,o),
(938,495,o),
(938,254,cs),
(938,148,o),
(874,38,o),
(724,38,cs),
(647,38,o),
(542,67,o),
(475,121,c),
(470,42,l),
(545,4,o),
(657,-22,o),
(732,-22,cs),
(899,-22,o),
(1012,107,o),
(1012,271,cs),
(1012,552,o),
(680,573,o),
(680,718,cs),
(680,833,o),
(887,872,o),
(887,1076,cs)
);
}
);
width = 1156;
},
{
layerId = "54E4F05E-05D2-4398-A473-3C5492C75DBF";
shapes = (
{
closed = 1;
nodes = (
(1129,1284,o),
(940,1400,o),
(677,1400,cs),
(373,1400,o),
(169,1244,o),
(169,898,cs),
(169,0,l),
(495,0,l),
(495,890,ls),
(495,1066,o),
(524,1148,o),
(666,1148,cs),
(758,1148,o),
(841,1113,o),
(841,1020,cs),
(841,883,o),
(664,839,o),
(664,696,cs),
(664,518,o),
(937,501,o),
(937,301,cs),
(937,235,o),
(907,198,o),
(817,198,cs),
(750,198,o),
(703,219,o),
(616,272,c),
(616,26,l),
(693,-11,o),
(787,-28,o),
(863,-28,cs),
(1072,-28,o),
(1295,102,o),
(1295,331,cs),
(1295,605,o),
(979,636,o),
(979,751,cs),
(979,831,o),
(1129,888,o),
(1129,1075,cs)
);
}
);
width = 1371;
},
{
layerId = "26C860F9-3A1D-441D-9B2D-5C5CFD026C88";
shapes = (
{
closed = 1;
nodes = (
(968,1235,o),
(845,1365,o),
(606,1365,cs),
(341,1365,o),
(202,1204,o),
(202,926,cs),
(202,0,l),
(358,0,l),
(358,923,ls),
(358,1149,o),
(435,1241,o),
(595,1241,cs),
(742,1241,o),
(822,1161,o),
(822,1057,cs),
(822,892,o),
(626,852,o),
(626,707,cs),
(626,523,o),
(938,497,o),
(938,270,cs),
(938,177,o),
(885,91,o),
(755,91,cs),
(681,91,o),
(596,118,o),
(522,171,c),
(519,37,l),
(594,-1,o),
(700,-24,o),
(776,-24,cs),
(957,-24,o),
(1106,105,o),
(1106,291,cs),
(1106,570,o),
(780,594,o),
(780,729,cs),
(780,832,o),
(968,877,o),
(968,1076,cs)
);
}
);
width = 1227;
}
);
metricLeft = l;
metricRight = s;
unicode = 223;
},
{
glyphname = t;
lastChange = "2023-04-19 11:54:40 +0000";
layers = (
{
anchors = (
{
name = bottom;
pos = (434,0);
},
{
name = center;
pos = (357,470);
},
{
name = top;
pos = (347,1120);
},
{
name = topright;
pos = (607,1395);
}
);
layerId = "CE2138A5-93BA-4A69-8B69-7D34CC27D2DF";
shapes = (
{
closed = 1;
nodes = (
(543,-20,o),
(607,-2,o),
(669,28,c),
(660,85,l),
(591,59,o),
(539,45,o),
(477,45,cs),
(371,45,o),
(315,101,o),
(315,221,cs),
(315,1216,l),
(245,1216,l),
(245,221,ls),
(245,66,o),
(338,-20,o),
(478,-20,cs)
);
},
{
closed = 1;
nodes = (
(655,883,l),
(655,942,l),
(72,942,l),
(72,883,l)
);
}
);
width = 714;
},
{
anchors = (
{
name = bottom;
pos = (454,10);
},
{
name = center;
pos = (414,495);
},
{
name = top;
pos = (414,1189);
},
{
name = topright;
pos = (729,1488);
}
);
layerId = "54E4F05E-05D2-4398-A473-3C5492C75DBF";
shapes = (
{
closed = 1;
nodes = (
(617,-32,o),
(687,-8,o),
(768,22,c),
(721,245,l),
(665,225,o),
(625,217,o),
(588,217,cs),
(531,217,o),
(499,248,o),
(499,307,cs),
(499,1234,l),
(177,1234,l),
(177,295,ls),
(177,66,o),
(344,-32,o),
(533,-32,cs)
);
},
{
closed = 1;
nodes = (
(723,778,l),
(723,985,l),
(60,985,l),
(60,778,l)
);
}
);
width = 828;
},
{
anchors = (
{
name = bottom;
pos = (441,3);
},
{
name = center;
pos = (376,478);
},
{
name = top;
pos = (369,1143);
},
{
name = topright;
pos = (623,1418);
}
);
layerId = "26C860F9-3A1D-441D-9B2D-5C5CFD026C88";
shapes = (
{
closed = 1;
nodes = (
(568,-24,o),
(634,-4,o),
(702,26,c),
(680,138,l),
(616,114,o),
(568,102,o),
(514,102,cs),
(424,102,o),
(376,150,o),
(376,250,cs),
(376,1222,l),
(222,1222,l),
(222,246,ls),
(222,66,o),
(340,-24,o),
(496,-24,cs)
);
},
{
closed = 1;
nodes = (
(678,848,l),
(678,956,l),
(68,956,l),
(68,848,l)
);
}
);
width = 752;
}
);
unicode = 116;
},
{
glyphname = tbar;
lastChange = "2023-04-19 09:34:38 +0000";
layers = (
{
layerId = "CE2138A5-93BA-4A69-8B69-7D34CC27D2DF";
shapes = (
{
closed = 1;
nodes = (
(615,591,l),
(615,650,l),
(90,650,l),
(90,591,l)
);
},
{
ref = t;
}
);
width = 714;
},
{
layerId = "54E4F05E-05D2-4398-A473-3C5492C75DBF";
shapes = (
{
closed = 1;
nodes = (
(709,454,l),
(709,668,l),
(69,668,l),
(69,454,l)
);
},
{
ref = t;
}
);
width = 828;
},
{
layerId = "26C860F9-3A1D-441D-9B2D-5C5CFD026C88";
shapes = (
{
closed = 1;
nodes = (
(644,544,l),
(644,661,l),
(82,661,l),
(82,544,l)
);
},
{
alignment = -1;
ref = t;
}
);
width = 752;
}
);
metricLeft = t;
metricRight = t;
unicode = 359;
},
{
glyphname = u;
kernLeft = u;
kernRight = u;
lastChange = "2023-04-19 12:04:15 +0000";
layers = (
{
anchors = (
{
name = bottom;
pos = (584,0);
},
{
name = ogonek;
pos = (908,10);
},
{
name = top;
pos = (604,940);
},
{
name = topright;
pos = (1147,940);
}
);
layerId = "CE2138A5-93BA-4A69-8B69-7D34CC27D2DF";
shapes = (
{
closed = 1;
nodes = (
(873,0,l),
(947,0,l),
(947,942,l),
(873,942,l)
);
},
{
closed = 1;
nodes = (
(182,346,ls),
(182,114,o),
(308,-18,o),
(532,-18,cs),
(776,-18,o),
(924,186,o),
(924,474,c),
(873,474,l),
(873,249,o),
(754,46,o),
(533,46,cs),
(351,46,o),
(256,151,o),
(256,346,cs),
(256,942,l),
(182,942,l)
);
}
);
width = 1167;
},
{
anchors = (
{
name = bottom;
pos = (650,0);
},
{
name = ogonek;
pos = (1049,10);
},
{
name = top;
pos = (663,989);
},
{
name = topright;
pos = (1279,989);
}
);
layerId = "54E4F05E-05D2-4398-A473-3C5492C75DBF";
shapes = (
{
closed = 1;
nodes = (
(811,0,l),
(1131,0,l),
(1131,991,l),
(811,991,l)
);
},
{
closed = 1;
nodes = (
(158,358,ls),
(158,71,o),
(339,-18,o),
(538,-18,cs),
(733,-18,o),
(881,137,o),
(881,529,c),
(811,529,l),
(811,323,o),
(699,262,o),
(601,262,cs),
(529,262,o),
(478,304,o),
(478,395,cs),
(478,991,l),
(158,991,l)
);
}
);
width = 1299;
},
{
anchors = (
{
name = bottom;
pos = (606,0);
},
{
name = ogonek;
pos = (955,10);
},
{
name = top;
pos = (624,956);
},
{
name = topright;
pos = (1191,956);
}
);
layerId = "26C860F9-3A1D-441D-9B2D-5C5CFD026C88";
shapes = (
{
closed = 1;
nodes = (
(852,0,l),
(1008,0,l),
(1008,958,l),
(852,958,l)
);
},
{
closed = 1;
nodes = (
(174,350,ls),
(174,100,o),
(318,-18,o),
(534,-18,cs),
(762,-18,o),
(910,170,o),
(910,492,c),
(852,492,l),
(852,274,o),
(736,118,o),
(556,118,cs),
(410,118,o),
(330,202,o),
(330,362,cs),
(330,958,l),
(174,958,l)
);
}
);
width = 1211;
}
);
unicode = 117;
},
{
glyphname = v;
lastChange = "2020-10-22 18:08:06 +0000";
layers = (
{
anchors = (
{
name = bottom;
pos = (486,0);
},
{
name = top;
pos = (486,940);
}
);
layerId = "CE2138A5-93BA-4A69-8B69-7D34CC27D2DF";
shapes = (
{
closed = 1;
nodes = (
(451,0,l),
(522,0,l),
(925,942,l),
(843,942,l),
(474,64,l),
(500,64,l),
(130,942,l),
(48,942,l)
);
}
);
width = 971;
},
{
anchors = (
{
name = bottom;
pos = (537,0);
},
{
name = top;
pos = (537,989);
}
);
layerId = "54E4F05E-05D2-4398-A473-3C5492C75DBF";
shapes = (
{
closed = 1;
nodes = (
(352,0,l),
(719,0,l),
(1060,985,l),
(690,985,l),
(529,273,l),
(543,273,l),
(382,985,l),
(11,985,l)
);
}
);
width = 1073;
},
{
anchors = (
{
name = bottom;
pos = (503,0);
},
{
name = top;
pos = (503,956);
}
);
layerId = "26C860F9-3A1D-441D-9B2D-5C5CFD026C88";
shapes = (
{
closed = 1;
nodes = (
(418,0,l),
(588,0,l),
(970,956,l),
(792,956,l),
(492,134,l),
(514,134,l),
(214,956,l),
(36,956,l)
);
}
);
width = 1005;
}
);
unicode = 118;
},
{
glyphname = w;
kernLeft = w;
kernRight = w;
lastChange = "2023-04-19 12:02:22 +0000";
layers = (
{
anchors = (
{
name = bottom;
pos = (690,0);
},
{
name = top;
pos = (690,940);
}
);
layerId = "CE2138A5-93BA-4A69-8B69-7D34CC27D2DF";
shapes = (
{
closed = 1;
nodes = (
(358,0,l),
(426,0,l),
(693,770,l),
(681,770,l),
(948,0,l),
(1018,0,l),
(1326,942,l),
(1252,942,l),
(973,78,l),
(985,78,l),
(710,902,l),
(666,902,l),
(387,80,l),
(403,80,l),
(124,942,l),
(48,942,l)
);
}
);
width = 1380;
},
{
anchors = (
{
name = bottom;
pos = (793,0);
},
{
name = top;
pos = (793,989);
}
);
layerId = "54E4F05E-05D2-4398-A473-3C5492C75DBF";
shapes = (
{
closed = 1;
nodes = (
(340,0,l),
(660,0,l),
(816,579,l),
(767,579,l),
(930,0,l),
(1246,0,l),
(1572,985,l),
(1252,985,l),
(1078,312,l),
(1108,312,l),
(950,926,l),
(648,926,l),
(492,314,l),
(520,314,l),
(346,985,l),
(11,985,l)
);
}
);
width = 1586;
},
{
anchors = (
{
name = bottom;
pos = (724,0);
},
{
name = top;
pos = (724,956);
}
);
layerId = "26C860F9-3A1D-441D-9B2D-5C5CFD026C88";
shapes = (
{
closed = 1;
nodes = (
(352,0,l),
(504,0,l),
(734,706,l),
(710,706,l),
(942,0,l),
(1094,0,l),
(1408,956,l),
(1252,956,l),
(1008,156,l),
(1026,156,l),
(790,910,l),
(660,910,l),
(422,158,l),
(442,158,l),
(198,956,l),
(36,956,l)
);
}
);
width = 1448.66667;
}
);
unicode = 119;
},
{
glyphname = x;
lastChange = "2020-10-22 18:08:06 +0000";
layers = (
{
anchors = (
{
name = bottom;
pos = (469,0);
},
{
name = top;
pos = (469,940);
}
);
layerId = "CE2138A5-93BA-4A69-8B69-7D34CC27D2DF";
shapes = (
{
closed = 1;
nodes = (
(160,0,l),
(463,417,l),
(770,0,l),
(859,0,l),
(512,472,l),
(863,942,l),
(774,942,l),
(471,528,l),
(160,942,l),
(73,942,l),
(418,472,l),
(73,0,l)
);
}
);
width = 937;
},
{
anchors = (
{
name = bottom;
pos = (598,0);
},
{
name = top;
pos = (598,989);
}
);
layerId = "54E4F05E-05D2-4398-A473-3C5492C75DBF";
shapes = (
{
closed = 1;
nodes = (
(406,0,l),
(586,257,l),
(794,0,l),
(1185,0,l),
(795,490,l),
(1183,991,l),
(792,991,l),
(606,731,l),
(406,991,l),
(11,991,l),
(406,490,l),
(11,0,l)
);
}
);
width = 1195;
},
{
anchors = (
{
name = bottom;
pos = (512,0);
},
{
name = top;
pos = (512,956);
}
);
layerId = "26C860F9-3A1D-441D-9B2D-5C5CFD026C88";
shapes = (
{
closed = 1;
nodes = (
(242,0,l),
(504,364,l),
(778,0,l),
(968,0,l),
(606,478,l),
(970,958,l),
(780,958,l),
(516,596,l),
(242,958,l),
(52,958,l),
(414,478,l),
(52,0,l)
);
}
);
width = 1023;
}
);
unicode = 120;
},
{
glyphname = y;
lastChange = "2020-10-22 18:08:06 +0000";
layers = (
{
anchors = (
{
name = bottom;
pos = (427,0);
},
{
name = top;
pos = (427,940);
}
);
layerId = "CE2138A5-93BA-4A69-8B69-7D34CC27D2DF";
shapes = (
{
closed = 1;
nodes = (
(444,0,l),
(418,-98,ls),
(378,-238,o),
(324,-418,o),
(178,-418,cs),
(104,-418,o),
(44,-393,o),
(-24,-327,c),
(-24,-406,l),
(45,-454,o),
(103,-482,o),
(179,-482,cs),
(331,-482,o),
(415,-361,o),
(458,-208,cs),
(806,942,l),
(728,942,l),
(465,64,l),
(495,64,l),
(128,942,l),
(50,942,l)
);
}
);
width = 853;
},
{
anchors = (
{
name = bottom;
pos = (544,0);
},
{
name = top;
pos = (544,989);
}
);
layerId = "54E4F05E-05D2-4398-A473-3C5492C75DBF";
shapes = (
{
closed = 1;
nodes = (
(420,0,l),
(388,-92,ls),
(354,-201,o),
(294,-233,o),
(227,-233,cs),
(159,-233,o),
(87,-215,o),
(13,-180,c),
(13,-455,l),
(113,-497,o),
(214,-513,o),
(314,-513,cs),
(478,-513,o),
(599,-429,o),
(692,-159,cs),
(1076,985,l),
(752,985,l),
(551,280,l),
(600,280,l),
(398,985,l),
(32,985,l)
);
}
);
width = 1087;
},
{
anchors = (
{
name = bottom;
pos = (466,0);
},
{
name = top;
pos = (466,956);
}
);
layerId = "26C860F9-3A1D-441D-9B2D-5C5CFD026C88";
shapes = (
{
closed = 1;
nodes = (
(436,0,l),
(408,-96,ls),
(370,-226,o),
(314,-356,o),
(194,-356,cs),
(122,-356,o),
(58,-334,o),
(-12,-278,c),
(-12,-422,l),
(68,-468,o),
(140,-492,o),
(224,-492,cs),
(380,-492,o),
(476,-384,o),
(536,-192,cs),
(896,956,l),
(736,956,l),
(494,136,l),
(530,136,l),
(218,956,l),
(44,956,l)
);
}
);
width = 931;
}
);
unicode = 121;
},
{
glyphname = z;
lastChange = "2020-10-22 18:08:06 +0000";
layers = (
{
anchors = (
{
name = bottom;
pos = (454,0);
},
{
name = center;
pos = (454,470);
},
{
name = top;
pos = (454,940);
}
);
layerId = "CE2138A5-93BA-4A69-8B69-7D34CC27D2DF";
shapes = (
{
closed = 1;
nodes = (
(813,0,l),
(813,58,l),
(188,58,l),
(813,881,l),
(813,942,l),
(98,942,l),
(98,881,l),
(723,881,l),
(98,58,l),
(98,0,l)
);
}
);
width = 907;
},
{
anchors = (
{
name = bottom;
pos = (517,0);
},
{
name = center;
pos = (517,495);
},
{
name = top;
pos = (517,989);
}
);
layerId = "54E4F05E-05D2-4398-A473-3C5492C75DBF";
shapes = (
{
closed = 1;
nodes = (
(912,0,l),
(912,261,l),
(495,261,l),
(912,727,l),
(912,985,l),
(122,985,l),
(122,727,l),
(563,727,l),
(122,261,l),
(122,0,l)
);
}
);
width = 1033;
},
{
anchors = (
{
name = bottom;
pos = (475,0);
},
{
name = center;
pos = (475,478);
},
{
name = top;
pos = (475,956);
}
);
layerId = "26C860F9-3A1D-441D-9B2D-5C5CFD026C88";
shapes = (
{
closed = 1;
nodes = (
(846,0,l),
(846,126,l),
(290,126,l),
(846,830,l),
(846,956,l),
(106,956,l),
(106,830,l),
(670,830,l),
(106,126,l),
(106,0,l)
);
}
);
width = 949;
}
);
unicode = 122;
},
{
glyphname = Delta;
lastChange = "2020-10-22 18:08:06 +0000";
layers = (
{
layerId = "CE2138A5-93BA-4A69-8B69-7D34CC27D2DF";
shapes = (
{
closed = 1;
nodes = (
(136,0,l),
(521,1117,l),
(905,0,l),
(983,0,l),
(563,1213,l),
(482,1213,l),
(60,0,l)
);
},
{
closed = 1;
nodes = (
(942,0,l),
(942,61,l),
(122,61,l),
(122,0,l)
);
}
);
width = 1044;
},
{
layerId = "54E4F05E-05D2-4398-A473-3C5492C75DBF";
shapes = (
{
closed = 1;
nodes = (
(376,0,l),
(687,964,l),
(985,0,l),
(1322,0,l),
(895,1342,l),
(488,1342,l),
(36,0,l)
);
},
{
closed = 1;
nodes = (
(1101,0,l),
(1101,282,l),
(204,282,l),
(204,0,l)
);
}
);
width = 1358;
},
{
layerId = "26C860F9-3A1D-441D-9B2D-5C5CFD026C88";
shapes = (
{
closed = 1;
nodes = (
(216,0,l),
(576,1066,l),
(932,0,l),
(1096,0,l),
(674,1256,l),
(484,1256,l),
(52,0,l)
);
},
{
closed = 1;
nodes = (
(995,0,l),
(995,135,l),
(149,135,l),
(149,0,l)
);
}
);
width = 1148.66667;
}
);
metricLeft = A;
metricRight = A;
unicode = 916;
},
{
glyphname = Omega;
lastChange = "2020-10-22 18:08:06 +0000";
layers = (
{
layerId = "CE2138A5-93BA-4A69-8B69-7D34CC27D2DF";
shapes = (
{
closed = 1;
nodes = (
(510,65,l),
(348,65,o),
(188,259,o),
(188,601,cs),
(188,966,o),
(348,1165,o),
(609,1165,cs),
(870,1165,o),
(1028,966,o),
(1028,603,cs),
(1028,259,o),
(870,65,o),
(706,65,c),
(706,11,l),
(884,11,o),
(1106,202,o),
(1106,601,cs),
(1106,1027,o),
(884,1231,o),
(609,1231,cs),
(332,1231,o),
(110,1025,o),
(110,601,cs),
(110,204,o),
(332,11,o),
(510,11,c)
);
},
{
closed = 1;
nodes = (
(510,-1,l),
(510,65,l),
(110,65,l),
(110,-1,l)
);
},
{
closed = 1;
nodes = (
(1106,-1,l),
(1106,65,l),
(706,65,l),
(706,-1,l)
);
}
);
width = 1215;
},
{
layerId = "54E4F05E-05D2-4398-A473-3C5492C75DBF";
shapes = (
{
closed = 1;
nodes = (
(619,201,l),
(539,201,o),
(416,389,o),
(416,675,cs),
(416,929,o),
(539,1085,o),
(720,1085,cs),
(907,1085,o),
(1028,929,o),
(1028,677,cs),
(1028,389,o),
(907,201,o),
(821,201,c),
(821,64,l),
(1106,64,o),
(1358,264,o),
(1358,675,cs),
(1358,1132,o),
(1106,1372,o),
(720,1372,cs),
(338,1372,o),
(86,1148,o),
(86,675,cs),
(86,273,o),
(338,64,o),
(619,64,c)
);
},
{
closed = 1;
nodes = (
(619,0,l),
(619,201,l),
(86,201,l),
(86,0,l)
);
},
{
closed = 1;
nodes = (
(1354,0,l),
(1354,201,l),
(821,201,l),
(821,0,l)
);
}
);
width = 1443;
},
{
layerId = "26C860F9-3A1D-441D-9B2D-5C5CFD026C88";
shapes = (
{
closed = 1;
nodes = (
(546,110,l),
(412,110,o),
(264,302,o),
(264,626,cs),
(264,954,o),
(412,1138,o),
(646,1138,cs),
(882,1138,o),
(1028,954,o),
(1028,628,cs),
(1028,302,o),
(882,110,o),
(744,110,c),
(744,29,l),
(958,29,o),
(1190,223,o),
(1190,626,cs),
(1190,1062,o),
(958,1278,o),
(646,1278,cs),
(334,1278,o),
(102,1066,o),
(102,626,cs),
(102,227,o),
(334,29,o),
(546,29,c)
);
},
{
closed = 1;
nodes = (
(546,-1,l),
(546,110,l),
(102,110,l),
(102,-1,l)
);
},
{
closed = 1;
nodes = (
(1189,-1,l),
(1189,110,l),
(744,110,l),
(744,-1,l)
);
}
);
width = 1291;
}
);
metricLeft = O;
metricRight = O;
unicode = 937;
},
{
glyphname = pi;
lastChange = "2020-10-22 18:08:06 +0000";
layers = (
{
layerId = "CE2138A5-93BA-4A69-8B69-7D34CC27D2DF";
shapes = (
{
closed = 1;
nodes = (
(1094,43,l),
(945,43,o),
(832,125,o),
(832,346,cs),
(832,942,l),
(762,942,l),
(762,346,ls),
(762,88,o),
(909,-20,o),
(1080,-20,c)
);
},
{
closed = 1;
nodes = (
(422,0,l),
(422,942,l),
(348,942,l),
(348,0,l)
);
},
{
closed = 1;
nodes = (
(1154,881,l),
(1154,942,l),
(70,942,l),
(70,881,l)
);
}
);
width = 1200;
},
{
layerId = "54E4F05E-05D2-4398-A473-3C5492C75DBF";
shapes = (
{
closed = 1;
nodes = (
(1193,290,l),
(1121,290,o),
(1063,339,o),
(1063,443,cs),
(1063,987,l),
(741,987,l),
(741,443,ls),
(741,185,o),
(851,0,o),
(1105,0,c)
);
},
{
closed = 1;
nodes = (
(549,0,l),
(549,985,l),
(229,985,l),
(229,0,l)
);
},
{
closed = 1;
nodes = (
(1265,707,l),
(1265,989,l),
(30,989,l),
(30,707,l)
);
}
);
width = 1287;
},
{
layerId = "26C860F9-3A1D-441D-9B2D-5C5CFD026C88";
shapes = (
{
closed = 1;
nodes = (
(1127,125,l),
(1004,125,o),
(909,196,o),
(909,378,cs),
(909,957,l),
(755,957,l),
(755,378,ls),
(755,120,o),
(890,-13,o),
(1088,-13,c)
);
},
{
closed = 1;
nodes = (
(464,0,l),
(464,956,l),
(308,956,l),
(308,0,l)
);
},
{
closed = 1;
nodes = (
(1191,823,l),
(1191,958,l),
(57,958,l),
(57,823,l)
);
}
);
width = 1229;
}
);
unicode = 960;
},
{
glyphname = zero;
lastChange = "2020-10-22 18:08:06 +0000";
layers = (
{
layerId = "CE2138A5-93BA-4A69-8B69-7D34CC27D2DF";
shapes = (
{
closed = 1;
nodes = (
(824,-20,o),
(998,192,o),
(998,608,cs),
(998,1021,o),
(824,1231,o),
(553,1231,cs),
(282,1231,o),
(110,1021,o),
(110,608,cs),
(110,192,o),
(282,-20,o),
(553,-20,cs)
);
},
{
closed = 1;
nodes = (
(312,50,o),
(188,257,o),
(188,608,cs),
(188,958,o),
(312,1163,o),
(553,1163,cs),
(800,1163,o),
(920,958,o),
(920,608,cs),
(920,257,o),
(800,50,o),
(553,50,cs)
);
}
);
width = 1107;
},
{
layerId = "54E4F05E-05D2-4398-A473-3C5492C75DBF";
shapes = (
{
closed = 1;
nodes = (
(1015,-32,o),
(1262,192,o),
(1262,669,cs),
(1262,1150,o),
(1015,1372,o),
(676,1372,cs),
(331,1372,o),
(86,1150,o),
(86,669,cs),
(86,192,o),
(331,-32,o),
(676,-32,cs)
);
},
{
closed = 1;
nodes = (
(515,259,o),
(416,398,o),
(416,669,cs),
(416,940,o),
(515,1083,o),
(676,1083,cs),
(830,1083,o),
(932,940,o),
(932,669,cs),
(932,398,o),
(830,259,o),
(676,259,cs)
);
}
);
width = 1347;
},
{
layerId = "26C860F9-3A1D-441D-9B2D-5C5CFD026C88";
shapes = (
{
closed = 1;
nodes = (
(888,-24,o),
(1086,192,o),
(1086,628,cs),
(1086,1064,o),
(888,1278,o),
(594,1278,cs),
(298,1278,o),
(102,1064,o),
(102,628,cs),
(102,192,o),
(298,-24,o),
(594,-24,cs)
);
},
{
closed = 1;
nodes = (
(380,120,o),
(264,304,o),
(264,628,cs),
(264,952,o),
(380,1136,o),
(594,1136,cs),
(810,1136,o),
(924,952,o),
(924,628,cs),
(924,304,o),
(810,120,o),
(594,120,cs)
);
}
);
width = 1187;
}
);
unicode = 48;
},
{
glyphname = one;
lastChange = "2020-10-22 18:08:06 +0000";
layers = (
{
layerId = "CE2138A5-93BA-4A69-8B69-7D34CC27D2DF";
shapes = (
{
closed = 1;
nodes = (
(262,1159,o),
(186,1129,o),
(108,1115,c),
(108,1039,l),
(180,1043,o),
(256,1073,o),
(314,1129,c),
(314,0,l),
(388,0,l),
(388,1213,l),
(316,1213,l)
);
}
);
width = 608;
},
{
layerId = "54E4F05E-05D2-4398-A473-3C5492C75DBF";
shapes = (
{
closed = 1;
nodes = (
(256,1282,o),
(168,1252,o),
(71,1244,c),
(71,940,l),
(137,938,o),
(201,950,o),
(277,969,c),
(277,0,l),
(597,0,l),
(597,1354,l),
(365,1354,l)
);
}
);
width = 768;
},
{
layerId = "26C860F9-3A1D-441D-9B2D-5C5CFD026C88";
shapes = (
{
closed = 1;
nodes = (
(260,1200,o),
(180,1170,o),
(96,1158,c),
(96,1006,l),
(166,1008,o),
(238,1032,o),
(302,1076,c),
(302,0,l),
(458,0,l),
(458,1260,l),
(332,1260,l)
);
}
);
width = 661.33333;
}
);
unicode = 49;
},
{
glyphname = two;
lastChange = "2020-10-22 18:08:06 +0000";
layers = (
{
layerId = "CE2138A5-93BA-4A69-8B69-7D34CC27D2DF";
shapes = (
{
closed = 1;
nodes = (
(928,0,l),
(928,70,l),
(210,70,l),
(210,153,ls),
(210,296,o),
(295,380,o),
(447,440,cs),
(687,540,ls),
(824,600,o),
(944,706,o),
(944,894,cs),
(944,1085,o),
(787,1231,o),
(565,1231,cs),
(315,1231,o),
(180,1117,o),
(158,948,c),
(242,948,l),
(258,1092,o),
(378,1163,o),
(565,1163,cs),
(748,1163,o),
(860,1060,o),
(860,904,cs),
(860,759,o),
(786,669,o),
(646,611,cs),
(416,517,ls),
(263,453,o),
(136,367,o),
(136,149,cs),
(136,0,l)
);
}
);
width = 1107;
},
{
layerId = "54E4F05E-05D2-4398-A473-3C5492C75DBF";
shapes = (
{
closed = 1;
nodes = (
(1186,0,l),
(1186,292,l),
(432,292,l),
(432,307,ls),
(432,351,o),
(455,374,o),
(533,403,cs),
(816,510,ls),
(1088,612,o),
(1190,743,o),
(1190,949,cs),
(1190,1208,o),
(959,1372,o),
(676,1372,cs),
(383,1372,o),
(131,1234,o),
(134,918,c),
(488,918,l),
(498,1031,o),
(581,1095,o),
(682,1095,cs),
(791,1095,o),
(848,1030,o),
(848,959,cs),
(848,882,o),
(804,829,o),
(701,789,cs),
(416,683,ls),
(195,600,o),
(112,478,o),
(112,260,cs),
(112,0,l)
);
}
);
width = 1264;
},
{
layerId = "26C860F9-3A1D-441D-9B2D-5C5CFD026C88";
shapes = (
{
closed = 1;
nodes = (
(1014,0,l),
(1014,144,l),
(284,144,l),
(284,204,ls),
(284,314,o),
(348,378,o),
(476,428,cs),
(730,530,ls),
(912,604,o),
(1026,718,o),
(1026,912,cs),
(1026,1126,o),
(844,1278,o),
(602,1278,cs),
(338,1278,o),
(164,1156,o),
(150,938,c),
(324,938,l),
(338,1072,o),
(446,1140,o),
(604,1140,cs),
(762,1140,o),
(856,1050,o),
(856,922,cs),
(856,800,o),
(792,722,o),
(664,670,cs),
(416,572,ls),
(240,502,o),
(128,404,o),
(128,186,cs),
(128,0,l)
);
}
);
width = 1159.33333;
}
);
unicode = 50;
},
{
glyphname = three;
lastChange = "2020-10-22 18:08:06 +0000";
layers = (
{
layerId = "CE2138A5-93BA-4A69-8B69-7D34CC27D2DF";
shapes = (
{
closed = 1;
nodes = (
(823,-20,o),
(972,126,o),
(972,328,cs),
(972,496,o),
(852,598,o),
(692,635,c),
(836,688,o),
(918,777,o),
(918,909,cs),
(918,1095,o),
(756,1231,o),
(539,1231,cs),
(358,1231,o),
(205,1161,o),
(169,960,c),
(238,960,l),
(285,1119,o),
(399,1163,o),
(537,1163,cs),
(723,1163,o),
(838,1050,o),
(838,910,cs),
(838,749,o),
(689,655,o),
(452,655,cs),
(407,655,l),
(407,594,l),
(519,594,ls),
(792,594,o),
(890,478,o),
(890,329,cs),
(890,171,o),
(772,50,o),
(561,50,cs),
(363,50,o),
(192,151,o),
(192,359,c),
(122,359,l),
(122,114,o),
(332,-20,o),
(561,-20,cs)
);
}
);
width = 1116;
},
{
layerId = "54E4F05E-05D2-4398-A473-3C5492C75DBF";
shapes = (
{
closed = 1;
nodes = (
(995,-32,o),
(1230,138,o),
(1230,383,cs),
(1230,533,o),
(1135,641,o),
(981,703,c),
(1119,749,o),
(1188,857,o),
(1188,989,cs),
(1188,1218,o),
(959,1372,o),
(644,1372,cs),
(334,1372,o),
(113,1235,o),
(89,936,c),
(429,936,l),
(445,1039,o),
(546,1083,o),
(660,1083,cs),
(791,1083,o),
(844,1026,o),
(844,947,cs),
(844,860,o),
(781,802,o),
(674,802,cs),
(475,802,l),
(475,551,l),
(679,551,ls),
(810,551,o),
(884,509,o),
(884,415,cs),
(884,324,o),
(796,259,o),
(660,259,cs),
(510,259,o),
(426,335,o),
(414,433,c),
(73,433,l),
(73,126,o),
(362,-32,o),
(660,-32,cs)
);
}
);
width = 1310;
},
{
layerId = "26C860F9-3A1D-441D-9B2D-5C5CFD026C88";
shapes = (
{
closed = 1;
nodes = (
(880,-24,o),
(1058,130,o),
(1058,346,cs),
(1058,508,o),
(946,612,o),
(788,658,c),
(930,708,o),
(1008,804,o),
(1008,936,cs),
(1008,1136,o),
(824,1278,o),
(574,1278,cs),
(350,1278,o),
(174,1186,o),
(142,952,c),
(302,952,l),
(338,1092,o),
(448,1136,o),
(578,1136,cs),
(746,1136,o),
(840,1042,o),
(840,922,cs),
(840,786,o),
(720,704,o),
(526,704,cs),
(430,704,l),
(430,580,l),
(572,580,ls),
(798,580,o),
(888,488,o),
(888,358,cs),
(888,222,o),
(780,120,o),
(594,120,cs),
(412,120,o),
(270,212,o),
(266,384,c),
(106,384,l),
(106,118,o),
(342,-24,o),
(594,-24,cs)
);
}
);
width = 1180.66667;
}
);
unicode = 51;
},
{
glyphname = four;
lastChange = "2020-10-22 18:08:06 +0000";
layers = (
{
layerId = "CE2138A5-93BA-4A69-8B69-7D34CC27D2DF";
shapes = (
{
closed = 1;
nodes = (
(60,385,l),
(60,324,l),
(702,324,l),
(702,0,l),
(774,0,l),
(774,324,l),
(984,324,l),
(984,385,l),
(774,385,l),
(774,1235,l),
(712,1235,l)
);
},
{
closed = 1;
nodes = (
(702,385,l),
(150,385,l),
(702,1096,l)
);
}
);
width = 1042;
},
{
layerId = "54E4F05E-05D2-4398-A473-3C5492C75DBF";
shapes = (
{
closed = 1;
nodes = (
(36,508,l),
(36,269,l),
(702,269,l),
(702,0,l),
(1020,0,l),
(1020,269,l),
(1254,269,l),
(1254,545,l),
(1020,545,l),
(1020,1352,l),
(706,1352,l)
);
},
{
closed = 1;
nodes = (
(720,508,l),
(414,508,l),
(720,893,l)
);
}
);
width = 1267;
},
{
layerId = "26C860F9-3A1D-441D-9B2D-5C5CFD026C88";
shapes = (
{
closed = 1;
nodes = (
(52,426,l),
(52,306,l),
(702,306,l),
(702,0,l),
(856,0,l),
(856,306,l),
(1074,306,l),
(1074,438,l),
(856,438,l),
(856,1274,l),
(710,1274,l)
);
},
{
closed = 1;
nodes = (
(708,426,l),
(238,426,l),
(708,1028,l)
);
}
);
width = 1117;
}
);
unicode = 52;
},
{
glyphname = five;
lastChange = "2020-10-22 18:08:06 +0000";
layers = (
{
layerId = "CE2138A5-93BA-4A69-8B69-7D34CC27D2DF";
shapes = (
{
closed = 1;
nodes = (
(793,-20,o),
(946,150,o),
(946,379,cs),
(946,617,o),
(778,727,o),
(502,727,cs),
(438,727,o),
(359,723,o),
(295,709,c),
(315,695,l),
(361,1186,l),
(343,1147,l),
(895,1147,l),
(895,1213,l),
(283,1213,l),
(235,664,l),
(509,664,ls),
(744,664,o),
(866,566,o),
(866,379,cs),
(866,193,o),
(748,50,o),
(533,50,cs),
(357,50,o),
(216,141,o),
(216,311,c),
(146,311,l),
(144,94,o),
(338,-20,o),
(533,-20,cs)
);
}
);
width = 1093;
},
{
layerId = "54E4F05E-05D2-4398-A473-3C5492C75DBF";
shapes = (
{
closed = 1;
nodes = (
(940,-32,o),
(1155,187,o),
(1155,459,cs),
(1155,703,o),
(981,850,o),
(717,850,cs),
(654,850,o),
(543,840,o),
(479,826,c),
(499,800,l),
(533,1131,l),
(472,1048,l),
(1079,1048,l),
(1079,1342,l),
(215,1342,l),
(149,615,l),
(608,615,ls),
(756,615,o),
(829,560,o),
(829,459,cs),
(829,347,o),
(736,259,o),
(625,259,cs),
(510,259,o),
(425,313,o),
(425,428,c),
(97,428,l),
(107,137,o),
(301,-32,o),
(625,-32,cs)
);
}
);
width = 1201;
},
{
layerId = "26C860F9-3A1D-441D-9B2D-5C5CFD026C88";
shapes = (
{
closed = 1;
nodes = (
(842,-24,o),
(1016,162,o),
(1016,406,cs),
(1016,646,o),
(846,768,o),
(574,768,cs),
(510,768,o),
(420,762,o),
(356,748,c),
(376,730,l),
(418,1168,l),
(386,1114,l),
(956,1114,l),
(956,1256,l),
(260,1256,l),
(206,648,l),
(542,648,ls),
(748,648,o),
(854,564,o),
(854,406,cs),
(854,244,o),
(744,120,o),
(564,120,cs),
(408,120,o),
(286,198,o),
(286,350,c),
(130,350,l),
(132,108,o),
(326,-24,o),
(564,-24,cs)
);
}
);
width = 1129;
}
);
unicode = 53;
},
{
glyphname = six;
lastChange = "2020-10-22 18:08:06 +0000";
layers = (
{
layerId = "CE2138A5-93BA-4A69-8B69-7D34CC27D2DF";
shapes = (
{
closed = 1;
nodes = (
(786,-20,o),
(942,126,o),
(942,344,cs),
(942,563,o),
(768,715,o),
(556,715,cs),
(374,715,o),
(204,623,o),
(200,336,c),
(190,407,o),
(188,497,o),
(188,557,cs),
(188,932,o),
(337,1163,o),
(591,1163,cs),
(748,1163,o),
(824,1074,o),
(850,938,c),
(936,938,l),
(906,1111,o),
(780,1231,o),
(591,1231,cs),
(282,1231,o),
(110,983,o),
(110,585,cs),
(110,248,o),
(282,-20,o),
(559,-20,cs)
);
},
{
closed = 1;
nodes = (
(382,50,o),
(258,161,o),
(258,341,cs),
(258,506,o),
(382,634,o),
(559,634,cs),
(738,634,o),
(860,524,o),
(860,341,cs),
(860,161,o),
(738,50,o),
(559,50,cs)
);
}
);
width = 1074;
},
{
layerId = "54E4F05E-05D2-4398-A473-3C5492C75DBF";
shapes = (
{
closed = 1;
nodes = (
(995,-32,o),
(1206,144,o),
(1206,405,cs),
(1206,655,o),
(1038,838,o),
(778,838,cs),
(614,838,o),
(456,770,o),
(409,545,c),
(405,573,o),
(403,602,o),
(403,631,cs),
(403,908,o),
(521,1083,o),
(702,1083,cs),
(791,1083,o),
(842,1031,o),
(850,944,c),
(1188,944,l),
(1189,1204,o),
(983,1372,o),
(690,1372,cs),
(337,1372,o),
(86,1118,o),
(86,647,cs),
(86,248,o),
(337,-32,o),
(688,-32,cs)
);
},
{
closed = 1;
nodes = (
(591,259,o),
(504,327,o),
(504,421,cs),
(504,524,o),
(591,585,o),
(688,585,cs),
(787,585,o),
(878,524,o),
(878,421,cs),
(878,327,o),
(787,259,o),
(688,259,cs)
);
}
);
width = 1286;
},
{
layerId = "26C860F9-3A1D-441D-9B2D-5C5CFD026C88";
shapes = (
{
closed = 1;
nodes = (
(856,-24,o),
(1030,132,o),
(1030,364,cs),
(1030,594,o),
(858,756,o),
(630,756,cs),
(454,756,o),
(288,672,o),
(270,406,c),
(262,462,o),
(260,532,o),
(260,582,cs),
(260,924,o),
(398,1136,o),
(628,1136,cs),
(762,1136,o),
(830,1060,o),
(850,940,c),
(1020,940,l),
(1000,1142,o),
(848,1278,o),
(624,1278,cs),
(300,1278,o),
(102,1028,o),
(102,606,cs),
(102,248,o),
(300,-24,o),
(602,-24,cs)
);
},
{
closed = 1;
nodes = (
(452,120,o),
(340,216,o),
(340,368,cs),
(340,512,o),
(452,618,o),
(602,618,cs),
(754,618,o),
(866,524,o),
(866,368,cs),
(866,216,o),
(754,120,o),
(602,120,cs)
);
}
);
width = 1144.66667;
}
);
unicode = 54;
},
{
glyphname = seven;
lastChange = "2020-10-22 18:08:06 +0000";
layers = (
{
layerId = "CE2138A5-93BA-4A69-8B69-7D34CC27D2DF";
shapes = (
{
closed = 1;
nodes = (
(244,0,l),
(847,1153,l),
(847,1213,l),
(48,1213,l),
(48,1147,l),
(759,1147,l),
(149,0,l)
);
}
);
width = 882;
},
{
layerId = "54E4F05E-05D2-4398-A473-3C5492C75DBF";
shapes = (
{
closed = 1;
nodes = (
(490,0,l),
(1019,1030,l),
(1019,1342,l),
(48,1342,l),
(48,1030,l),
(642,1030,l),
(57,0,l)
);
}
);
width = 1054;
},
{
layerId = "26C860F9-3A1D-441D-9B2D-5C5CFD026C88";
shapes = (
{
closed = 1;
nodes = (
(326,0,l),
(904,1112,l),
(904,1256,l),
(48,1256,l),
(48,1108,l),
(720,1108,l),
(118,0,l)
);
}
);
width = 939.33333;
}
);
unicode = 55;
},
{
glyphname = eight;
lastChange = "2020-10-22 18:08:06 +0000";
layers = (
{
layerId = "CE2138A5-93BA-4A69-8B69-7D34CC27D2DF";
shapes = (
{
closed = 1;
nodes = (
(870,-20,o),
(1042,104,o),
(1042,283,cs),
(1042,435,o),
(944,519,o),
(766,585,cs),
(457,701,ls),
(327,747,o),
(244,805,o),
(244,920,cs),
(244,1050,o),
(387,1163,o),
(581,1163,cs),
(780,1163,o),
(914,1050,o),
(914,908,cs),
(914,751,o),
(778,643,o),
(585,643,c),
(585,611,l),
(609,605,o),
(631,605,o),
(652,605,cs),
(880,605,o),
(992,745,o),
(992,907,cs),
(992,1091,o),
(829,1231,o),
(581,1231,cs),
(322,1231,o),
(162,1093,o),
(162,921,cs),
(162,766,o),
(302,676,o),
(420,632,cs),
(741,510,l),
(876,464,o),
(960,398,o),
(960,283,cs),
(960,143,o),
(805,50,o),
(581,50,cs),
(361,50,o),
(200,145,o),
(200,325,cs),
(200,470,o),
(347,607,o),
(577,607,c),
(577,640,l),
(558,644,o),
(532,642,o),
(513,642,cs),
(284,642,o),
(122,522,o),
(122,326,cs),
(122,126,o),
(324,-20,o),
(581,-20,cs)
);
}
);
width = 1163;
},
{
layerId = "54E4F05E-05D2-4398-A473-3C5492C75DBF";
shapes = (
{
closed = 1;
nodes = (
(1061,-32,o),
(1276,141,o),
(1276,376,cs),
(1276,558,o),
(1166,642,o),
(969,720,cs),
(550,885,l),
(487,913,o),
(460,940,o),
(460,981,cs),
(460,1044,o),
(559,1083,o),
(680,1083,cs),
(810,1083,o),
(902,1038,o),
(902,951,cs),
(902,874,o),
(796,827,o),
(696,827,c),
(696,740,l),
(769,716,o),
(815,704,o),
(880,704,cs),
(1096,704,o),
(1232,831,o),
(1232,975,cs),
(1232,1208,o),
(982,1372,o),
(680,1372,cs),
(328,1372,o),
(132,1234,o),
(132,995,cs),
(132,790,o),
(314,670,o),
(457,614,cs),
(852,461,l),
(913,434,o),
(948,398,o),
(948,357,cs),
(948,303,o),
(879,259,o),
(680,259,cs),
(539,259,o),
(415,317,o),
(415,399,cs),
(415,476,o),
(525,533,o),
(663,533,c),
(663,603,l),
(576,626,o),
(526,642,o),
(451,642,cs),
(247,642,o),
(85,540,o),
(85,363,cs),
(85,138,o),
(306,-32,o),
(680,-32,cs)
);
}
);
width = 1360;
},
{
layerId = "26C860F9-3A1D-441D-9B2D-5C5CFD026C88";
shapes = (
{
closed = 1;
nodes = (
(934,-24,o),
(1120,116,o),
(1120,314,cs),
(1120,476,o),
(1018,560,o),
(834,630,cs),
(488,762,ls),
(380,802,o),
(316,850,o),
(316,940,cs),
(316,1048,o),
(444,1136,o),
(614,1136,cs),
(790,1136,o),
(910,1046,o),
(910,922,cs),
(910,792,o),
(784,704,o),
(622,704,c),
(622,654,l),
(662,642,o),
(692,638,o),
(728,638,cs),
(952,638,o),
(1072,774,o),
(1072,930,cs),
(1072,1130,o),
(880,1278,o),
(614,1278,cs),
(324,1278,o),
(152,1140,o),
(152,946,cs),
(152,774,o),
(306,674,o),
(432,626,cs),
(778,494,ls),
(888,454,o),
(956,398,o),
(956,308,cs),
(956,196,o),
(830,120,o),
(614,120,cs),
(420,120,o),
(272,202,o),
(272,350,cs),
(272,472,o),
(406,582,o),
(606,582,c),
(606,628,l),
(564,638,o),
(530,642,o),
(492,642,cs),
(272,642,o),
(110,528,o),
(110,338,cs),
(110,130,o),
(318,-24,o),
(614,-24,cs)
);
}
);
width = 1228.66667;
}
);
unicode = 56;
},
{
glyphname = nine;
lastChange = "2020-10-22 18:08:06 +0000";
layers = (
{
layerId = "CE2138A5-93BA-4A69-8B69-7D34CC27D2DF";
shapes = (
{
closed = 1;
nodes = (
(857,-20,o),
(988,232,o),
(988,634,cs),
(988,1001,o),
(807,1231,o),
(542,1231,cs),
(310,1231,o),
(159,1091,o),
(159,872,cs),
(159,656,o),
(333,498,o),
(538,498,cs),
(747,498,o),
(880,624,o),
(894,836,c),
(904,766,o),
(906,722,o),
(906,658,cs),
(906,283,o),
(796,50,o),
(541,50,cs),
(345,50,o),
(238,171,o),
(236,360,c),
(161,360,l),
(161,144,o),
(314,-20,o),
(541,-20,cs)
);
},
{
closed = 1;
nodes = (
(361,579,o),
(237,691,o),
(237,872,cs),
(237,1052,o),
(361,1165,o),
(542,1165,cs),
(714,1165,o),
(843,1052,o),
(843,872,cs),
(843,711,o),
(714,579,o),
(540,579,cs)
);
}
);
width = 1099;
},
{
layerId = "54E4F05E-05D2-4398-A473-3C5492C75DBF";
shapes = (
{
closed = 1;
nodes = (
(998,-32,o),
(1197,250,o),
(1197,689,cs),
(1197,1094,o),
(924,1372,o),
(591,1372,cs),
(292,1372,o),
(79,1196,o),
(79,933,cs),
(79,680,o),
(247,504,o),
(508,504,cs),
(667,504,o),
(825,569,o),
(876,793,c),
(880,766,o),
(882,734,o),
(882,707,cs),
(882,443,o),
(808,259,o),
(609,259,cs),
(523,259,o),
(441,312,o),
(433,397,c),
(99,397,l),
(99,138,o),
(332,-32,o),
(621,-32,cs)
);
},
{
closed = 1;
nodes = (
(496,757,o),
(409,814,o),
(409,915,cs),
(409,1015,o),
(496,1079,o),
(591,1079,cs),
(690,1079,o),
(781,1015,o),
(781,915,cs),
(781,816,o),
(690,757,o),
(595,757,cs)
);
}
);
width = 1283;
},
{
layerId = "26C860F9-3A1D-441D-9B2D-5C5CFD026C88";
shapes = (
{
closed = 1;
nodes = (
(904,-24,o),
(1058,238,o),
(1058,652,cs),
(1058,1032,o),
(846,1278,o),
(558,1278,cs),
(304,1278,o),
(132,1126,o),
(132,892,cs),
(132,664,o),
(304,500,o),
(528,500,cs),
(720,500,o),
(862,606,o),
(888,822,c),
(896,766,o),
(898,726,o),
(898,674,cs),
(898,336,o),
(800,120,o),
(564,120,cs),
(404,120,o),
(306,218,o),
(302,372,c),
(140,372,l),
(140,142,o),
(320,-24,o),
(568,-24,cs)
);
},
{
closed = 1;
nodes = (
(406,638,o),
(294,732,o),
(294,886,cs),
(294,1040,o),
(406,1136,o),
(558,1136,cs),
(706,1136,o),
(822,1040,o),
(822,886,cs),
(822,746,o),
(706,638,o),
(558,638,cs)
);
}
);
width = 1160.33333;
}
);
unicode = 57;
},
{
glyphname = zero.osf;
lastChange = "2023-04-19 12:50:23 +0000";
layers = (
{
layerId = "CE2138A5-93BA-4A69-8B69-7D34CC27D2DF";
shapes = (
{
closed = 1;
nodes = (
(264,1032,o),
(110,873,o),
(110,509,cs),
(110,143,o),
(264,-20,o),
(489,-20,cs),
(714,-20,o),
(874,143,o),
(874,509,cs),
(874,873,o),
(714,1032,o),
(489,1032,cs)
);
},
{
closed = 1;
nodes = (
(702,970,o),
(794,802,o),
(794,509,cs),
(794,217,o),
(702,44,o),
(489,44,cs),
(282,44,o),
(190,217,o),
(190,509,cs),
(190,802,o),
(282,970,o),
(489,970,cs)
);
}
);
width = 981;
},
{
layerId = "54E4F05E-05D2-4398-A473-3C5492C75DBF";
shapes = (
{
closed = 1;
nodes = (
(307,1235,o),
(86,996,o),
(86,602,cs),
(86,205,o),
(307,-32,o),
(612,-32,cs),
(917,-32,o),
(1132,205,o),
(1132,602,cs),
(1132,996,o),
(917,1235,o),
(612,1235,cs)
);
},
{
closed = 1;
nodes = (
(745,946,o),
(818,845,o),
(818,602,cs),
(818,358,o),
(745,260,o),
(612,260,cs),
(479,260,o),
(405,358,o),
(405,602,cs),
(405,845,o),
(479,946,o),
(612,946,cs)
);
}
);
width = 1221;
},
{
layerId = "26C860F9-3A1D-441D-9B2D-5C5CFD026C88";
shapes = (
{
closed = 1;
nodes = (
(278,1100,o),
(102,914,o),
(102,540,cs),
(102,164,o),
(278,-24,o),
(530,-24,cs),
(782,-24,o),
(960,164,o),
(960,540,cs),
(960,914,o),
(782,1100,o),
(530,1100,cs)
);
},
{
closed = 1;
nodes = (
(716,962,o),
(802,816,o),
(802,540,cs),
(802,264,o),
(716,116,o),
(530,116,cs),
(348,116,o),
(262,264,o),
(262,540,cs),
(262,816,o),
(348,962,o),
(530,962,cs)
);
}
);
width = 1061;
}
);
},
{
glyphname = one.osf;
lastChange = "2023-04-19 12:50:23 +0000";
layers = (
{
layerId = "CE2138A5-93BA-4A69-8B69-7D34CC27D2DF";
shapes = (
{
closed = 1;
nodes = (
(262,961,o),
(186,929,o),
(108,915,c),
(108,838,l),
(180,844,o),
(256,875,o),
(314,929,c),
(314,0,l),
(388,0,l),
(388,1016,l),
(316,1016,l)
);
}
);
width = 608;
},
{
layerId = "54E4F05E-05D2-4398-A473-3C5492C75DBF";
shapes = (
{
closed = 1;
nodes = (
(256,1133,o),
(168,1107,o),
(71,1099,c),
(71,795,l),
(137,795,o),
(201,801,o),
(277,824,c),
(277,0,l),
(597,0,l),
(597,1207,l),
(365,1207,l)
);
}
);
width = 768;
},
{
layerId = "26C860F9-3A1D-441D-9B2D-5C5CFD026C88";
shapes = (
{
closed = 1;
nodes = (
(260,1018,o),
(180,988,o),
(96,976,c),
(96,824,l),
(166,828,o),
(238,850,o),
(302,894,c),
(302,0,l),
(458,0,l),
(458,1080,l),
(332,1080,l)
);
}
);
width = 661.33333;
}
);
},
{
glyphname = two.osf;
lastChange = "2023-04-19 12:50:23 +0000";
layers = (
{
layerId = "CE2138A5-93BA-4A69-8B69-7D34CC27D2DF";
shapes = (
{
closed = 1;
nodes = (
(928,0,l),
(928,70,l),
(210,70,l),
(210,155,ls),
(210,271,o),
(272,372,o),
(441,408,cs),
(675,460,ls),
(845,502,o),
(941,580,o),
(941,735,cs),
(941,884,o),
(789,1032,o),
(565,1032,cs),
(316,1032,o),
(180,916,o),
(158,751,c),
(242,751,l),
(258,894,o),
(381,964,o),
(565,964,cs),
(752,964,o),
(863,864,o),
(863,749,cs),
(863,623,o),
(780,557,o),
(646,529,cs),
(424,479,ls),
(232,439,o),
(136,341,o),
(136,139,cs),
(136,0,l)
);
}
);
width = 1107;
},
{
layerId = "54E4F05E-05D2-4398-A473-3C5492C75DBF";
shapes = (
{
closed = 1;
nodes = (
(1137,0,l),
(1137,292,l),
(432,292,l),
(432,321,ls),
(432,363,o),
(469,384,o),
(552,408,cs),
(749,460,ls),
(1017,526,o),
(1119,641,o),
(1119,846,cs),
(1119,1075,o),
(930,1235,o),
(639,1235,cs),
(353,1235,o),
(131,1113,o),
(134,825,c),
(488,825,l),
(498,918,o),
(565,958,o),
(658,958,cs),
(746,958,o),
(801,907,o),
(801,841,cs),
(801,764,o),
(762,711,o),
(609,670,cs),
(436,626,ls),
(214,568,o),
(112,464,o),
(112,225,cs),
(112,0,l)
);
}
);
width = 1233;
},
{
layerId = "26C860F9-3A1D-441D-9B2D-5C5CFD026C88";
shapes = (
{
closed = 1;
nodes = (
(998,0,l),
(998,144,l),
(284,144,l),
(284,210,ls),
(284,302,o),
(338,376,o),
(478,408,cs),
(700,460,ls),
(902,510,o),
(1000,600,o),
(1000,772,cs),
(1000,948,o),
(836,1100,o),
(590,1100,cs),
(328,1100,o),
(164,982,o),
(150,776,c),
(324,776,l),
(338,902,o),
(442,962,o),
(596,962,cs),
(750,962,o),
(842,878,o),
(842,780,cs),
(842,670,o),
(774,608,o),
(634,576,cs),
(428,528,ls),
(226,482,o),
(128,382,o),
(128,168,cs),
(128,0,l)
);
}
);
width = 1149;
}
);
},
{
glyphname = three.osf;
lastChange = "2023-04-19 12:50:23 +0000";
layers = (
{
layerId = "CE2138A5-93BA-4A69-8B69-7D34CC27D2DF";
shapes = (
{
closed = 1;
nodes = (
(745,-218,o),
(920,-76,o),
(920,128,cs),
(920,294,o),
(804,434,o),
(642,471,c),
(782,521,o),
(868,591,o),
(868,723,cs),
(868,905,o),
(709,1032,o),
(487,1032,cs),
(312,1032,o),
(157,963,o),
(119,760,c),
(192,760,l),
(237,916,o),
(349,964,o),
(487,964,cs),
(678,964,o),
(786,864,o),
(786,723,cs),
(786,565,o),
(644,491,o),
(407,491,cs),
(362,491,l),
(362,430,l),
(467,430,ls),
(742,430,o),
(840,280,o),
(840,127,cs),
(840,-29,o),
(692,-147,o),
(485,-147,cs),
(283,-147,o),
(144,-47,o),
(146,162,c),
(72,162,l),
(72,-88,o),
(252,-218,o),
(485,-218,cs)
);
}
);
width = 1066;
},
{
layerId = "54E4F05E-05D2-4398-A473-3C5492C75DBF";
shapes = (
{
closed = 1;
nodes = (
(899,-249,o),
(1111,-58,o),
(1111,189,cs),
(1111,355,o),
(1032,489,o),
(870,564,c),
(998,620,o),
(1071,720,o),
(1071,858,cs),
(1071,1071,o),
(887,1235,o),
(573,1235,cs),
(263,1235,o),
(65,1117,o),
(39,815,c),
(383,815,l),
(384,898,o),
(466,970,o),
(580,970,cs),
(684,970,o),
(756,907,o),
(756,822,cs),
(756,725,o),
(687,657,o),
(579,657,cs),
(417,657,l),
(417,406,l),
(566,406,ls),
(693,406,o),
(791,335,o),
(791,220,cs),
(791,100,o),
(704,19,o),
(578,19,cs),
(461,19,o),
(366,70,o),
(349,205,c),
(23,205,l),
(23,-112,o),
(295,-249,o),
(578,-249,cs)
);
}
);
width = 1235;
},
{
layerId = "26C860F9-3A1D-441D-9B2D-5C5CFD026C88";
shapes = (
{
closed = 1;
nodes = (
(796,-228,o),
(984,-70,o),
(984,148,cs),
(984,314,o),
(880,452,o),
(718,502,c),
(854,554,o),
(936,634,o),
(936,768,cs),
(936,960,o),
(768,1100,o),
(516,1100,cs),
(296,1100,o),
(126,1014,o),
(92,778,c),
(256,778,l),
(286,910,o),
(388,966,o),
(518,966,cs),
(680,966,o),
(776,878,o),
(776,756,cs),
(776,618,o),
(658,546,o),
(464,546,cs),
(380,546,l),
(380,422,l),
(500,422,ls),
(726,422,o),
(824,298,o),
(824,158,cs),
(824,14,o),
(696,-92,o),
(516,-92,cs),
(342,-92,o),
(218,-8,o),
(214,176,c),
(56,176,l),
(56,-96,o),
(266,-228,o),
(516,-228,cs)
);
}
);
width = 1122.33333;
}
);
},
{
glyphname = four.osf;
lastChange = "2023-04-19 12:50:23 +0000";
layers = (
{
layerId = "CE2138A5-93BA-4A69-8B69-7D34CC27D2DF";
shapes = (
{
closed = 1;
nodes = (
(770,-204,l),
(770,118,l),
(982,118,l),
(982,181,l),
(770,181,l),
(770,1031,l),
(712,1031,l),
(60,179,l),
(60,118,l),
(698,118,l),
(698,-204,l)
);
},
{
closed = 1;
nodes = (
(702,891,l),
(702,179,l),
(148,179,l)
);
}
);
width = 1042;
},
{
layerId = "54E4F05E-05D2-4398-A473-3C5492C75DBF";
shapes = (
{
closed = 1;
nodes = (
(1016,-222,l),
(1016,88,l),
(1246,88,l),
(1246,365,l),
(1016,365,l),
(1016,1209,l),
(694,1209,l),
(23,326,l),
(23,88,l),
(692,88,l),
(692,-222,l)
);
},
{
closed = 1;
nodes = (
(708,756,l),
(708,326,l),
(370,326,l)
);
}
);
width = 1270;
},
{
layerId = "26C860F9-3A1D-441D-9B2D-5C5CFD026C88";
shapes = (
{
closed = 1;
nodes = (
(852,-210,l),
(852,108,l),
(1070,108,l),
(1070,242,l),
(852,242,l),
(852,1090,l),
(706,1090,l),
(48,228,l),
(48,108,l),
(696,108,l),
(696,-210,l)
);
},
{
closed = 1;
nodes = (
(704,846,l),
(704,228,l),
(222,228,l)
);
}
);
width = 1118;
}
);
},
{
glyphname = five.osf;
lastChange = "2023-04-19 12:50:23 +0000";
layers = (
{
layerId = "CE2138A5-93BA-4A69-8B69-7D34CC27D2DF";
shapes = (
{
closed = 1;
nodes = (
(767,-218,o),
(948,-42,o),
(948,190,cs),
(948,427,o),
(779,567,o),
(505,567,cs),
(439,567,o),
(359,559,o),
(295,547,c),
(315,531,l),
(361,986,l),
(341,946,l),
(897,946,l),
(897,1014,l),
(285,1014,l),
(235,500,l),
(510,500,ls),
(744,500,o),
(866,378,o),
(866,190,cs),
(866,3,o),
(720,-148,o),
(505,-148,cs),
(329,-148,o),
(218,-57,o),
(218,111,c),
(146,111,l),
(146,-102,o),
(314,-218,o),
(507,-218,cs)
);
}
);
width = 1095;
},
{
layerId = "54E4F05E-05D2-4398-A473-3C5492C75DBF";
shapes = (
{
closed = 1;
nodes = (
(902,-249,o),
(1139,-42,o),
(1139,251,cs),
(1139,520,o),
(957,702,o),
(677,702,cs),
(599,702,o),
(543,694,o),
(473,670,c),
(487,648,l),
(521,1010,l),
(464,946,l),
(1063,946,l),
(1063,1236,l),
(223,1236,l),
(155,451,l),
(571,451,ls),
(744,451,o),
(823,378,o),
(823,251,cs),
(823,120,o),
(726,43,o),
(610,43,cs),
(495,43,o),
(415,103,o),
(415,222,c),
(97,222,l),
(97,-84,o),
(338,-249,o),
(600,-249,cs)
);
}
);
width = 1221;
},
{
layerId = "26C860F9-3A1D-441D-9B2D-5C5CFD026C88";
shapes = (
{
closed = 1;
nodes = (
(812,-228,o),
(1012,-42,o),
(1012,210,cs),
(1012,458,o),
(838,612,o),
(562,612,cs),
(492,612,o),
(420,604,o),
(354,588,c),
(372,570,l),
(414,994,l),
(382,946,l),
(952,946,l),
(952,1088,l),
(264,1088,l),
(208,484,l),
(530,484,ls),
(744,484,o),
(852,378,o),
(852,210,cs),
(852,42,o),
(722,-84,o),
(540,-84,cs),
(384,-84,o),
(284,-4,o),
(284,148,c),
(130,148,l),
(130,-96,o),
(322,-228,o),
(538,-228,cs)
);
}
);
width = 1137;
}
);
},
{
glyphname = seven.osf;
lastChange = "2023-04-19 12:50:23 +0000";
layers = (
{
layerId = "CE2138A5-93BA-4A69-8B69-7D34CC27D2DF";
shapes = (
{
closed = 1;
nodes = (
(48,964,l),
(759,964,l),
(149,-184,l),
(243,-184,l),
(847,970,l),
(847,1032,l),
(48,1032,l)
);
}
);
width = 882;
},
{
layerId = "54E4F05E-05D2-4398-A473-3C5492C75DBF";
shapes = (
{
closed = 1;
nodes = (
(48,958,l),
(697,958,l),
(32,-221,l),
(421,-221,l),
(1019,958,l),
(1019,1235,l),
(48,1235,l)
);
}
);
width = 1054;
},
{
layerId = "26C860F9-3A1D-441D-9B2D-5C5CFD026C88";
shapes = (
{
closed = 1;
nodes = (
(48,962,l),
(738,962,l),
(110,-196,l),
(302,-196,l),
(904,966,l),
(904,1100,l),
(48,1100,l)
);
}
);
width = 939.33333;
}
);
},
{
glyphname = eight.osf;
lastChange = "2023-04-19 12:50:23 +0000";
layers = (
{
layerId = "CE2138A5-93BA-4A69-8B69-7D34CC27D2DF";
shapes = (
{
closed = 1;
nodes = (
(870,-20,o),
(1042,104,o),
(1042,283,cs),
(1042,435,o),
(944,519,o),
(766,585,cs),
(457,701,ls),
(327,747,o),
(244,805,o),
(244,920,cs),
(244,1050,o),
(387,1163,o),
(581,1163,cs),
(780,1163,o),
(914,1050,o),
(914,908,cs),
(914,751,o),
(778,643,o),
(585,643,c),
(585,611,l),
(609,605,o),
(631,605,o),
(652,605,cs),
(880,605,o),
(992,745,o),
(992,907,cs),
(992,1091,o),
(829,1231,o),
(581,1231,cs),
(322,1231,o),
(162,1093,o),
(162,921,cs),
(162,766,o),
(302,676,o),
(420,632,cs),
(741,510,l),
(876,464,o),
(960,398,o),
(960,283,cs),
(960,143,o),
(805,50,o),
(581,50,cs),
(361,50,o),
(200,145,o),
(200,325,cs),
(200,470,o),
(347,607,o),
(577,607,c),
(577,640,l),
(558,644,o),
(532,642,o),
(513,642,cs),
(284,642,o),
(122,522,o),
(122,326,cs),
(122,126,o),
(324,-20,o),
(581,-20,cs)
);
}
);
width = 1163;
},
{
layerId = "54E4F05E-05D2-4398-A473-3C5492C75DBF";
shapes = (
{
closed = 1;
nodes = (
(1061,-32,o),
(1276,141,o),
(1276,376,cs),
(1276,558,o),
(1166,642,o),
(969,720,cs),
(550,885,l),
(487,913,o),
(460,940,o),
(460,981,cs),
(460,1044,o),
(559,1083,o),
(680,1083,cs),
(810,1083,o),
(902,1038,o),
(902,951,cs),
(902,874,o),
(796,827,o),
(696,827,c),
(696,740,l),
(769,716,o),
(815,704,o),
(880,704,cs),
(1096,704,o),
(1232,831,o),
(1232,975,cs),
(1232,1208,o),
(982,1372,o),
(680,1372,cs),
(328,1372,o),
(132,1234,o),
(132,995,cs),
(132,790,o),
(314,670,o),
(457,614,cs),
(852,461,l),
(913,434,o),
(948,398,o),
(948,357,cs),
(948,303,o),
(879,259,o),
(680,259,cs),
(539,259,o),
(415,317,o),
(415,399,cs),
(415,476,o),
(525,533,o),
(663,533,c),
(663,603,l),
(576,626,o),
(526,642,o),
(451,642,cs),
(247,642,o),
(85,540,o),
(85,363,cs),
(85,138,o),
(306,-32,o),
(680,-32,cs)
);
}
);
width = 1360;
},
{
layerId = "26C860F9-3A1D-441D-9B2D-5C5CFD026C88";
shapes = (
{
closed = 1;
nodes = (
(934,-24,o),
(1120,116,o),
(1120,314,cs),
(1120,476,o),
(1018,560,o),
(834,630,cs),
(488,762,ls),
(380,802,o),
(316,850,o),
(316,940,cs),
(316,1048,o),
(444,1136,o),
(614,1136,cs),
(790,1136,o),
(910,1046,o),
(910,922,cs),
(910,792,o),
(784,704,o),
(622,704,c),
(622,654,l),
(662,642,o),
(692,638,o),
(728,638,cs),
(952,638,o),
(1072,774,o),
(1072,930,cs),
(1072,1130,o),
(880,1278,o),
(614,1278,cs),
(324,1278,o),
(152,1140,o),
(152,946,cs),
(152,774,o),
(306,674,o),
(432,626,cs),
(778,494,ls),
(888,454,o),
(956,398,o),
(956,308,cs),
(956,196,o),
(830,120,o),
(614,120,cs),
(420,120,o),
(272,202,o),
(272,350,cs),
(272,472,o),
(406,582,o),
(606,582,c),
(606,628,l),
(564,638,o),
(530,642,o),
(492,642,cs),
(272,642,o),
(110,528,o),
(110,338,cs),
(110,130,o),
(318,-24,o),
(614,-24,cs)
);
}
);
width = 1228.66667;
}
);
},
{
glyphname = nine.osf;
lastChange = "2023-04-19 12:50:23 +0000";
layers = (
{
layerId = "CE2138A5-93BA-4A69-8B69-7D34CC27D2DF";
shapes = (
{
closed = 1;
nodes = (
(857,-218,o),
(988,30,o),
(988,433,cs),
(988,804,o),
(806,1032,o),
(542,1032,cs),
(310,1032,o),
(159,893,o),
(159,673,cs),
(159,455,o),
(330,298,o),
(540,298,cs),
(744,298,o),
(880,430,o),
(894,638,c),
(904,570,o),
(906,522,o),
(906,456,cs),
(906,83,o),
(796,-148,o),
(539,-148,cs),
(347,-148,o),
(236,-27,o),
(238,160,c),
(160,160,l),
(160,-56,o),
(314,-218,o),
(539,-218,cs)
);
},
{
closed = 1;
nodes = (
(363,378,o),
(237,491,o),
(237,673,cs),
(237,858,o),
(361,964,o),
(542,964,cs),
(714,964,o),
(843,858,o),
(843,673,cs),
(843,513,o),
(716,378,o),
(540,378,cs)
);
}
);
width = 1099;
},
{
layerId = "54E4F05E-05D2-4398-A473-3C5492C75DBF";
shapes = (
{
closed = 1;
nodes = (
(937,-249,o),
(1197,24,o),
(1197,495,cs),
(1197,835,o),
(1009,1235,o),
(591,1235,cs),
(292,1235,o),
(79,1034,o),
(79,778,cs),
(79,523,o),
(281,341,o),
(540,341,cs),
(701,341,o),
(843,436,o),
(876,632,c),
(880,601,o),
(882,553,o),
(882,511,cs),
(882,224,o),
(796,43,o),
(607,43,cs),
(507,43,o),
(452,90,o),
(441,178,c),
(105,178,l),
(105,-80,o),
(326,-249,o),
(607,-249,cs)
);
},
{
closed = 1;
nodes = (
(474,594,o),
(409,675,o),
(409,778,cs),
(409,870,o),
(472,958,o),
(591,958,cs),
(714,958,o),
(781,870,o),
(781,778,cs),
(781,673,o),
(716,594,o),
(595,594,cs)
);
}
);
width = 1280;
},
{
layerId = "26C860F9-3A1D-441D-9B2D-5C5CFD026C88";
shapes = (
{
closed = 1;
nodes = (
(884,-228,o),
(1058,28,o),
(1058,454,cs),
(1058,814,o),
(874,1100,o),
(558,1100,cs),
(304,1100,o),
(132,940,o),
(132,708,cs),
(132,478,o),
(314,312,o),
(540,312,cs),
(730,312,o),
(868,432,o),
(888,636,c),
(896,580,o),
(898,532,o),
(898,474,cs),
(898,130,o),
(796,-84,o),
(562,-84,cs),
(400,-84,o),
(308,12,o),
(306,166,c),
(142,166,l),
(142,-64,o),
(318,-228,o),
(562,-228,cs)
);
},
{
closed = 1;
nodes = (
(400,450,o),
(294,552,o),
(294,708,cs),
(294,862,o),
(398,962,o),
(558,962,cs),
(714,962,o),
(822,862,o),
(822,708,cs),
(822,566,o),
(716,450,o),
(558,450,cs)
);
}
);
width = 1159.33333;
}
);
},
{
glyphname = zero.tf;
lastChange = "2020-10-22 18:08:06 +0000";
layers = (
{
layerId = "CE2138A5-93BA-4A69-8B69-7D34CC27D2DF";
shapes = (
{
closed = 1;
nodes = (
(871,-20,o),
(1045,192,o),
(1045,608,cs),
(1045,1021,o),
(871,1231,o),
(600,1231,cs),
(327,1231,o),
(155,1021,o),
(155,608,cs),
(155,192,o),
(327,-20,o),
(600,-20,cs)
);
},
{
closed = 1;
nodes = (
(357,50,o),
(235,257,o),
(235,608,cs),
(235,958,o),
(357,1163,o),
(600,1163,cs),
(845,1163,o),
(965,958,o),
(965,608,cs),
(965,257,o),
(845,50,o),
(600,50,cs)
);
}
);
width = 1200;
},
{
layerId = "54E4F05E-05D2-4398-A473-3C5492C75DBF";
shapes = (
{
closed = 1;
nodes = (
(939,-32,o),
(1186,192,o),
(1186,669,cs),
(1186,1150,o),
(939,1372,o),
(600,1372,cs),
(259,1372,o),
(14,1150,o),
(14,669,cs),
(14,192,o),
(259,-32,o),
(600,-32,cs)
);
},
{
closed = 1;
nodes = (
(443,259,o),
(340,398,o),
(340,669,cs),
(340,940,o),
(443,1083,o),
(600,1083,cs),
(759,1083,o),
(860,940,o),
(860,669,cs),
(860,398,o),
(759,259,o),
(600,259,cs)
);
}
);
width = 1200;
},
{
layerId = "26C860F9-3A1D-441D-9B2D-5C5CFD026C88";
shapes = (
{
closed = 1;
nodes = (
(894,-24,o),
(1092,192,o),
(1092,628,cs),
(1092,1064,o),
(894,1278,o),
(600,1278,cs),
(304,1278,o),
(108,1064,o),
(108,628,cs),
(108,192,o),
(304,-24,o),
(600,-24,cs)
);
},
{
closed = 1;
nodes = (
(386,120,o),
(270,304,o),
(270,628,cs),
(270,952,o),
(386,1136,o),
(600,1136,cs),
(816,1136,o),
(930,952,o),
(930,628,cs),
(930,304,o),
(816,120,o),
(600,120,cs)
);
}
);
width = 1200;
}
);
},
{
glyphname = one.tf;
lastChange = "2023-04-19 09:37:13 +0000";
layers = (
{
layerId = "CE2138A5-93BA-4A69-8B69-7D34CC27D2DF";
shapes = (
{
closed = 1;
nodes = (
(901,0,l),
(901,69,l),
(626,69,l),
(637,59,l),
(637,1213,l),
(562,1213,l),
(511,1159,o),
(437,1129,o),
(357,1115,c),
(357,1039,l),
(447,1045,o),
(545,1091,o),
(605,1176,c),
(563,1176,l),
(563,59,l),
(572,69,l),
(299,69,l),
(299,0,l)
);
}
);
width = 1200;
},
{
layerId = "54E4F05E-05D2-4398-A473-3C5492C75DBF";
shapes = (
{
closed = 1;
nodes = (
(1006,0,l),
(1006,241,l),
(675,241,l),
(766,152,l),
(766,1354,l),
(532,1354,l),
(425,1282,o),
(332,1252,o),
(240,1244,c),
(240,940,l),
(324,940,o),
(404,956,o),
(519,991,c),
(446,1058,l),
(446,152,l),
(535,241,l),
(207,241,l),
(207,0,l)
);
}
);
width = 1200;
},
{
layerId = "26C860F9-3A1D-441D-9B2D-5C5CFD026C88";
shapes = (
{
closed = 1;
nodes = (
(936,0,l),
(936,126,l),
(642,126,l),
(680,90,l),
(680,1260,l),
(552,1260,l),
(482,1200,o),
(402,1170,o),
(318,1158,c),
(318,1006,l),
(406,1010,o),
(498,1046,o),
(576,1114,c),
(524,1136,l),
(524,90,l),
(560,126,l),
(268,126,l),
(268,0,l)
);
}
);
width = 1200;
}
);
},
{
glyphname = two.tf;
lastChange = "2020-10-22 18:08:06 +0000";
layers = (
{
layerId = "CE2138A5-93BA-4A69-8B69-7D34CC27D2DF";
shapes = (
{
closed = 1;
nodes = (
(989,0,l),
(989,70,l),
(275,70,l),
(275,153,ls),
(275,296,o),
(356,376,o),
(508,440,cs),
(750,540,l),
(885,602,o),
(1005,706,o),
(1005,894,cs),
(1005,1085,o),
(852,1231,o),
(626,1231,cs),
(376,1231,o),
(241,1117,o),
(223,948,c),
(303,948,l),
(323,1092,o),
(443,1163,o),
(626,1163,cs),
(811,1163,o),
(925,1060,o),
(925,904,cs),
(925,759,o),
(847,669,o),
(706,611,cs),
(477,517,ls),
(328,455,o),
(201,367,o),
(201,149,cs),
(201,0,l)
);
}
);
width = 1200;
},
{
layerId = "54E4F05E-05D2-4398-A473-3C5492C75DBF";
shapes = (
{
closed = 1;
nodes = (
(1136,0,l),
(1136,292,l),
(380,292,l),
(380,307,ls),
(380,351,o),
(405,376,o),
(484,403,cs),
(768,510,ls),
(1039,608,o),
(1140,743,o),
(1140,949,cs),
(1140,1208,o),
(907,1372,o),
(626,1372,cs),
(333,1372,o),
(81,1234,o),
(82,918,c),
(438,918,l),
(446,1031,o),
(529,1095,o),
(632,1095,cs),
(743,1095,o),
(796,1030,o),
(796,959,cs),
(796,882,o),
(755,829,o),
(651,789,cs),
(366,683,ls),
(143,596,o),
(60,478,o),
(60,260,cs),
(60,0,l)
);
}
);
width = 1200;
},
{
layerId = "26C860F9-3A1D-441D-9B2D-5C5CFD026C88";
shapes = (
{
closed = 1;
nodes = (
(1038,0,l),
(1038,144,l),
(310,144,l),
(310,204,ls),
(310,314,o),
(372,376,o),
(500,428,cs),
(756,530,ls),
(936,604,o),
(1050,718,o),
(1050,912,cs),
(1050,1126,o),
(870,1278,o),
(626,1278,cs),
(362,1278,o),
(188,1156,o),
(176,938,c),
(348,938,l),
(364,1072,o),
(472,1140,o),
(628,1140,cs),
(788,1140,o),
(882,1050,o),
(882,922,cs),
(882,800,o),
(816,722,o),
(688,670,cs),
(440,572,ls),
(266,502,o),
(154,404,o),
(154,186,cs),
(154,0,l)
);
}
);
width = 1200;
}
);
},
{
glyphname = three.tf;
lastChange = "2020-10-22 18:08:06 +0000";
layers = (
{
layerId = "CE2138A5-93BA-4A69-8B69-7D34CC27D2DF";
shapes = (
{
closed = 1;
nodes = (
(865,-20,o),
(1013,126,o),
(1013,328,cs),
(1013,496,o),
(894,598,o),
(730,635,c),
(874,688,o),
(957,777,o),
(957,909,cs),
(957,1095,o),
(797,1231,o),
(582,1231,cs),
(403,1231,o),
(245,1161,o),
(209,960,c),
(281,960,l),
(325,1119,o),
(440,1163,o),
(582,1163,cs),
(764,1163,o),
(877,1050,o),
(877,910,cs),
(877,749,o),
(730,655,o),
(495,655,cs),
(448,655,l),
(448,594,l),
(561,594,ls),
(833,594,o),
(933,478,o),
(933,329,cs),
(933,171,o),
(811,50,o),
(604,50,cs),
(406,50,o),
(235,151,o),
(235,359,c),
(163,359,l),
(163,114,o),
(370,-20,o),
(604,-20,cs)
);
}
);
width = 1200;
},
{
layerId = "54E4F05E-05D2-4398-A473-3C5492C75DBF";
shapes = (
{
closed = 1;
nodes = (
(945,-32,o),
(1179,138,o),
(1179,383,cs),
(1179,533,o),
(1085,641,o),
(933,703,c),
(1071,749,o),
(1141,857,o),
(1141,989,cs),
(1141,1218,o),
(908,1372,o),
(594,1372,cs),
(280,1372,o),
(61,1235,o),
(37,936,c),
(380,936,l),
(393,1039,o),
(495,1083,o),
(606,1083,cs),
(740,1083,o),
(797,1026,o),
(797,947,cs),
(797,860,o),
(730,802,o),
(624,802,cs),
(424,802,l),
(424,551,l),
(629,551,ls),
(759,551,o),
(834,509,o),
(834,415,cs),
(834,324,o),
(749,259,o),
(610,259,cs),
(461,259,o),
(376,335,o),
(364,433,c),
(22,433,l),
(22,126,o),
(315,-32,o),
(610,-32,cs)
);
}
);
width = 1200;
},
{
layerId = "26C860F9-3A1D-441D-9B2D-5C5CFD026C88";
shapes = (
{
closed = 1;
nodes = (
(892,-24,o),
(1068,130,o),
(1068,346,cs),
(1068,508,o),
(958,612,o),
(798,658,c),
(940,708,o),
(1018,804,o),
(1018,936,cs),
(1018,1136,o),
(834,1278,o),
(586,1278,cs),
(362,1278,o),
(184,1186,o),
(152,952,c),
(314,952,l),
(348,1092,o),
(458,1136,o),
(590,1136,cs),
(756,1136,o),
(850,1042,o),
(850,922,cs),
(850,786,o),
(730,704,o),
(538,704,cs),
(440,704,l),
(440,580,l),
(584,580,ls),
(808,580,o),
(900,488,o),
(900,358,cs),
(900,222,o),
(790,120,o),
(606,120,cs),
(424,120,o),
(282,212,o),
(278,384,c),
(116,384,l),
(116,118,o),
(352,-24,o),
(606,-24,cs)
);
}
);
width = 1200;
}
);
},
{
glyphname = four.tf;
lastChange = "2020-10-22 18:08:06 +0000";
layers = (
{
layerId = "CE2138A5-93BA-4A69-8B69-7D34CC27D2DF";
shapes = (
{
closed = 1;
nodes = (
(119,385,l),
(119,324,l),
(772,324,l),
(761,334,l),
(761,0,l),
(831,0,l),
(831,334,l),
(823,324,l),
(1043,324,l),
(1043,385,l),
(821,385,l),
(831,375,l),
(831,1235,l),
(773,1235,l)
);
},
{
closed = 1;
nodes = (
(759,374,l),
(770,385,l),
(187,385,l),
(187,357,l),
(816,1165,l),
(759,1183,l)
);
}
);
width = 1200;
},
{
layerId = "54E4F05E-05D2-4398-A473-3C5492C75DBF";
shapes = (
{
closed = 1;
nodes = (
(20,508,l),
(20,269,l),
(778,269,l),
(668,358,l),
(668,0,l),
(985,0,l),
(985,358,l),
(916,269,l),
(1178,269,l),
(1178,508,l),
(914,508,l),
(985,455,l),
(985,1352,l),
(668,1352,l)
);
},
{
closed = 1;
nodes = (
(685,417,l),
(794,508,l),
(310,508,l),
(322,437,l),
(761,1005,l),
(685,1005,l)
);
}
);
width = 1200;
},
{
layerId = "26C860F9-3A1D-441D-9B2D-5C5CFD026C88";
shapes = (
{
closed = 1;
nodes = (
(86,426,l),
(86,306,l),
(774,306,l),
(730,342,l),
(730,0,l),
(882,0,l),
(882,342,l),
(854,306,l),
(1088,306,l),
(1088,426,l),
(852,426,l),
(882,402,l),
(882,1274,l),
(738,1274,l)
);
},
{
closed = 1;
nodes = (
(734,388,l),
(778,426,l),
(228,426,l),
(232,384,l),
(798,1112,l),
(734,1124,l)
);
}
);
width = 1200;
}
);
},
{
glyphname = five.tf;
lastChange = "2020-10-22 18:08:06 +0000";
layers = (
{
layerId = "CE2138A5-93BA-4A69-8B69-7D34CC27D2DF";
shapes = (
{
closed = 1;
nodes = (
(839,-20,o),
(993,150,o),
(993,379,cs),
(993,617,o),
(821,727,o),
(549,727,cs),
(485,727,o),
(401,723,o),
(337,709,c),
(357,695,l),
(403,1186,l),
(386,1147,l),
(941,1147,l),
(941,1213,l),
(329,1213,l),
(277,664,l),
(556,664,ls),
(786,664,o),
(913,566,o),
(913,379,cs),
(913,193,o),
(791,50,o),
(580,50,cs),
(403,50,o),
(263,141,o),
(263,311,c),
(189,311,l),
(191,94,o),
(385,-20,o),
(580,-20,cs)
);
}
);
width = 1200;
},
{
layerId = "54E4F05E-05D2-4398-A473-3C5492C75DBF";
shapes = (
{
closed = 1;
nodes = (
(913,-32,o),
(1128,187,o),
(1128,459,cs),
(1128,703,o),
(956,850,o),
(690,850,cs),
(626,850,o),
(518,840,o),
(454,826,c),
(474,800,l),
(508,1131,l),
(447,1048,l),
(1052,1048,l),
(1052,1342,l),
(188,1342,l),
(124,615,l),
(580,615,ls),
(731,615,o),
(802,560,o),
(802,459,cs),
(802,347,o),
(711,259,o),
(598,259,cs),
(483,259,o),
(398,313,o),
(398,428,c),
(72,428,l),
(80,137,o),
(274,-32,o),
(598,-32,cs)
);
}
);
width = 1200;
},
{
layerId = "26C860F9-3A1D-441D-9B2D-5C5CFD026C88";
shapes = (
{
closed = 1;
nodes = (
(864,-24,o),
(1038,162,o),
(1038,406,cs),
(1038,646,o),
(866,768,o),
(596,768,cs),
(532,768,o),
(440,762,o),
(376,748,c),
(396,730,l),
(438,1168,l),
(406,1114,l),
(978,1114,l),
(978,1256,l),
(282,1256,l),
(226,648,l),
(564,648,ls),
(768,648,o),
(876,564,o),
(876,406,cs),
(876,244,o),
(764,120,o),
(586,120,cs),
(430,120,o),
(308,198,o),
(308,350,c),
(150,350,l),
(154,108,o),
(348,-24,o),
(586,-24,cs)
);
}
);
width = 1200;
}
);
},
{
glyphname = six.tf;
lastChange = "2020-10-22 18:08:06 +0000";
layers = (
{
layerId = "CE2138A5-93BA-4A69-8B69-7D34CC27D2DF";
shapes = (
{
closed = 1;
nodes = (
(831,-20,o),
(983,126,o),
(983,344,cs),
(983,563,o),
(809,715,o),
(601,715,cs),
(419,715,o),
(249,623,o),
(245,336,c),
(237,407,o),
(235,497,o),
(235,557,cs),
(235,932,o),
(381,1163,o),
(636,1163,cs),
(790,1163,o),
(867,1074,o),
(893,938,c),
(977,938,l),
(946,1111,o),
(825,1231,o),
(636,1231,cs),
(324,1231,o),
(155,983,o),
(155,585,cs),
(155,248,o),
(326,-20,o),
(602,-20,cs)
);
},
{
closed = 1;
nodes = (
(425,50,o),
(299,161,o),
(299,341,cs),
(299,506,o),
(425,634,o),
(604,634,cs),
(778,634,o),
(905,524,o),
(905,341,cs),
(905,161,o),
(778,50,o),
(602,50,cs)
);
}
);
width = 1200;
},
{
layerId = "54E4F05E-05D2-4398-A473-3C5492C75DBF";
shapes = (
{
closed = 1;
nodes = (
(948,-32,o),
(1161,144,o),
(1161,405,cs),
(1161,655,o),
(993,838,o),
(730,838,cs),
(566,838,o),
(409,770,o),
(362,545,c),
(360,573,o),
(358,602,o),
(358,631,cs),
(358,908,o),
(474,1083,o),
(654,1083,cs),
(747,1083,o),
(799,1031,o),
(807,944,c),
(1143,944,l),
(1143,1204,o),
(936,1372,o),
(642,1372,cs),
(294,1372,o),
(38,1118,o),
(38,647,cs),
(38,248,o),
(289,-32,o),
(645,-32,cs)
);
},
{
closed = 1;
nodes = (
(548,259,o),
(459,327,o),
(459,421,cs),
(459,524,o),
(548,585,o),
(641,585,cs),
(741,585,o),
(831,524,o),
(831,421,cs),
(831,327,o),
(741,259,o),
(645,259,cs)
);
}
);
width = 1200;
},
{
layerId = "26C860F9-3A1D-441D-9B2D-5C5CFD026C88";
shapes = (
{
closed = 1;
nodes = (
(870,-24,o),
(1042,132,o),
(1042,364,cs),
(1042,594,o),
(870,756,o),
(644,756,cs),
(468,756,o),
(302,672,o),
(284,406,c),
(278,462,o),
(276,532,o),
(276,582,cs),
(276,924,o),
(412,1136,o),
(642,1136,cs),
(776,1136,o),
(844,1060,o),
(864,940,c),
(1032,940,l),
(1012,1142,o),
(862,1278,o),
(638,1278,cs),
(314,1278,o),
(116,1028,o),
(116,606,cs),
(116,248,o),
(314,-24,o),
(616,-24,cs)
);
},
{
closed = 1;
nodes = (
(466,120,o),
(352,216,o),
(352,368,cs),
(352,512,o),
(466,618,o),
(616,618,cs),
(766,618,o),
(880,524,o),
(880,368,cs),
(880,216,o),
(766,120,o),
(616,120,cs)
);
}
);
width = 1200;
}
);
},
{
glyphname = seven.tf;
lastChange = "2020-10-22 18:08:06 +0000";
layers = (
{
layerId = "CE2138A5-93BA-4A69-8B69-7D34CC27D2DF";
shapes = (
{
closed = 1;
nodes = (
(185,1147,l),
(896,1147,l),
(285,0,l),
(381,0,l),
(983,1153,l),
(983,1213,l),
(185,1213,l)
);
}
);
width = 1200;
},
{
layerId = "54E4F05E-05D2-4398-A473-3C5492C75DBF";
shapes = (
{
closed = 1;
nodes = (
(117,1030,l),
(711,1030,l),
(125,0,l),
(559,0,l),
(1088,1030,l),
(1088,1342,l),
(117,1342,l)
);
}
);
width = 1200;
},
{
layerId = "26C860F9-3A1D-441D-9B2D-5C5CFD026C88";
shapes = (
{
closed = 1;
nodes = (
(162,1108,l),
(834,1108,l),
(232,0,l),
(440,0,l),
(1018,1112,l),
(1018,1256,l),
(162,1256,l)
);
}
);
width = 1200;
}
);
},
{
glyphname = eight.tf;
lastChange = "2020-10-22 18:08:06 +0000";
layers = (
{
layerId = "CE2138A5-93BA-4A69-8B69-7D34CC27D2DF";
shapes = (
{
closed = 1;
nodes = (
(887,-20,o),
(1059,104,o),
(1059,283,cs),
(1059,435,o),
(965,519,o),
(787,585,cs),
(474,701,ls),
(346,749,o),
(261,805,o),
(261,920,cs),
(261,1050,o),
(403,1163,o),
(598,1163,cs),
(797,1163,o),
(931,1050,o),
(931,908,cs),
(931,751,o),
(795,643,o),
(606,643,c),
(606,611,l),
(625,605,o),
(647,605,o),
(669,605,cs),
(899,605,o),
(1013,745,o),
(1013,907,cs),
(1013,1091,o),
(846,1231,o),
(598,1231,cs),
(339,1231,o),
(179,1093,o),
(179,921,cs),
(179,766,o),
(319,678,o),
(437,632,cs),
(762,510,ls),
(893,460,o),
(981,398,o),
(981,283,cs),
(981,143,o),
(822,50,o),
(598,50,cs),
(377,50,o),
(221,145,o),
(221,325,cs),
(221,470,o),
(367,607,o),
(594,607,c),
(594,640,l),
(575,644,o),
(553,642,o),
(529,642,cs),
(305,642,o),
(139,522,o),
(139,326,cs),
(139,126,o),
(345,-20,o),
(598,-20,cs)
);
}
);
width = 1200;
},
{
layerId = "54E4F05E-05D2-4398-A473-3C5492C75DBF";
shapes = (
{
closed = 1;
nodes = (
(980,-32,o),
(1194,141,o),
(1194,376,cs),
(1194,558,o),
(1082,642,o),
(886,720,cs),
(468,885,ls),
(401,909,o),
(378,940,o),
(378,981,cs),
(378,1044,o),
(477,1083,o),
(598,1083,cs),
(729,1083,o),
(820,1038,o),
(820,951,cs),
(820,874,o),
(715,827,o),
(612,827,c),
(612,740,l),
(687,716,o),
(733,704,o),
(798,704,cs),
(1016,704,o),
(1148,831,o),
(1148,975,cs),
(1148,1208,o),
(901,1372,o),
(598,1372,cs),
(247,1372,o),
(50,1234,o),
(50,995,cs),
(50,790,o),
(233,666,o),
(375,614,cs),
(768,461,ls),
(831,436,o),
(864,398,o),
(864,357,cs),
(864,303,o),
(798,259,o),
(598,259,cs),
(457,259,o),
(332,317,o),
(332,399,cs),
(332,476,o),
(441,533,o),
(582,533,c),
(582,603,l),
(495,626,o),
(442,642,o),
(369,642,cs),
(164,642,o),
(4,540,o),
(4,363,cs),
(4,138,o),
(222,-32,o),
(598,-32,cs)
);
}
);
width = 1200;
},
{
layerId = "26C860F9-3A1D-441D-9B2D-5C5CFD026C88";
shapes = (
{
closed = 1;
nodes = (
(918,-24,o),
(1104,116,o),
(1104,314,cs),
(1104,476,o),
(1004,560,o),
(820,630,cs),
(472,762,ls),
(364,802,o),
(300,850,o),
(300,940,cs),
(300,1048,o),
(428,1136,o),
(598,1136,cs),
(774,1136,o),
(894,1046,o),
(894,922,cs),
(894,792,o),
(768,704,o),
(608,704,c),
(608,654,l),
(646,642,o),
(676,638,o),
(712,638,cs),
(938,638,o),
(1058,774,o),
(1058,930,cs),
(1058,1130,o),
(864,1278,o),
(598,1278,cs),
(308,1278,o),
(136,1140,o),
(136,946,cs),
(136,774,o),
(290,674,o),
(416,626,cs),
(764,494,ls),
(872,452,o),
(942,398,o),
(942,308,cs),
(942,196,o),
(814,120,o),
(598,120,cs),
(404,120,o),
(258,202,o),
(258,350,cs),
(258,472,o),
(392,582,o),
(590,582,c),
(590,628,l),
(548,638,o),
(516,642,o),
(476,642,cs),
(258,642,o),
(94,528,o),
(94,338,cs),
(94,130,o),
(304,-24,o),
(598,-24,cs)
);
}
);
width = 1200;
}
);
},
{
glyphname = nine.tf;
lastChange = "2020-10-22 18:08:06 +0000";
layers = (
{
layerId = "CE2138A5-93BA-4A69-8B69-7D34CC27D2DF";
shapes = (
{
closed = 1;
nodes = (
(883,-20,o),
(1017,232,o),
(1017,634,cs),
(1017,1001,o),
(834,1231,o),
(564,1231,cs),
(339,1231,o),
(183,1091,o),
(183,872,cs),
(183,656,o),
(357,498,o),
(567,498,cs),
(771,498,o),
(907,624,o),
(921,836,c),
(931,766,o),
(933,722,o),
(933,658,cs),
(933,283,o),
(820,50,o),
(568,50,cs),
(371,50,o),
(265,171,o),
(263,360,c),
(187,360,l),
(187,144,o),
(336,-20,o),
(568,-20,cs)
);
},
{
closed = 1;
nodes = (
(387,579,o),
(263,691,o),
(263,872,cs),
(263,1052,o),
(387,1165,o),
(564,1165,cs),
(743,1165,o),
(869,1052,o),
(869,872,cs),
(869,711,o),
(743,579,o),
(564,579,cs)
);
}
);
width = 1200;
},
{
layerId = "54E4F05E-05D2-4398-A473-3C5492C75DBF";
shapes = (
{
closed = 1;
nodes = (
(957,-32,o),
(1158,250,o),
(1158,689,cs),
(1158,1094,o),
(883,1372,o),
(552,1372,cs),
(253,1372,o),
(42,1196,o),
(42,933,cs),
(42,680,o),
(210,504,o),
(468,504,cs),
(630,504,o),
(784,569,o),
(835,793,c),
(838,766,o),
(841,734,o),
(841,707,cs),
(841,443,o),
(771,259,o),
(568,259,cs),
(482,259,o),
(400,312,o),
(392,397,c),
(58,397,l),
(58,138,o),
(293,-32,o),
(580,-32,cs)
);
},
{
closed = 1;
nodes = (
(455,757,o),
(368,814,o),
(368,915,cs),
(368,1015,o),
(455,1079,o),
(552,1079,cs),
(651,1079,o),
(740,1015,o),
(740,915,cs),
(740,816,o),
(651,757,o),
(558,757,cs)
);
}
);
width = 1200;
},
{
layerId = "26C860F9-3A1D-441D-9B2D-5C5CFD026C88";
shapes = (
{
closed = 1;
nodes = (
(908,-24,o),
(1064,238,o),
(1064,652,cs),
(1064,1032,o),
(850,1278,o),
(560,1278,cs),
(310,1278,o),
(136,1126,o),
(136,892,cs),
(136,664,o),
(308,500,o),
(534,500,cs),
(724,500,o),
(866,606,o),
(892,822,c),
(900,766,o),
(902,726,o),
(902,674,cs),
(902,336,o),
(804,120,o),
(568,120,cs),
(408,120,o),
(310,218,o),
(306,372,c),
(144,372,l),
(144,142,o),
(322,-24,o),
(572,-24,cs)
);
},
{
closed = 1;
nodes = (
(410,638,o),
(298,732,o),
(298,886,cs),
(298,1040,o),
(410,1136,o),
(560,1136,cs),
(712,1136,o),
(826,1040,o),
(826,886,cs),
(826,746,o),
(712,638,o),
(562,638,cs)
);
}
);
width = 1200;
}
);
},
{
glyphname = zero.dnom;
lastChange = "2020-10-22 18:08:06 +0000";
layers = (
{
layerId = "CE2138A5-93BA-4A69-8B69-7D34CC27D2DF";
shapes = (
{
closed = 1;
nodes = (
(540,-20,o),
(645,108,o),
(645,358,cs),
(645,607,o),
(540,734,o),
(377,734,cs),
(214,734,o),
(110,607,o),
(110,358,cs),
(110,108,o),
(214,-20,o),
(377,-20,cs)
);
},
{
closed = 1;
nodes = (
(232,22,o),
(157,147,o),
(157,358,cs),
(157,569,o),
(232,693,o),
(377,693,cs),
(526,693,o),
(598,569,o),
(598,358,cs),
(598,147,o),
(526,22,o),
(377,22,cs)
);
}
);
width = 754;
},
{
layerId = "54E4F05E-05D2-4398-A473-3C5492C75DBF";
shapes = (
{
closed = 1;
nodes = (
(645,-32,o),
(794,103,o),
(794,390,cs),
(794,680,o),
(645,814,o),
(441,814,cs),
(233,814,o),
(86,680,o),
(86,390,cs),
(86,103,o),
(233,-32,o),
(441,-32,cs)
);
},
{
closed = 1;
nodes = (
(344,143,o),
(284,227,o),
(284,390,cs),
(284,554,o),
(344,640,o),
(441,640,cs),
(534,640,o),
(595,554,o),
(595,390,cs),
(595,227,o),
(534,143,o),
(441,143,cs)
);
}
);
width = 879;
},
{
layerId = "26C860F9-3A1D-441D-9B2D-5C5CFD026C88";
shapes = (
{
closed = 1;
nodes = (
(575,-24,o),
(695,106,o),
(695,369,cs),
(695,631,o),
(575,761,o),
(398,761,cs),
(220,761,o),
(102,631,o),
(102,369,cs),
(102,106,o),
(220,-24,o),
(398,-24,cs)
);
},
{
closed = 1;
nodes = (
(269,62,o),
(199,174,o),
(199,369,cs),
(199,564,o),
(269,675,o),
(398,675,cs),
(529,675,o),
(597,564,o),
(597,369,cs),
(597,174,o),
(529,62,o),
(398,62,cs)
);
}
);
width = 795.66667;
}
);
metricLeft = zero;
metricRight = zero;
},
{
glyphname = one.dnom;
lastChange = "2020-10-22 18:08:06 +0000";
layers = (
{
layerId = "CE2138A5-93BA-4A69-8B69-7D34CC27D2DF";
shapes = (
{
closed = 1;
nodes = (
(201,698,o),
(155,680,o),
(108,672,c),
(108,626,l),
(152,628,o),
(197,646,o),
(232,680,c),
(232,0,l),
(277,0,l),
(277,731,l),
(234,731,l)
);
}
);
width = 497;
},
{
layerId = "54E4F05E-05D2-4398-A473-3C5492C75DBF";
shapes = (
{
closed = 1;
nodes = (
(183,772,o),
(130,754,o),
(71,749,c),
(71,566,l),
(111,565,o),
(149,572,o),
(195,584,c),
(195,0,l),
(388,0,l),
(388,816,l),
(248,816,l)
);
}
);
width = 559;
},
{
layerId = "26C860F9-3A1D-441D-9B2D-5C5CFD026C88";
shapes = (
{
closed = 1;
nodes = (
(195,723,o),
(147,705,o),
(96,698,c),
(96,606,l),
(138,607,o),
(181,621,o),
(220,648,c),
(220,0,l),
(314,0,l),
(314,759,l),
(239,759,l)
);
}
);
width = 517;
}
);
metricLeft = one;
metricRight = one;
},
{
glyphname = two.dnom;
lastChange = "2020-10-22 18:08:06 +0000";
layers = (
{
layerId = "CE2138A5-93BA-4A69-8B69-7D34CC27D2DF";
shapes = (
{
closed = 1;
nodes = (
(613,0,l),
(613,42,l),
(181,42,l),
(181,92,ls),
(181,178,o),
(232,229,o),
(324,265,cs),
(468,325,ls),
(551,361,o),
(623,425,o),
(623,539,cs),
(623,654,o),
(528,742,o),
(395,742,cs),
(244,742,o),
(163,673,o),
(150,571,c),
(200,571,l),
(210,658,o),
(282,701,o),
(395,701,cs),
(505,701,o),
(572,639,o),
(572,545,cs),
(572,457,o),
(528,403,o),
(443,368,cs),
(305,311,ls),
(213,273,o),
(136,221,o),
(136,90,cs),
(136,0,l)
);
}
);
width = 786;
},
{
layerId = "54E4F05E-05D2-4398-A473-3C5492C75DBF";
shapes = (
{
closed = 1;
nodes = (
(759,0,l),
(759,176,l),
(304,176,l),
(304,185,ls),
(304,211,o),
(318,225,o),
(365,243,cs),
(536,307,ls),
(700,369,o),
(761,448,o),
(761,572,cs),
(761,728,o),
(622,827,o),
(451,827,cs),
(275,827,o),
(123,743,o),
(125,553,c),
(338,553,l),
(344,621,o),
(394,660,o),
(455,660,cs),
(521,660,o),
(555,620,o),
(555,578,cs),
(555,531,o),
(528,499,o),
(466,475,cs),
(295,411,ls),
(162,361,o),
(112,288,o),
(112,157,cs),
(112,0,l)
);
}
);
width = 835;
},
{
layerId = "26C860F9-3A1D-441D-9B2D-5C5CFD026C88";
shapes = (
{
closed = 1;
nodes = (
(662,0,l),
(662,87,l),
(222,87,l),
(222,123,ls),
(222,189,o),
(261,228,o),
(338,258,cs),
(491,319,ls),
(601,364,o),
(669,433,o),
(669,550,cs),
(669,679,o),
(559,770,o),
(414,770,cs),
(254,770,o),
(150,696,o),
(142,565,c),
(246,565,l),
(255,646,o),
(319,687,o),
(415,687,cs),
(510,687,o),
(566,633,o),
(566,556,cs),
(566,482,o),
(528,435,o),
(451,404,cs),
(302,344,ls),
(196,302,o),
(128,243,o),
(128,112,cs),
(128,0,l)
);
}
);
width = 802.33333;
}
);
metricLeft = two;
metricRight = two;
},
{
glyphname = three.dnom;
lastChange = "2020-10-22 18:08:06 +0000";
layers = (
{
layerId = "CE2138A5-93BA-4A69-8B69-7D34CC27D2DF";
shapes = (
{
closed = 1;
nodes = (
(544,-20,o),
(634,68,o),
(634,190,cs),
(634,291,o),
(562,352,o),
(465,375,c),
(552,407,o),
(601,460,o),
(601,540,cs),
(601,652,o),
(504,734,o),
(373,734,cs),
(264,734,o),
(172,691,o),
(150,570,c),
(192,570,l),
(220,666,o),
(289,693,o),
(372,693,cs),
(484,693,o),
(553,625,o),
(553,540,cs),
(553,443,o),
(464,387,o),
(321,387,cs),
(294,387,l),
(294,350,l),
(361,350,ls),
(526,350,o),
(585,280,o),
(585,190,cs),
(585,95,o),
(514,22,o),
(386,22,cs),
(267,22,o),
(164,83,o),
(164,208,c),
(122,208,l),
(122,61,o),
(248,-20,o),
(386,-20,cs)
);
}
);
width = 778;
},
{
layerId = "54E4F05E-05D2-4398-A473-3C5492C75DBF";
shapes = (
{
closed = 1;
nodes = (
(628,-32,o),
(770,70,o),
(770,218,cs),
(770,308,o),
(713,373,o),
(620,411,c),
(703,438,o),
(745,504,o),
(745,583,cs),
(745,721,o),
(607,814,o),
(417,814,cs),
(230,814,o),
(97,731,o),
(83,551,c),
(287,551,l),
(297,613,o),
(358,640,o),
(427,640,cs),
(506,640,o),
(537,605,o),
(537,558,cs),
(537,505,o),
(500,470,o),
(435,470,cs),
(315,470,l),
(315,319,l),
(438,319,ls),
(517,319,o),
(562,294,o),
(562,237,cs),
(562,182,o),
(509,143,o),
(427,143,cs),
(336,143,o),
(286,189,o),
(278,248,c),
(73,248,l),
(73,63,o),
(247,-32,o),
(427,-32,cs)
);
}
);
width = 850;
},
{
layerId = "26C860F9-3A1D-441D-9B2D-5C5CFD026C88";
shapes = (
{
closed = 1;
nodes = (
(572,-24,o),
(679,69,o),
(679,199,cs),
(679,297,o),
(612,359,o),
(517,387,c),
(602,417,o),
(649,475,o),
(649,554,cs),
(649,675,o),
(538,761,o),
(388,761,cs),
(253,761,o),
(147,704,o),
(128,564,c),
(224,564,l),
(246,648,o),
(312,675,o),
(390,675,cs),
(491,675,o),
(548,618,o),
(548,546,cs),
(548,464,o),
(476,415,o),
(359,415,cs),
(301,415,l),
(301,340,l),
(387,340,ls),
(523,340,o),
(577,285,o),
(577,206,cs),
(577,124,o),
(512,62,o),
(400,62,cs),
(290,62,o),
(205,118,o),
(202,221,c),
(106,221,l),
(106,62,o),
(248,-24,o),
(400,-24,cs)
);
}
);
width = 802;
}
);
metricLeft = three;
metricRight = three;
},
{
glyphname = four.dnom;
lastChange = "2020-10-22 18:08:06 +0000";
layers = (
{
layerId = "CE2138A5-93BA-4A69-8B69-7D34CC27D2DF";
shapes = (
{
closed = 1;
nodes = (
(60,232,l),
(60,195,l),
(447,195,l),
(447,0,l),
(490,0,l),
(490,195,l),
(617,195,l),
(617,232,l),
(490,232,l),
(490,744,l),
(453,744,l)
);
},
{
closed = 1;
nodes = (
(447,232,l),
(115,232,l),
(447,660,l)
);
}
);
width = 675;
},
{
layerId = "54E4F05E-05D2-4398-A473-3C5492C75DBF";
shapes = (
{
closed = 1;
nodes = (
(36,306,l),
(36,162,l),
(437,162,l),
(437,0,l),
(629,0,l),
(629,162,l),
(770,162,l),
(770,328,l),
(629,328,l),
(629,814,l),
(440,814,l)
);
},
{
closed = 1;
nodes = (
(448,306,l),
(264,306,l),
(448,538,l)
);
}
);
width = 783;
},
{
layerId = "26C860F9-3A1D-441D-9B2D-5C5CFD026C88";
shapes = (
{
closed = 1;
nodes = (
(52,257,l),
(52,184,l),
(444,184,l),
(444,0,l),
(536,0,l),
(536,184,l),
(668,184,l),
(668,264,l),
(536,264,l),
(536,767,l),
(449,767,l)
);
},
{
closed = 1;
nodes = (
(447,257,l),
(165,257,l),
(447,619,l)
);
}
);
width = 711;
}
);
metricLeft = four;
metricRight = four;
},
{
glyphname = five.dnom;
lastChange = "2020-10-22 18:08:06 +0000";
layers = (
{
layerId = "CE2138A5-93BA-4A69-8B69-7D34CC27D2DF";
shapes = (
{
closed = 1;
nodes = (
(536,-20,o),
(628,82,o),
(628,220,cs),
(628,364,o),
(527,430,o),
(361,430,cs),
(322,430,o),
(274,428,o),
(236,419,c),
(248,411,l),
(276,707,l),
(265,683,l),
(597,683,l),
(597,723,l),
(229,723,l),
(200,392,l),
(365,392,ls),
(506,392,o),
(580,333,o),
(580,220,cs),
(580,108,o),
(509,22,o),
(379,22,cs),
(273,22,o),
(188,77,o),
(188,179,c),
(146,179,l),
(145,49,o),
(262,-20,o),
(379,-20,cs)
);
}
);
width = 775;
},
{
layerId = "54E4F05E-05D2-4398-A473-3C5492C75DBF";
shapes = (
{
closed = 1;
nodes = (
(604,-32,o),
(734,100,o),
(734,264,cs),
(734,411,o),
(629,499,o),
(470,499,cs),
(432,499,o),
(365,493,o),
(327,485,c),
(339,469,l),
(359,669,l),
(323,619,l),
(688,619,l),
(688,796,l),
(168,796,l),
(128,358,l),
(404,358,ls),
(494,358,o),
(538,325,o),
(538,264,cs),
(538,196,o),
(482,143,o),
(415,143,cs),
(345,143,o),
(294,176,o),
(294,245,c),
(97,245,l),
(103,70,o),
(220,-32,o),
(415,-32,cs)
);
}
);
width = 780;
},
{
layerId = "26C860F9-3A1D-441D-9B2D-5C5CFD026C88";
shapes = (
{
closed = 1;
nodes = (
(559,-24,o),
(663,88,o),
(663,235,cs),
(663,380,o),
(561,453,o),
(397,453,cs),
(359,453,o),
(304,450,o),
(266,441,c),
(278,430,l),
(304,694,l),
(284,662,l),
(627,662,l),
(627,747,l),
(209,747,l),
(176,381,l),
(378,381,ls),
(502,381,o),
(566,330,o),
(566,235,cs),
(566,137,o),
(500,62,o),
(391,62,cs),
(297,62,o),
(223,110,o),
(223,201,c),
(130,201,l),
(131,56,o),
(248,-24,o),
(391,-24,cs)
);
}
);
width = 776;
}
);
metricLeft = five;
metricRight = five;
},
{
glyphname = six.dnom;
lastChange = "2020-10-22 18:08:06 +0000";
layers = (
{
layerId = "CE2138A5-93BA-4A69-8B69-7D34CC27D2DF";
shapes = (
{
closed = 1;
nodes = (
(517,-20,o),
(611,68,o),
(611,199,cs),
(611,331,o),
(506,423,o),
(378,423,cs),
(269,423,o),
(166,367,o),
(164,194,c),
(158,237,o),
(157,291,o),
(157,328,cs),
(157,553,o),
(247,693,o),
(400,693,cs),
(494,693,o),
(540,639,o),
(556,557,c),
(607,557,l),
(589,661,o),
(513,734,o),
(400,734,cs),
(213,734,o),
(110,584,o),
(110,344,cs),
(110,141,o),
(213,-20,o),
(380,-20,cs)
);
},
{
closed = 1;
nodes = (
(274,22,o),
(199,89,o),
(199,197,cs),
(199,297,o),
(274,374,o),
(380,374,cs),
(488,374,o),
(562,308,o),
(562,197,cs),
(562,89,o),
(488,22,o),
(380,22,cs)
);
}
);
width = 743;
},
{
layerId = "54E4F05E-05D2-4398-A473-3C5492C75DBF";
shapes = (
{
closed = 1;
nodes = (
(634,-32,o),
(761,74,o),
(761,231,cs),
(761,382,o),
(660,492,o),
(503,492,cs),
(404,492,o),
(309,451,o),
(281,316,c),
(278,332,o),
(277,350,o),
(277,367,cs),
(277,534,o),
(348,640,o),
(457,640,cs),
(511,640,o),
(542,608,o),
(547,556,c),
(750,556,l),
(751,713,o),
(627,814,o),
(450,814,cs),
(238,814,o),
(86,661,o),
(86,377,cs),
(86,137,o),
(238,-32,o),
(449,-32,cs)
);
},
{
closed = 1;
nodes = (
(391,143,o),
(338,184,o),
(338,241,cs),
(338,303,o),
(391,340,o),
(449,340,cs),
(509,340,o),
(563,303,o),
(563,241,cs),
(563,184,o),
(509,143,o),
(449,143,cs)
);
}
);
width = 841;
},
{
layerId = "26C860F9-3A1D-441D-9B2D-5C5CFD026C88";
shapes = (
{
closed = 1;
nodes = (
(556,-24,o),
(661,70,o),
(661,210,cs),
(661,348,o),
(557,446,o),
(420,446,cs),
(314,446,o),
(214,395,o),
(203,235,c),
(198,269,o),
(197,311,o),
(197,341,cs),
(197,547,o),
(281,675,o),
(419,675,cs),
(500,675,o),
(541,629,o),
(553,557,c),
(655,557,l),
(643,678,o),
(551,761,o),
(417,761,cs),
(221,761,o),
(102,610,o),
(102,355,cs),
(102,140,o),
(221,-24,o),
(403,-24,cs)
);
},
{
closed = 1;
nodes = (
(313,62,o),
(245,121,o),
(245,212,cs),
(245,299,o),
(313,363,o),
(403,363,cs),
(495,363,o),
(562,306,o),
(562,212,cs),
(562,121,o),
(495,62,o),
(403,62,cs)
);
}
);
width = 775.66667;
}
);
metricLeft = six;
metricRight = six;
},
{
glyphname = seven.dnom;
lastChange = "2020-10-22 18:08:06 +0000";
layers = (
{
layerId = "CE2138A5-93BA-4A69-8B69-7D34CC27D2DF";
shapes = (
{
closed = 1;
nodes = (
(166,0,l),
(529,695,l),
(529,731,l),
(48,731,l),
(48,691,l),
(476,691,l),
(109,0,l)
);
}
);
width = 564;
},
{
layerId = "54E4F05E-05D2-4398-A473-3C5492C75DBF";
shapes = (
{
closed = 1;
nodes = (
(314,0,l),
(633,620,l),
(633,808,l),
(48,808,l),
(48,620,l),
(406,620,l),
(53,0,l)
);
}
);
width = 668;
},
{
layerId = "26C860F9-3A1D-441D-9B2D-5C5CFD026C88";
shapes = (
{
closed = 1;
nodes = (
(215,0,l),
(564,670,l),
(564,757,l),
(48,757,l),
(48,667,l),
(453,667,l),
(90,0,l)
);
}
);
width = 598.66667;
}
);
metricLeft = seven;
metricRight = seven;
},
{
glyphname = eight.dnom;
lastChange = "2020-10-22 18:08:06 +0000";
layers = (
{
layerId = "CE2138A5-93BA-4A69-8B69-7D34CC27D2DF";
shapes = (
{
closed = 1;
nodes = (
(572,-20,o),
(676,55,o),
(676,163,cs),
(676,254,o),
(617,305,o),
(510,344,cs),
(324,414,ls),
(245,442,o),
(195,477,o),
(195,546,cs),
(195,625,o),
(281,693,o),
(398,693,cs),
(518,693,o),
(599,625,o),
(599,539,cs),
(599,444,o),
(517,379,o),
(401,379,c),
(401,360,l),
(415,357,o),
(428,357,o),
(441,357,cs),
(578,357,o),
(646,441,o),
(646,538,cs),
(646,649,o),
(548,734,o),
(398,734,cs),
(242,734,o),
(146,650,o),
(146,547,cs),
(146,453,o),
(230,399,o),
(301,373,cs),
(495,299,l),
(576,272,o),
(627,232,o),
(627,163,cs),
(627,78,o),
(533,22,o),
(398,22,cs),
(266,22,o),
(169,79,o),
(169,188,cs),
(169,275,o),
(257,358,o),
(396,358,c),
(396,378,l),
(384,380,o),
(369,379,o),
(357,379,cs),
(219,379,o),
(122,307,o),
(122,188,cs),
(122,68,o),
(243,-20,o),
(398,-20,cs)
);
}
);
width = 797;
},
{
layerId = "54E4F05E-05D2-4398-A473-3C5492C75DBF";
shapes = (
{
closed = 1;
nodes = (
(672,-32,o),
(802,72,o),
(802,214,cs),
(802,323,o),
(736,374,o),
(617,421,cs),
(365,520,l),
(327,537,o),
(310,554,o),
(310,578,cs),
(310,616,o),
(370,640,o),
(443,640,cs),
(521,640,o),
(577,613,o),
(577,560,cs),
(577,514,o),
(513,485,o),
(453,485,c),
(453,433,l),
(497,419,o),
(524,411,o),
(563,411,cs),
(694,411,o),
(775,488,o),
(775,575,cs),
(775,715,o),
(625,814,o),
(443,814,cs),
(231,814,o),
(113,731,o),
(113,587,cs),
(113,463,o),
(222,391,o),
(309,357,cs),
(547,265,l),
(583,249,o),
(604,227,o),
(604,202,cs),
(604,170,o),
(563,143,o),
(443,143,cs),
(358,143,o),
(283,178,o),
(283,228,cs),
(283,274,o),
(350,308,o),
(433,308,c),
(433,351,l),
(380,364,o),
(350,374,o),
(305,374,cs),
(182,374,o),
(85,313,o),
(85,206,cs),
(85,70,o),
(218,-32,o),
(443,-32,cs)
);
}
);
width = 886;
},
{
layerId = "26C860F9-3A1D-441D-9B2D-5C5CFD026C88";
shapes = (
{
closed = 1;
nodes = (
(605,-24,o),
(718,61,o),
(718,180,cs),
(718,277,o),
(657,328,o),
(546,370,cs),
(338,449,ls),
(272,474,o),
(233,503,o),
(233,557,cs),
(233,622,o),
(311,675,o),
(413,675,cs),
(519,675,o),
(592,621,o),
(592,546,cs),
(592,467,o),
(516,414,o),
(418,414,c),
(418,384,l),
(442,378,o),
(460,375,o),
(482,375,cs),
(617,375,o),
(689,457,o),
(689,550,cs),
(689,671,o),
(574,761,o),
(413,761,cs),
(238,761,o),
(135,677,o),
(135,560,cs),
(135,456,o),
(227,396,o),
(304,368,cs),
(512,288,ls),
(578,264,o),
(619,230,o),
(619,176,cs),
(619,109,o),
(543,62,o),
(413,62,cs),
(297,62,o),
(207,112,o),
(207,201,cs),
(207,275,o),
(288,341,o),
(408,341,c),
(408,369,l),
(383,375,o),
(363,377,o),
(340,377,cs),
(207,377,o),
(110,309,o),
(110,194,cs),
(110,69,o),
(235,-24,o),
(413,-24,cs)
);
}
);
width = 826.66667;
}
);
metricLeft = eight;
metricRight = eight;
},
{
glyphname = nine.dnom;
lastChange = "2020-10-22 18:08:06 +0000";
layers = (
{
layerId = "CE2138A5-93BA-4A69-8B69-7D34CC27D2DF";
shapes = (
{
closed = 1;
nodes = (
(579,-20,o),
(658,132,o),
(658,374,cs),
(658,595,o),
(549,734,o),
(389,734,cs),
(250,734,o),
(159,649,o),
(159,517,cs),
(159,387,o),
(263,292,o),
(387,292,cs),
(513,292,o),
(593,368,o),
(601,496,c),
(607,453,o),
(609,427,o),
(609,388,cs),
(609,163,o),
(542,22,o),
(389,22,cs),
(271,22,o),
(206,95,o),
(205,209,c),
(160,209,l),
(160,79,o),
(252,-20,o),
(389,-20,cs)
);
},
{
closed = 1;
nodes = (
(280,341,o),
(206,408,o),
(206,517,cs),
(206,626,o),
(280,694,o),
(389,694,cs),
(493,694,o),
(571,626,o),
(571,517,cs),
(571,420,o),
(493,341,o),
(388,341,cs)
);
}
);
width = 769;
},
{
layerId = "54E4F05E-05D2-4398-A473-3C5492C75DBF";
shapes = (
{
closed = 1;
nodes = (
(632,-32,o),
(752,138,o),
(752,402,cs),
(752,646,o),
(588,814,o),
(387,814,cs),
(207,814,o),
(79,708,o),
(79,549,cs),
(79,397,o),
(180,291,o),
(337,291,cs),
(433,291,o),
(528,330,o),
(559,465,c),
(561,449,o),
(562,429,o),
(562,413,cs),
(562,254,o),
(518,143,o),
(398,143,cs),
(346,143,o),
(297,175,o),
(292,226,c),
(91,226,l),
(91,70,o),
(231,-32,o),
(405,-32,cs)
);
},
{
closed = 1;
nodes = (
(330,443,o),
(277,478,o),
(277,538,cs),
(277,599,o),
(330,637,o),
(387,637,cs),
(447,637,o),
(501,599,o),
(501,538,cs),
(501,479,o),
(447,443,o),
(389,443,cs)
);
}
);
width = 838;
},
{
layerId = "26C860F9-3A1D-441D-9B2D-5C5CFD026C88";
shapes = (
{
closed = 1;
nodes = (
(597,-24,o),
(689,134,o),
(689,383,cs),
(689,612,o),
(562,761,o),
(388,761,cs),
(236,761,o),
(132,669,o),
(132,528,cs),
(132,390,o),
(235,292,o),
(370,292,cs),
(486,292,o),
(571,355,o),
(587,486,c),
(592,452,o),
(593,428,o),
(593,396,cs),
(593,193,o),
(534,62,o),
(392,62,cs),
(296,62,o),
(236,122,o),
(234,215,c),
(137,215,l),
(137,76,o),
(245,-24,o),
(394,-24,cs)
);
},
{
closed = 1;
nodes = (
(297,375,o),
(230,431,o),
(230,524,cs),
(230,617,o),
(297,675,o),
(388,675,cs),
(478,675,o),
(548,617,o),
(548,524,cs),
(548,440,o),
(478,375,o),
(388,375,cs)
);
}
);
width = 791;
}
);
metricLeft = nine;
metricRight = nine;
},
{
glyphname = fraction;
lastChange = "2023-04-19 13:02:43 +0000";
layers = (
{
layerId = "CE2138A5-93BA-4A69-8B69-7D34CC27D2DF";
shapes = (
{
closed = 1;
nodes = (
(-205,-12,l),
(868,1337,l),
(812,1337,l),
(-258,-12,l)
);
}
);
width = 522;
},
{
layerId = "54E4F05E-05D2-4398-A473-3C5492C75DBF";
shapes = (
{
closed = 1;
nodes = (
(-33,-27,l),
(891,1369,l),
(621,1369,l),
(-299,-27,l)
);
}
);
width = 593;
},
{
layerId = "26C860F9-3A1D-441D-9B2D-5C5CFD026C88";
shapes = (
{
closed = 1;
nodes = (
(-153,-16,l),
(866,1349,l),
(744,1349,l),
(-272,-16,l)
);
}
);
width = 545.66667;
}
);
unicode = 8260;
},
{
color = 4;
glyphname = zeroinferior;
lastChange = "2020-10-22 20:21:41 +0000";
layers = (
{
background = {
shapes = (
{
pos = (42,-8);
ref = zero;
scale = (0.625,0.625);
}
);
};
layerId = "CE2138A5-93BA-4A69-8B69-7D34CC27D2DF";
shapes = (
{
closed = 1;
nodes = (
(556,-21,o),
(665,112,o),
(665,372,cs),
(665,630,o),
(556,761,o),
(387,761,cs),
(217,761,o),
(110,630,o),
(110,372,cs),
(110,112,o),
(217,-21,o),
(387,-21,cs)
);
},
{
closed = 1;
nodes = (
(236,23,o),
(159,153,o),
(159,372,cs),
(159,591,o),
(236,719,o),
(387,719,cs),
(541,719,o),
(616,591,o),
(616,372,cs),
(616,153,o),
(541,23,o),
(387,23,cs)
);
}
);
width = 774;
},
{
background = {
shapes = (
{
pos = (33,-12);
ref = zero;
scale = (0.625,0.625);
}
);
};
layerId = "54E4F05E-05D2-4398-A473-3C5492C75DBF";
shapes = (
{
closed = 1;
nodes = (
(666,-32,o),
(821,108,o),
(821,406,cs),
(821,707,o),
(666,846,o),
(455,846,cs),
(239,846,o),
(86,707,o),
(86,406,cs),
(86,108,o),
(239,-32,o),
(455,-32,cs)
);
},
{
closed = 1;
nodes = (
(354,150,o),
(292,237,o),
(292,406,cs),
(292,576,o),
(354,665,o),
(455,665,cs),
(551,665,o),
(615,576,o),
(615,406,cs),
(615,237,o),
(551,150,o),
(455,150,cs)
);
}
);
width = 906;
},
{
background = {
shapes = (
{
alignment = -1;
pos = (39,-9);
ref = zero;
scale = (0.625,0.625);
}
);
};
layerId = "26C860F9-3A1D-441D-9B2D-5C5CFD026C88";
shapes = (
{
closed = 1;
nodes = (
(593,-24,o),
(717,111,o),
(717,384,cs),
(717,656,o),
(593,790,o),
(409,790,cs),
(224,790,o),
(102,656,o),
(102,384,cs),
(102,111,o),
(224,-24,o),
(409,-24,cs)
);
},
{
closed = 1;
nodes = (
(276,66,o),
(203,181,o),
(203,384,cs),
(203,586,o),
(276,701,o),
(409,701,cs),
(544,701,o),
(616,586,o),
(616,384,cs),
(616,181,o),
(544,66,o),
(409,66,cs)
);
}
);
width = 818;
}
);
metricLeft = zero;
metricRight = zero;
unicode = 8320;
},
{
color = 4;
glyphname = oneinferior;
lastChange = "2020-10-22 20:21:41 +0000";
layers = (
{
background = {
shapes = (
{
pos = (42,0);
ref = one;
scale = (0.6024,0.6024);
}
);
};
layerId = "CE2138A5-93BA-4A69-8B69-7D34CC27D2DF";
shapes = (
{
closed = 1;
nodes = (
(201,698,o),
(155,680,o),
(108,672,c),
(108,626,l),
(151,628,o),
(197,646,o),
(232,680,c),
(232,0,l),
(277,0,l),
(277,731,l),
(233,731,l)
);
}
);
width = 497;
},
{
background = {
shapes = (
{
pos = (27,0);
ref = one;
scale = (0.6024,0.6024);
}
);
};
layerId = "54E4F05E-05D2-4398-A473-3C5492C75DBF";
shapes = (
{
closed = 1;
nodes = (
(182,772,o),
(129,754,o),
(71,749,c),
(71,566,l),
(111,565,o),
(149,572,o),
(195,584,c),
(195,0,l),
(388,0,l),
(388,816,l),
(248,816,l)
);
}
);
width = 559;
},
{
background = {
shapes = (
{
alignment = -1;
pos = (37,0);
ref = one;
scale = (0.6024,0.6024);
}
);
};
layerId = "26C860F9-3A1D-441D-9B2D-5C5CFD026C88";
shapes = (
{
closed = 1;
nodes = (
(195,723,o),
(146,705,o),
(96,698,c),
(96,606,l),
(138,607,o),
(181,622,o),
(220,648,c),
(220,0,l),
(314,0,l),
(314,759,l),
(238,759,l)
);
}
);
width = 517;
}
);
metricLeft = one;
metricRight = one;
unicode = 8321;
},
{
color = 4;
glyphname = twoinferior;
lastChange = "2020-10-22 20:21:41 +0000";
layers = (
{
background = {
shapes = (
{
pos = (53,0);
ref = two;
scale = (0.6024,0.6024);
}
);
};
layerId = "CE2138A5-93BA-4A69-8B69-7D34CC27D2DF";
shapes = (
{
closed = 1;
nodes = (
(613,0,l),
(613,42,l),
(181,42,l),
(181,92,ls),
(181,178,o),
(232,229,o),
(323,265,cs),
(468,325,ls),
(550,361,o),
(623,425,o),
(623,539,cs),
(623,654,o),
(528,742,o),
(394,742,cs),
(244,742,o),
(162,673,o),
(149,571,c),
(200,571,l),
(209,658,o),
(282,701,o),
(394,701,cs),
(505,701,o),
(572,639,o),
(572,545,cs),
(572,457,o),
(527,403,o),
(443,368,cs),
(305,311,ls),
(212,273,o),
(136,221,o),
(136,90,cs),
(136,0,l)
);
}
);
width = 786;
},
{
background = {
shapes = (
{
pos = (44,0);
ref = two;
scale = (0.6024,0.6024);
}
);
};
layerId = "54E4F05E-05D2-4398-A473-3C5492C75DBF";
shapes = (
{
closed = 1;
nodes = (
(759,0,l),
(759,176,l),
(305,176,l),
(305,185,ls),
(305,211,o),
(319,225,o),
(366,243,cs),
(537,307,ls),
(700,369,o),
(762,448,o),
(762,572,cs),
(762,728,o),
(623,827,o),
(452,827,cs),
(276,827,o),
(124,743,o),
(126,553,c),
(339,553,l),
(345,621,o),
(395,660,o),
(456,660,cs),
(522,660,o),
(556,620,o),
(556,578,cs),
(556,531,o),
(529,499,o),
(467,475,cs),
(296,411,ls),
(162,361,o),
(112,288,o),
(112,157,cs),
(112,0,l)
);
}
);
width = 836;
},
{
background = {
shapes = (
{
alignment = -1;
pos = (50,0);
ref = two;
scale = (0.6024,0.6024);
}
);
};
layerId = "26C860F9-3A1D-441D-9B2D-5C5CFD026C88";
shapes = (
{
closed = 1;
nodes = (
(662,0,l),
(662,87,l),
(222,87,l),
(222,123,ls),
(222,189,o),
(261,228,o),
(338,258,cs),
(491,319,ls),
(600,364,o),
(669,433,o),
(669,549,cs),
(669,678,o),
(559,770,o),
(414,770,cs),
(255,770,o),
(150,696,o),
(141,565,c),
(246,565,l),
(255,646,o),
(320,687,o),
(415,687,cs),
(510,687,o),
(567,633,o),
(567,555,cs),
(567,482,o),
(528,435,o),
(451,404,cs),
(302,345,ls),
(196,302,o),
(128,243,o),
(128,112,cs),
(128,0,l)
);
}
);
width = 802;
}
);
metricLeft = two;
metricRight = two;
unicode = 8322;
},
